<svg width="54" height="67" fill="none" xmlns="http://www.w3.org/2000/svg"><path d="M54 26.716C53.858 11.796 41.637-.14 26.716.002 11.796.143-.14 12.364.001 27.285c0 6.537 2.416 12.363 6.253 17.052h-.142L27.285 66.08 47.89 44.053h-.142C51.726 39.363 54 33.253 54 26.717zM26.716 54.5C15.348 54.642 2.5 38.653 2.5 27.285 2.358 15.917 15.348 2.5 26.716 2.5 38.085 2.358 51.5 15.917 51.5 27.285c0 11.226-13.557 27.073-24.784 27.215z" fill="#196EAB"/><path d="M27.568 29.843c1.705-2.558 2.132-3.41 2.132-3.41l-1.421-.995s-.285.284-1.848 2.415c-1.137-1.847-1.563-2.416-1.563-2.416l-1.42.853s.141.427 1.846 3.268c-.142.143-.284.285-.426.569-2.984 4.405-9.663 9.52-6.537 11.51 2.985 1.99 5.543-6.11 8.1-10.09 2.416 4.406 4.121 11.937 7.105 10.09 3.127-1.847-3.268-7.673-5.542-11.51-.284 0-.284-.142-.426-.284zM23.732 23.022l-1.848 1.137c-.426.284-.568.71-.284 1.137.284.426.71.568 1.137.284l1.847-1.137c.426-.284.569-.71.284-1.137-.284-.426-.71-.568-1.136-.284zM22.31 22.737c2.274-1.278 2.7-4.831.996-7.673-1.706-2.984-4.974-4.263-7.248-2.842-2.273 1.279-2.7 4.831-.994 7.673 1.705 2.985 4.973 4.263 7.247 2.842zm-6.962-8.526c1.705 4.121 4.547 7.674 4.547 7.674-5.826-1.705-4.547-7.674-4.547-7.674zM28.706 24.443l1.847 1.279c.426.284.995.142 1.279-.285.284-.426.142-.994-.284-1.279L29.7 22.88c-.426-.284-.994-.142-1.279.285-.284.426-.142.994.285 1.279zM41.069 14.922c-.427-.284-4.406 5.116-5.116 4.547-.853-.568 3.41-5.684 2.984-5.968-.426-.284-3.979 5.4-4.831 4.832-.853-.569 3.126-5.969 2.7-6.253-.427-.284-3.837 5.4-4.548 4.973-.71-.426 2.842-6.11 2.416-6.394-.426-.284-5.116 7.531-5.116 7.531-.71 1.137-.568 2.558.427 3.269l2.7 1.847c.994.71 2.415.284 3.126-.71.284-.143 5.684-7.39 5.258-7.674z" fill="#196EAB"/></svg>