<svg width="80" height="53" fill="none" xmlns="http://www.w3.org/2000/svg"><path d="M3.967 42.301a10.573 10.573 0 0 0 21.144.252l10.15-7.722 20.521 15.605a11.903 11.903 0 0 0 16.683-2.265 1.322 1.322 0 0 0-.253-1.853l-26.031-19.8L72.2 6.715a1.322 1.322 0 0 0 .264-1.851A11.901 11.901 0 0 0 55.788 2.6L35.26 18.209 25.11 10.486a10.566 10.566 0 1 0-9.14 10.549c.317-.044.627-.105.936-.175l7.434 5.656-7.24 5.508a11.025 11.025 0 0 0-1.132-.221 10.577 10.577 0 0 0-12 10.498zm65.51 5.265a9.257 9.257 0 0 1-12.097.765L37.444 33.164l6.552-4.986 25.48 19.388zM35.26 31.5l-6.552-4.984 6.552-4.99 6.553 4.985-6.553 4.99zM57.384 4.703a9.257 9.257 0 0 1 12.097.766L43.996 24.855l-6.551-4.984L57.384 4.702zM9.74 16.868a7.934 7.934 0 1 1 5.872 1.547 7.882 7.882 0 0 1-5.872-1.55v.003zm10.05 2.871a10.515 10.515 0 0 0 4.893-6.242l8.381 6.377-6.552 4.984-6.722-5.119zm6.727 8.442l6.553 4.985-8.331 6.339a10.552 10.552 0 0 0-4.803-6.316l6.581-5.008zm-10.91 6.248a7.934 7.934 0 1 1-5.872 1.547 7.88 7.88 0 0 1 5.877-1.55l-.006.003z" fill="#111"/><path d="M9.256 42.294a5.29 5.29 0 1 0 10.579-.018 5.29 5.29 0 0 0-10.579.018zm5.643-2.627a2.644 2.644 0 1 1-.717 5.24 2.644 2.644 0 0 1 .72-5.24h-.003zM18.756 13.754a5.29 5.29 0 1 0-8.424-6.404 5.29 5.29 0 0 0 8.425 6.404h-.001zm-5.812-1.098a2.645 2.645 0 1 1 3.199-4.214 2.645 2.645 0 0 1-3.199 4.214z" fill="#000"/><path d="M33.058 26.42a1.322 1.322 0 0 0 1.323 1.322h1.322a1.322 1.322 0 1 0 0-2.645h-1.322a1.322 1.322 0 0 0-1.323 1.322zM78.02 27.742a1.322 1.322 0 1 0 0-2.645h-2.645a1.322 1.322 0 1 0 0 2.645h2.644zM70.086 27.742a1.322 1.322 0 1 0 0-2.645H67.44a1.322 1.322 0 1 0 0 2.645h2.645zM62.15 27.742a1.322 1.322 0 1 0 0-2.645h-2.645a1.322 1.322 0 1 0 0 2.645h2.645zM55.54 26.42a1.323 1.323 0 0 0-1.323-1.323h-2.645a1.322 1.322 0 1 0 0 2.645h2.645a1.322 1.322 0 0 0 1.322-1.323zM15.869 26.42a1.322 1.322 0 0 0 1.322 1.322h2.645a1.322 1.322 0 1 0 0-2.645H17.19a1.322 1.322 0 0 0-1.322 1.322zM9.256 25.097a1.322 1.322 0 1 0 0 2.645H11.9a1.322 1.322 0 1 0 0-2.645H9.256zM1.322 25.097a1.322 1.322 0 1 0 0 2.645h2.645a1.322 1.322 0 1 0 0-2.645H1.322z" fill="#833C9F"/></svg>