<svg width="1846" height="259" fill="none" xmlns="http://www.w3.org/2000/svg"><path d="M1546 88H0v83h1546V88z" fill="#F5F9FC"/><path d="M1516 129.5c0 69.838 55.07 126.764 123.99 129.404 2.76.106 5.01-2.143 5.01-4.904V5c0-2.761-2.25-5.01-5.01-4.904C1571.07 2.736 1516 59.662 1516 129.5z" fill="#F5F9FC"/><rect x="1675" y="20" width="171" height="54" rx="27" fill="#F5F9FC"/><rect x="1675" y="185" width="171" height="54" rx="27" fill="#F5F9FC"/><path d="M778.439 87.67l-42.527 30.461 24.324 11.868-32.501 12.31 32.501 10.751-45.216 19.257H1097l-18.37-16.572 18.37-16.124-18.37-9.632 18.37-17.242-39.29-10.75L1097 87.67H778.439z" fill="#833C9F"/><path d="M772.1 70.848L748.139 44.23 760.217 30 772.1 70.848zM853.49 109.853L877.551 30l34.561 20.426-58.622 59.427zM826.846 156.433l40.501 64.325-20.252 16.45-20.249-80.775zM1024.83 98.823l-69.353-41.337 20.422-25.267 48.931 66.604zM939.188 240.388l66.362-72.782-35.177 78.565-31.185-5.783zM994.889 128.861l-22.078 36.808-11.842-20.129 33.92-16.679zM908.305 195.491l-34.373-38.399 47.015 16.723-12.642 21.676zM1057.72 156.433l-10.23 40.389h20.53l-10.3-40.389zM772.102 165.673l33.694 44.917-33.694 2.496v-47.413zM793.28 103.584l23.325 6.268-23.325 6.269-6.277 23.29-6.278-23.29-23.325-6.269 23.325-6.268 6.278-23.29 6.277 23.29zM1068.24 228.491l16.61 4.465-16.61 4.465-4.47 16.579-4.47-16.579-16.6-4.465 16.6-4.465 4.47-16.58 4.47 16.58zM945.878 83.205l16.604 4.466-16.604 4.464-4.472 16.58-4.472-16.58-16.6-4.465 16.604-4.465 4.471-16.579 4.469 16.58z" fill="#EF8A2B"/></svg>