<svg width="54" height="78" fill="none" xmlns="http://www.w3.org/2000/svg"><path d="M26.875 0C12.05 0 0 12.063 0 26.887c0 6.21 2.118 11.932 5.675 16.488l3.39-3.39A21.962 21.962 0 0 1 4.76 26.887c0-12.207 9.921-22.128 22.116-22.128 12.206 0 22.127 9.921 22.127 22.128a22.04 22.04 0 0 1-4.306 13.098l3.39 3.39a26.703 26.703 0 0 0 5.675-16.488C53.761 12.063 41.698 0 26.874 0zm-13.67 44.255l-3.366 3.38a26.661 26.661 0 0 0 8.303 4.663l8.733 25.316 8.744-25.316a27.103 27.103 0 0 0 8.315-4.664l-3.378-3.378a22.063 22.063 0 0 1-27.35 0z" fill="#833C9F"/><path d="M26.875 8.006c-10.398 0-18.868 8.47-18.868 18.88a18.7 18.7 0 0 0 3.39 10.767l3.438-3.438a13.848 13.848 0 0 1-2.07-7.329c0-7.78 6.33-14.121 14.11-14.121 7.78 0 14.121 6.34 14.121 14.121 0 2.689-.75 5.2-2.058 7.329l3.426 3.438a18.7 18.7 0 0 0 3.39-10.767c0-10.41-8.47-18.88-18.88-18.88zM18.94 38.533l-3.415 3.403c6.64 5.041 15.94 5.142 22.711 0l-3.402-3.403c-4.792 3.286-11.13 3.285-15.894 0z" fill="#111"/><path d="M35.76 26.886c0 4.887-3.986 8.874-8.884 8.874-4.888 0-8.874-3.987-8.874-8.874 0-4.898 3.986-8.884 8.874-8.884 4.898 0 8.884 3.986 8.884 8.884z" fill="#111"/></svg>