<svg width="21" height="21" fill="none" xmlns="http://www.w3.org/2000/svg"><path d="M15.205 0h-9.41A5.802 5.802 0 0 0 0 5.795v9.41C0 18.4 2.6 21 5.795 21h9.41C18.4 21 21 18.4 21 15.205v-9.41C21 2.6 18.4 0 15.205 0zm3.932 15.205a3.937 3.937 0 0 1-3.932 3.932h-9.41a3.936 3.936 0 0 1-3.932-3.932v-9.41a3.936 3.936 0 0 1 3.932-3.932h9.41a3.937 3.937 0 0 1 3.932 3.932v9.41z" fill="#B62D7E"/><path d="M10.5 5.089A5.417 5.417 0 0 0 5.087 10.5a5.417 5.417 0 0 0 5.411 5.411A5.417 5.417 0 0 0 15.91 10.5a5.417 5.417 0 0 0-5.41-5.411zm0 8.959A3.552 3.552 0 0 1 6.95 10.5 3.552 3.552 0 0 1 10.5 6.952a3.552 3.552 0 0 1 3.548 3.548 3.552 3.552 0 0 1-3.548 3.548zM16.136 3.51a1.372 1.372 0 0 0-1.366 1.366c0 .359.146.711.4.966.254.253.607.4.966.4.36 0 .712-.147.966-.4.255-.255.4-.607.4-.966 0-.36-.145-.713-.4-.967a1.372 1.372 0 0 0-.966-.4z" fill="#B62D7E"/></svg>