<svg width="97" height="143" fill="none" xmlns="http://www.w3.org/2000/svg"><path d="M89.557.003L56.056 59.192l7.254 4.106L96.811 4.109 89.557.003z" fill="url(#paint0_linear)"/><path d="M7.252 0L0 4.104 33.499 63.29l7.252-4.104L7.25 0z" fill="url(#paint1_linear)"/><path d="M48.43 62.816a24.129 24.129 0 1 0 .001 48.258 24.129 24.129 0 0 0 0-48.258z" fill="#48BF61"/><path d="M59.304 98.01h-5.727c-.325.487-.853.771-1.381.771a1.677 1.677 0 0 1-1.382-.771H37.126L35.379 100H61.09l-1.787-1.99zM44.112 83.224c-.203-.65-.325-1.178-.243-1.787-2.56-.975-3.94-3.94-4.184-6.702a.82.82 0 0 0-.894-.732.82.82 0 0 0-.73.894c.405 4.224 2.802 7.515 6.051 8.327z" fill="#fff"/><path d="M50.53 89.764l.405 7.474c.041.65.57 1.137 1.22 1.137.69 0 1.258-.569 1.218-1.3l-.447-7.92-.244-.082c-.61.61-1.503.813-2.153.69zM44.194 79.61c1.3.08 2.356-.935 2.437-2.194.081-1.3-.934-2.356-2.193-2.438-1.3-.08-2.356.935-2.437 2.194-.082 1.3.934 2.397 2.193 2.437z" fill="#fff"/><path d="M44.275 82.33c.406 2.031 2.071 5.809 5.849 6.987.893.284 1.868 0 2.518-.69l2.437 1.056c.772.324 1.666-.204 1.706-1.057l.163-5.036c.04-.69-.488-1.219-1.178-1.26-.285 0-.569.082-.772.244.04.163 0 .366-.04.569-.082.243-.244.406-.407.569l-.081 3.046-1.34-.569a2.496 2.496 0 0 0-1.585-1.543c-1.38-.447-2.071-1.91-2.355-2.722l4.305 1.544c.406.162.894-.082 1.056-.488.163-.406-.081-.893-.487-1.056l-6.296-2.275c-1.828-.853-3.86.691-3.493 2.681z" fill="#fff"/><defs><linearGradient id="paint0_linear" x1="60.261" y1="61.173" x2="93.586" gradientUnits="userSpaceOnUse"><stop stop-color="#89CB97"/><stop offset=".509" stop-color="#69C57D" stop-opacity=".8"/><stop offset="1" stop-color="#48BF61" stop-opacity="0"/></linearGradient><linearGradient id="paint1_linear" x1="3.626" y1="2.052" x2="37.125" y2="61.237" gradientUnits="userSpaceOnUse"><stop stop-color="#48BF61" stop-opacity="0"/><stop offset=".51" stop-color="#69C57D" stop-opacity=".8"/><stop offset="1" stop-color="#89CB97"/></linearGradient></defs></svg>