<svg width="97" height="143" fill="none" xmlns="http://www.w3.org/2000/svg"><path d="M89.557.003L56.056 59.192l7.254 4.106L96.811 4.109 89.557.003z" fill="url(#paint0_linear)"/><path d="M7.252 0L0 4.104 33.499 63.29l7.252-4.104L7.25 0z" fill="url(#paint1_linear)"/><path d="M48.43 62.816a24.129 24.129 0 1 0 .001 48.258 24.129 24.129 0 0 0 0-48.258z" fill="#48BF61"/><path d="M47.398 93.52c-1.202 1.215-3.001 2.052-4.786 2.625l-.946 1.22a1.52 1.52 0 1 0 2.403 1.864l4.703-6.061-.783-.23c-.178.17-.374.362-.591.582zM48.862 82.563a6.782 6.782 0 0 0 1.513-.381 5.917 5.917 0 0 0 1.435-.788 23.678 23.678 0 0 0-.876-1.722 2.98 2.98 0 0 1-1.103-.01c-.236.14-.468.391-.613.656a.966.966 0 0 0-.108.214l-.013.032c-.054.147-.29.759-.687 1.526.157.133.31.289.452.473zM52.636 80.635a6.37 6.37 0 0 0 .511-.651.968.968 0 0 1 .066-.085 1.214 1.214 0 0 1 1.362-.585c1.913.488 2.57.621 2.57.621l.018.216c-.552-.097-1.422-.288-2.648-.602a.973.973 0 1 0-.48 1.887c1.611.41 2.621.624 3.28.707l.026.004c.173.02.323.032.47.032.15-.004.29-.002.522-.079a1.04 1.04 0 0 0 .592-1.462c-.11-.208-.209-.294-.295-.377a3.104 3.104 0 0 0-.485-.346c-.592-.356-1.466-.757-2.226-1.094a59.33 59.33 0 0 0-1.384-.588.969.969 0 0 0-.526-.058H54l-.003.002a8.43 8.43 0 0 0-1.232.386c-.046.058-.094.116-.144.172.065.436.059 1.179.014 1.9zM56.261 90.078a17.47 17.47 0 0 1-.664-2.362c-.056-.279-.09-.492-.11-.63l-.018-.148a1.454 1.454 0 0 0-.003-.028v-.003l-.004-.028c.463-1.97.67-3.218.582-4.716a51.957 51.957 0 0 1-1.792-.421 7.78 7.78 0 0 1-3.82 2.473c-.03.667-.238 1.492-.663 2.688l-.008.03-1.747 2.251-.008.067c.576.163 1.686.54 2.88 1.194l1.713-2.209c.394 2.012 1.688 6.58 5.77 11.191a1.517 1.517 0 0 0 2.147.13 1.52 1.52 0 0 0 .13-2.147c-2.386-2.69-3.683-5.354-4.385-7.332zM36.64 97.324l-.632.523a1.217 1.217 0 0 0 1.554 1.873l3.91-3.242a29.42 29.42 0 0 1-4.82.845h-.013z" fill="#fff"/><path d="M50.121 91.571c-.501.126-.889.223-1.924 1.174l1.682.492-2.754 4.484a1.217 1.217 0 1 0 2.073 1.274l3.589-5.84a1.22 1.22 0 0 0 .099-1.075 1.22 1.22 0 0 0-.794-.73l-.754-.22-.009.003c-.542.272-.895.36-1.208.438zM45.925 81.568a2.433 2.433 0 1 0-2.217-4.333 2.433 2.433 0 0 0 2.217 4.333z" fill="#fff"/><path d="M36.634 97.08s7.462-.568 10.592-3.731c2.508-2.535 2.357-1.615 3.995-2.433-1.988-1.197-3.348-1.425-3.348-1.425l-.087-.433c.087-.634.235-1.35.485-2.152.688-.039 1.207-.655 1.263-1.63a3.342 3.342 0 0 0-.063-.838 9.24 9.24 0 0 1-1.574.139c-.493 0-.807-.04-.865-.049a.969.969 0 0 1-.641-.38.964.964 0 0 1-.184-.722.977.977 0 0 1 1.095-.826l.028.003a5.788 5.788 0 0 0 .567.028c.173 0 .406-.008.677-.034-.729-.85-1.67-.984-2.106-.8-.506.217-1.155.643-1.318 2.103-.052.473-.134 1.14-.22 1.824l.3-.075a1.215 1.215 0 0 1 1.475.885 1.219 1.219 0 0 1-.884 1.476l-1.095.274a1.21 1.21 0 0 1-.13.024l-.045.347c-.129.33-.285.685-.475 1.07a23.674 23.674 0 0 0-4.226 3.41c-2.08 2.098-3.216 3.945-3.216 3.945z" fill="#fff"/><path d="M44.194 86.16c-.522.13-.201 1.917.235 1.917a.98.98 0 0 0 .237-.029l1.095-.274a.973.973 0 0 0-.472-1.889l-1.095.274zM50.412 79.475a2.737 2.737 0 1 0 0-5.475 2.737 2.737 0 0 0 0 5.475zM50.985 83.772a7.5 7.5 0 0 0 3.004-2.097 1.218 1.218 0 0 1-.93-1.166 6.03 6.03 0 0 1-2.597 1.9 7.298 7.298 0 0 1-3.041.447 3.141 3.141 0 0 1-.145-.014h-.003a.73.73 0 1 0-.207 1.445c.027.004.336.047.83.047.728 0 1.861-.092 3.089-.562z" fill="#fff"/><defs><linearGradient id="paint0_linear" x1="60.261" y1="61.173" x2="93.586" gradientUnits="userSpaceOnUse"><stop stop-color="#89CB97"/><stop offset=".509" stop-color="#69C57D" stop-opacity=".8"/><stop offset="1" stop-color="#48BF61" stop-opacity="0"/></linearGradient><linearGradient id="paint1_linear" x1="3.626" y1="2.052" x2="37.125" y2="61.237" gradientUnits="userSpaceOnUse"><stop stop-color="#48BF61" stop-opacity="0"/><stop offset=".51" stop-color="#69C57D" stop-opacity=".8"/><stop offset="1" stop-color="#89CB97"/></linearGradient></defs></svg>