<svg width="97" height="143" fill="none" xmlns="http://www.w3.org/2000/svg"><path d="M89.557.003L56.056 59.192l7.254 4.106L96.811 4.109 89.557.003z" fill="url(#paint0_linear)"/><path d="M7.252 0L0 4.104 33.499 63.29l7.252-4.104L7.25 0z" fill="url(#paint1_linear)"/><path d="M48.43 62.816a24.129 24.129 0 1 0 .001 48.258 24.129 24.129 0 0 0 0-48.258z" fill="#48BF61"/><path d="M41.523 83.236a4.475 4.475 0 1 0 0-8.95 4.475 4.475 0 0 0 0 8.95zM42.313 99.96a.87.87 0 0 1-1.58 0L34.271 85.98a.87.87 0 0 1 .79-1.235h12.925a.87.87 0 0 1 .79 1.235L42.312 99.96zM62.117 100.178a.87.87 0 0 0 .79-1.235c-2.155-4.659-4.31-9.318-6.463-13.977a.87.87 0 0 0-1.58 0l-6.462 13.977a.87.87 0 0 0 .79 1.235h12.924zM55.654 82.95a4.475 4.475 0 1 0 0-8.95 4.475 4.475 0 0 0 0 8.95z" fill="#fff"/><defs><linearGradient id="paint0_linear" x1="60.261" y1="61.173" x2="93.586" gradientUnits="userSpaceOnUse"><stop stop-color="#89CB97"/><stop offset=".509" stop-color="#69C57D" stop-opacity=".8"/><stop offset="1" stop-color="#48BF61" stop-opacity="0"/></linearGradient><linearGradient id="paint1_linear" x1="3.626" y1="2.052" x2="37.125" y2="61.237" gradientUnits="userSpaceOnUse"><stop stop-color="#48BF61" stop-opacity="0"/><stop offset=".51" stop-color="#69C57D" stop-opacity=".8"/><stop offset="1" stop-color="#89CB97"/></linearGradient></defs></svg>