<svg width="97" height="143" fill="none" xmlns="http://www.w3.org/2000/svg"><path d="M89.557.003L56.056 59.192l7.254 4.106L96.811 4.109 89.557.003z" fill="url(#paint0_linear)"/><path d="M7.252 0L0 4.104 33.499 63.29l7.252-4.104L7.25 0z" fill="url(#paint1_linear)"/><path d="M48.43 62.816a24.129 24.129 0 1 0 .001 48.258 24.129 24.129 0 0 0 0-48.258z" fill="#48BF61"/><path d="M50.237 96.892l-.725.282-.725-.282-9.541-3.713-3.51 1.46L49.511 100l13.776-5.361-3.51-1.46-9.541 3.713z" fill="#fff"/><path d="M56.292 89.565l-1.344.523-1.343.524-3.368 1.31-.725.282-.725-.282-3.367-1.31-1.344-.524-1.344-.523-3.486-1.356-3.51 1.46 3.485 1.356 1.344.524 1.344.523 7.603 2.958 7.603-2.958 1.344-.523 1.344-.524 3.485-1.356-3.51-1.46-3.486 1.356z" fill="#fff"/><path d="M56.292 84.596l-1.344.523-1.343.523-3.368 1.31-.119.046-.606.236-.606-.236-.119-.046-3.367-1.31-1.344-.523-1.344-.523-3.486-1.357-3.51 1.46 3.485 1.356 1.344.524 1.344.523 3.486 1.356 1.344.523 1.344.523 1.43.556 1.428-.556 1.344-.523 1.344-.523 3.486-1.356 1.344-.523 1.344-.523 3.485-1.357-3.51-1.46-3.486 1.356z" fill="#fff"/><path d="M40.565 81.609l1.344.523 3.486 1.356 1.344.523 1.344.523 1.43.556 1.428-.556 1.344-.523 1.344-.523 3.486-1.356 1.344-.523 1.344-.523 3.485-1.357L49.512 74l-13.777 5.729 3.486 1.356 1.344.524zm1.538-3.285c.917 0 1.618.357 1.723.847h2.366c.12-.915 1.533-1.615 3.32-1.615s3.2.7 3.32 1.616h2.366v-.001c.106-.49.807-.847 1.723-.847.995 0 1.744.418 1.744.973 0 .409-.41.743-1.023.89-.218.053-.46.083-.72.083-.918 0-1.62-.358-1.724-.848H52.83c-.035.273-.186.528-.429.75-.55.503-1.567.84-2.765.862V82.351c.71.017 1.22.324 1.22.745a.518.518 0 0 1-.09.284c-.18.28-.625.464-1.19.464-.595 0-1.054-.204-1.214-.508a.506.506 0 0 1-.066-.24c0-.395.45-.689 1.09-.738v-1.324c-1.198-.022-2.215-.359-2.765-.862-.243-.222-.394-.476-.43-.75h-2.365c-.105.49-.806.848-1.724.848-.26 0-.503-.03-.722-.083-.613-.147-1.022-.481-1.022-.89 0-.555.75-.973 1.744-.973z" fill="#fff"/><path d="M47.147 79.954c.489.332 1.33.584 2.366.584s1.876-.252 2.365-.584c.298-.203.466-.435.466-.657a.553.553 0 0 0-.084-.267c-.253-.446-1.109-.864-2.292-.952a5.902 5.902 0 0 0-.455-.023c-.158 0-.307.011-.456.023-1.184.088-2.04.506-2.292.953a.555.555 0 0 0-.084.266c0 .222.168.454.466.657zM42.104 79.77c.118 0 .228-.009.333-.022.462-.056.783-.22.879-.365.02-.03.032-.06.032-.086 0-.189-.496-.474-1.244-.474-.749 0-1.246.285-1.246.474 0 .188.497.473 1.246.473zM56.587 79.748c.106.013.215.022.334.022.748 0 1.245-.285 1.245-.473 0-.189-.497-.474-1.245-.474-.749 0-1.245.285-1.245.474 0 .027.013.056.032.086.096.145.417.309.88.365zM48.796 83.096c.001.01.02.028.038.044.08.077.321.204.742.204.358 0 .586-.093.697-.17.048-.032.08-.061.083-.079-.009-.057-.269-.248-.78-.248-.51 0-.77.191-.78.25z" fill="#fff"/><defs><linearGradient id="paint0_linear" x1="60.261" y1="61.173" x2="93.586" gradientUnits="userSpaceOnUse"><stop stop-color="#89CB97"/><stop offset=".509" stop-color="#69C57D" stop-opacity=".8"/><stop offset="1" stop-color="#48BF61" stop-opacity="0"/></linearGradient><linearGradient id="paint1_linear" x1="3.626" y1="2.052" x2="37.125" y2="61.237" gradientUnits="userSpaceOnUse"><stop stop-color="#48BF61" stop-opacity="0"/><stop offset=".51" stop-color="#69C57D" stop-opacity=".8"/><stop offset="1" stop-color="#89CB97"/></linearGradient></defs></svg>