<svg width="97" height="143" fill="none" xmlns="http://www.w3.org/2000/svg"><path d="M89.557.003L56.056 59.192l7.254 4.106L96.811 4.109 89.557.003z" fill="url(#paint0_linear)"/><path d="M7.252 0L0 4.104 33.499 63.29l7.252-4.104L7.25 0z" fill="url(#paint1_linear)"/><path d="M48.43 62.816a24.129 24.129 0 1 0 .001 48.258 24.129 24.129 0 0 0 0-48.258z" fill="#48BF61"/><path d="M52.058 78.502a2.25 2.25 0 1 0 0-4.502 2.25 2.25 0 0 0 0 4.502zM51.02 82.744a2.532 2.532 0 0 1-1.963 2.453c1.126.115 2.28.577 2.857 1.558h.202c.577-.924 1.674-1.414 2.857-1.53a2.483 2.483 0 0 1-1.933-2.453c0-1.24.923-2.28 2.106-2.481-.606-.924-1.876-1.328-3.116-1.328-1.212 0-2.482.404-3.117 1.328a2.486 2.486 0 0 1 2.107 2.453zM44.99 78.502A2.25 2.25 0 1 0 44.988 74a2.25 2.25 0 0 0 0 4.502zM44.007 82.744a2.532 2.532 0 0 1-1.962 2.453c1.125.115 2.28.577 2.828 1.529h.173c.577-.924 1.674-1.443 2.886-1.558a2.483 2.483 0 0 1-1.934-2.453c0-1.241.895-2.251 2.078-2.482-.635-.923-1.876-1.327-3.117-1.327-1.212 0-2.481.404-3.116 1.327 1.24.202 2.164 1.241 2.164 2.51z" fill="#fff"/><path d="M53.327 82.743c0 1.241.981 2.223 2.222 2.251 1.241 0 2.251-1.01 2.251-2.25 0-1.241-1.01-2.251-2.25-2.251-.087 0-.174 0-.26.029a2.245 2.245 0 0 0-1.963 2.221zM55.55 85.427c-1.212 0-2.482.404-3.116 1.299.288.029.577.115.836.26a2.509 2.509 0 0 1 1.414 2.25 2.532 2.532 0 0 1-1.962 2.453c1.241.116 2.482.664 2.972 1.79h3.348v-5.253-.057c0-1.934-1.76-2.742-3.492-2.742zM41.439 84.966h.057c1.241 0 2.251-1.01 2.251-2.251 0-1.155-.894-2.136-2.02-2.222h-.202c-1.24 0-2.25 1.01-2.25 2.25 0 1.213.952 2.194 2.164 2.223zM44.296 91.66a2.483 2.483 0 0 1-1.934-2.453c0-.98.578-1.817 1.386-2.25.26-.145.548-.231.836-.26-.635-.923-1.875-1.299-3.116-1.299h-.03c-1.702 0-3.49.808-3.49 2.742V93.45h3.347c.49-1.068 1.702-1.645 3-1.79z" fill="#fff"/><path d="M52.058 86.986h-.145c-.057 0-.086 0-.144.028a2.23 2.23 0 1 0 0 4.386c.058 0 .087.03.144.03h.433c1.183-.058 2.136-1.04 2.136-2.222a2.225 2.225 0 0 0-2.136-2.222H52.058zM55.463 93.623c-.029-.058-.029-.087-.058-.145-.548-1.067-1.818-1.529-3.116-1.558h-.577c-1.183.087-2.338.577-2.828 1.558-.03.058-.058.087-.058.145-.029.057-.029.086-.058.144-.086.26-.144.577-.144.895V99.97H55.665V94.72v-.057c0-.347-.058-.635-.144-.895-.03-.058-.03-.115-.058-.144zM44.93 86.986h-.057H44.729a2.22 2.22 0 0 0-2.107 2.222c0 1.183.923 2.135 2.078 2.222H45.16c.058 0 .087 0 .145-.03a2.23 2.23 0 0 0 1.818-2.192c0-1.126-.808-2.02-1.876-2.194-.058 0-.087-.028-.144-.028H44.93zM48.135 93.623c-.03-.058-.03-.087-.058-.145-.49-.98-1.616-1.442-2.828-1.529h-.606c-1.27.029-2.568.49-3.117 1.558-.029.058-.057.087-.057.144-.03.058-.03.087-.058.145-.087.26-.144.577-.144.894V100h7.041V94.662c0-.347-.058-.635-.145-.895.03-.058 0-.115-.028-.144z" fill="#fff"/><defs><linearGradient id="paint0_linear" x1="60.261" y1="61.173" x2="93.586" gradientUnits="userSpaceOnUse"><stop stop-color="#89CB97"/><stop offset=".509" stop-color="#69C57D" stop-opacity=".8"/><stop offset="1" stop-color="#48BF61" stop-opacity="0"/></linearGradient><linearGradient id="paint1_linear" x1="3.626" y1="2.052" x2="37.125" y2="61.237" gradientUnits="userSpaceOnUse"><stop stop-color="#48BF61" stop-opacity="0"/><stop offset=".51" stop-color="#69C57D" stop-opacity=".8"/><stop offset="1" stop-color="#89CB97"/></linearGradient></defs></svg>