<svg width="381" height="163" fill="none" xmlns="http://www.w3.org/2000/svg"><path d="M114.667 119.804H91.879v40.96H68.478v-40.96H1.473L0 112.57a77.747 77.747 0 0 1 5.82-17.781 215.53 215.53 0 0 1 10.842-20.973c4.245-7.273 8.925-14.589 14.04-21.949 5.116-7.36 10.22-14.289 15.313-20.785 5.105-6.503 10.005-12.328 14.702-17.476A120.092 120.092 0 0 1 73.029 1.584h18.864v99.703h22.788l-.014 18.517zm-46.186-18.517V36.108c.003-1.495.086-2.989.248-4.475-.379.36-.672.8-.86 1.287-.187.486-.48.926-.856 1.287-1.228 1.225-2.902 3.106-5.024 5.641-2.122 2.536-4.47 5.52-7.045 8.952a409.031 409.031 0 0 0-8.207 11.407 224.44 224.44 0 0 0-8.452 13.12c-2.74 4.581-5.334 9.24-7.78 13.98a150.19 150.19 0 0 0-6.371 13.98H68.48zM244.055 80.93a145.771 145.771 0 0 1-3.722 34.523 79.864 79.864 0 0 1-10.842 25.813 49.319 49.319 0 0 1-17.344 16.127 51.483 51.483 0 0 1-45.878.367 44.794 44.794 0 0 1-16.414-15.205 74.707 74.707 0 0 1-9.986-24.588 149.027 149.027 0 0 1-3.369-33.348 173.77 173.77 0 0 1 3.369-36.103 79.773 79.773 0 0 1 10.292-26.55 46.715 46.715 0 0 1 17.344-16.371A50.852 50.852 0 0 1 191.884.014c34.781-.015 52.171 26.957 52.171 80.915zm-24.01 1.716c0-21.337-2.45-37.3-7.35-47.888-4.901-10.588-12.088-15.881-21.563-15.88-10.128 0-17.764 5.376-22.908 16.126-5.145 10.75-7.722 27.04-7.731 48.871 0 20.111 2.532 35.154 7.596 45.129 5.064 9.975 12.497 14.961 22.3 14.96 9.715 0 17.085-5.07 22.11-15.208 5.025-10.138 7.541-25.508 7.546-46.11zM380.552 119.804h-22.785v40.96h-23.402v-40.96h-67.01l-1.47-7.234a77.682 77.682 0 0 1 5.834-17.781 215.56 215.56 0 0 1 10.844-20.973c4.245-7.273 8.92-14.589 14.024-21.949 5.105-7.36 10.209-14.289 15.313-20.785 5.104-6.503 10.005-12.328 14.702-17.476a120.274 120.274 0 0 1 12.312-12.022h18.867v99.703h22.784l-.013 18.517zm-46.184-18.517V36.108c.003-1.495.085-2.989.245-4.475-.379.359-.672.799-.859 1.287a3.515 3.515 0 0 1-.856 1.287c-1.226 1.225-2.9 3.106-5.022 5.641-2.121 2.536-4.47 5.52-7.045 8.952a410.69 410.69 0 0 0-8.207 11.407 225.982 225.982 0 0 0-8.455 13.12c-2.736 4.581-5.33 9.24-7.78 13.98a149.494 149.494 0 0 0-6.368 13.98h44.347z" fill="#F5F9FC"/></svg>