<svg width="66" height="66" fill="none" xmlns="http://www.w3.org/2000/svg"><path d="M6.703 39.703a6.703 6.703 0 1 0 0-13.406 6.703 6.703 0 0 0 0 13.406zm0-11.344a4.64 4.64 0 1 1 0 9.28 4.64 4.64 0 0 1 0-9.28zM39.703 6.703a6.703 6.703 0 1 0-13.405 0 6.703 6.703 0 0 0 13.405 0zm-11.344 0a4.64 4.64 0 1 1 9.28 0 4.64 4.64 0 0 1-9.28 0zM59.297 26.297a6.703 6.703 0 1 0 0 13.405 6.703 6.703 0 0 0 0-13.405zm0 11.344a4.64 4.64 0 1 1 0-9.28 4.64 4.64 0 0 1 0 9.28zM39.703 59.297a6.703 6.703 0 1 0-13.405 0 6.703 6.703 0 0 0 13.405 0zm-11.344 0a4.64 4.64 0 1 1 9.28 0 4.64 4.64 0 0 1-9.28 0zM33 42.797a9.797 9.797 0 1 0 0-19.594 9.797 9.797 0 0 0 0 19.594zm0-16.5a6.703 6.703 0 1 1 0 13.406 6.703 6.703 0 0 1 0-13.406z" fill="#2EC4B6"/><path d="M15.984 33a17.016 17.016 0 1 0 34.032 0 17.016 17.016 0 0 0-34.032 0zM33 21.14a11.86 11.86 0 1 1 0 23.72 11.86 11.86 0 0 1 0-23.72z" fill="#2EC4B6"/><path d="M33 37.64a4.64 4.64 0 1 0 0-9.28 4.64 4.64 0 0 0 0 9.28z" fill="#2EC4B6"/></svg>