<svg width="37" height="65" fill="none" xmlns="http://www.w3.org/2000/svg"><path d="M34.907 27.288a1.204 1.204 0 0 0-1.203 1.203 15.648 15.648 0 0 1-31.297 0 1.204 1.204 0 0 0-2.407 0 18.056 18.056 0 0 0 16.852 17.996v16.105h-9.63a1.203 1.203 0 1 0 0 2.408H28.89a1.204 1.204 0 1 0 0-2.407h-9.63V46.486A18.055 18.055 0 0 0 36.111 28.49a1.204 1.204 0 0 0-1.203-1.203z" fill="#9C89B8"/><path d="M17.935 40.926h.229A12.338 12.338 0 0 0 30.49 28.6V12.326A12.338 12.338 0 0 0 18.176 0h-.241A12.338 12.338 0 0 0 5.621 12.326V28.6a12.338 12.338 0 0 0 12.314 12.326zm-4.694-14.445H8.027v-4.814h5.213a1.203 1.203 0 1 0 0-2.408H8.027v-4.815h5.213a1.204 1.204 0 0 0 0-2.407h-5.2a9.918 9.918 0 0 1 9.894-9.63h.229a9.919 9.919 0 0 1 9.906 9.63h-5.2a1.204 1.204 0 1 0 0 2.407h5.212v4.815H22.87a1.204 1.204 0 1 0 0 2.408h5.212v4.814H22.87a1.204 1.204 0 1 0 0 2.408h5.2a9.918 9.918 0 0 1-9.906 9.63h-.229a9.919 9.919 0 0 1-9.906-9.63h5.212a1.204 1.204 0 1 0 0-2.407z" fill="#9C89B8"/></svg>