<svg width="49" height="74" fill="none" xmlns="http://www.w3.org/2000/svg"><g filter="url(#filter0_d)" fill="#1985A1"><path d="M10.078 59.028c-.618 0-1.03.412-1.03 1.03v1.133c0 .618.412 1.03 1.03 1.03.618 0 1.03-.412 1.03-1.03v-1.133c0-.618-.515-1.03-1.03-1.03z"/><path d="M43.97 24.518c.618 0 1.03-.413 1.03-1.03V1.03C45 .412 44.588 0 43.97 0H12.24c-.618 0-1.03.412-1.03 1.03v22.457c0 .619.412 1.03 1.03 1.03H24.81v5.048c-.515-.206-1.133-.309-1.957-.309-1.34 0-2.473.31-2.576.31a1.118 1.118 0 0 0-.824.823c-1.751 8.448-4.12 11.332-5.357 12.26-.515-.928-1.545-1.546-2.678-1.546H7.09c-1.648 0-3.09 1.34-3.09 3.09V62.84c0 1.648 1.34 3.09 3.09 3.09h4.327c1.236 0 2.266-.72 2.781-1.75 6.697 1.648 9.684.617 21.737.927 2.163.206 4.12-1.34 4.326-3.503.103-1.133-.206-2.266-.927-3.09a3.768 3.768 0 0 0 1.648-2.782c.103-1.133-.206-2.266-.927-3.09a3.768 3.768 0 0 0 1.648-2.782c.103-1.133-.206-2.163-.927-3.09a3.768 3.768 0 0 0 1.649-2.782c.309-2.163-1.237-4.12-3.4-4.43h-7.52v-15.04H43.97zM13.27 2.06h29.772v20.397H13.27V2.06zm-1.75 61.81H7.192c-.515 0-1.03-.413-1.03-1.03V44.09c0-.515.412-1.03 1.03-1.03h4.327c.515 0 1.03.412 1.03 1.03v18.75c-.103.617-.515 1.03-1.03 1.03zm28.843-19.883c-.103 1.03-1.03 1.752-2.06 1.649h-.103-8.756c-.618 0-1.03.412-1.03 1.03 0 .618.412 1.03 1.03 1.03h8.55c1.03.103 1.751 1.03 1.648 2.163-.103 1.03-1.03 1.752-2.163 1.648h-.103-6.181c-.618 0-1.03.413-1.03 1.03 0 .619.412 1.03 1.03 1.03h6.078c1.03.104 1.751 1.031 1.648 2.061-.103 1.03-1.03 1.751-2.06 1.648h-3.709c-.618 0-1.03.412-1.03 1.03 0 .619.412 1.03 1.03 1.03h3.606a1.9 1.9 0 0 1 1.545 2.061c-.103 1.03-1.03 1.751-2.06 1.648h-.103c-11.847-.412-14.834.824-21.53-.927V44.812c1.545-.825 4.635-3.606 6.799-13.392.412-.103.927-.103 1.442-.103.927 0 1.442.206 1.648.309.206.206.309.412.309.824v.103c.206 1.648-.618 5.047-1.751 7.829-.103.309-.103.721.103.927.206.206.515.412.824.412h14.834c.927.206 1.648 1.133 1.545 2.266zm-11.022-4.223h-3.915c.721-1.958 1.545-4.945 1.34-7.211V24.62h2.575v15.143z"/><path d="M33.257 17.718c.618 0 1.03-.412 1.03-1.03 0-.618-.412-1.03-1.03-1.03H22.955c-.618 0-1.03.412-1.03 1.03 0 .618.412 1.03 1.03 1.03h10.302zM38.407 12.259c0-.618-.412-1.03-1.03-1.03H18.834c-.618 0-1.03.412-1.03 1.03 0 .618.412 1.03 1.03 1.03h18.543c.618 0 1.03-.412 1.03-1.03zM22.955 8.86h10.404c.619 0 1.03-.412 1.03-1.03 0-.619-.411-1.03-1.03-1.03H22.955c-.618 0-1.03.411-1.03 1.03 0 .618.412 1.03 1.03 1.03z"/></g><defs><filter id="filter0_d" x="0" y="0" width="49" height="73.93" filterUnits="userSpaceOnUse" color-interpolation-filters="sRGB"><feFlood flood-opacity="0" result="BackgroundImageFix"/><feColorMatrix in="SourceAlpha" values="0 0 0 0 0 0 0 0 0 0 0 0 0 0 0 0 0 0 127 0"/><feOffset dy="4"/><feGaussianBlur stdDeviation="2"/><feColorMatrix values="0 0 0 0 0 0 0 0 0 0 0 0 0 0 0 0 0 0 0.25 0"/><feBlend in2="BackgroundImageFix" result="effect1_dropShadow"/><feBlend in="SourceGraphic" in2="effect1_dropShadow" result="shape"/></filter></defs></svg>