<svg width="85" height="69" fill="none" xmlns="http://www.w3.org/2000/svg"><path d="M36.907 26.732a3.84 3.84 0 0 1-.689.75c-2.553 2.122-7.359.703-10.942-3.23-2.242-2.446-3.489-5.348-3.334-7.761.084-1.303.583-2.375 1.445-3.102 0-.002.001-.002.002-.003 2.541-2.12 7.352-.71 10.953 3.212 2.254 2.453 3.504 5.358 3.344 7.769-.06.915-.327 1.717-.78 2.365zM23.75 14.833c-.324.464-.515 1.053-.559 1.739-.131 2.048 1.022 4.668 3.01 6.835 3.028 3.325 7.248 4.75 9.216 3.113.603-.504.956-1.277 1.02-2.235.136-2.046-1.02-4.667-3.017-6.84-3.042-3.314-7.267-4.732-9.227-3.099a2.527 2.527 0 0 0-.443.487z" fill="#ED6A5A"/><path d="M32.386 30.712a.621.621 0 0 1-.11.12c-2.525 2.137-7.33.733-10.938-3.197-3.491-3.811-4.394-8.524-2.047-10.73a.625.625 0 1 1 .858.912c-1.817 1.705-.86 5.727 2.111 8.972 3.047 3.318 7.264 4.732 9.208 3.087a.626.626 0 0 1 .918.836z" fill="#ED6A5A"/><path d="M24.061 14.463a.632.632 0 0 1-.108.119l-3.828 3.257a.626.626 0 0 1-.811-.954l3.828-3.257a.626.626 0 0 1 .92.835zM36.33 27.36a.608.608 0 0 1-.108.118l-3.815 3.24a.625.625 0 1 1-.81-.953l3.815-3.24a.625.625 0 0 1 .919.834zM32.155 22.457a1.527 1.527 0 0 1-.265.291c-.887.744-2.5.327-3.676-.946-.718-.777-1.112-1.713-1.054-2.504.034-.485.235-.89.578-1.17.904-.76 2.478-.363 3.666.923.706.765 1.099 1.7 1.05 2.498a1.751 1.751 0 0 1-.299.909zm-3.675-3.306a.462.462 0 0 0-.071.238c-.025.333.15.942.725 1.563.773.839 1.685 1.06 1.949.84.072-.061.113-.169.122-.319.021-.342-.155-.96-.721-1.572-.778-.843-1.669-1.044-1.942-.813l-.012.01c-.01.008-.03.024-.05.053zM19.995 39.77c-.175.251-.382.478-.62.68-2.303 1.92-6.627.659-9.847-2.867-2.015-2.204-3.133-4.81-2.993-6.973.076-1.176.53-2.145 1.31-2.804 1.86-1.564 5.12-1.057 8.116 1.26.274.21.307.604.113.878a.626.626 0 0 1-.878.112c-2.479-1.917-5.17-2.448-6.544-1.293-.522.44-.814 1.089-.868 1.929-.117 1.801.906 4.118 2.668 6.047 2.676 2.929 6.393 4.19 8.117 2.753 1.36-1.149 1.142-3.752-.525-6.331a.627.627 0 0 1 1.051-.68c1.792 2.771 2.104 5.566.9 7.29z" fill="#ED6A5A"/><path d="M15.969 43.323a.623.623 0 0 1-.113.122c-2.299 1.916-6.623.656-9.844-2.87-3.129-3.402-3.932-7.639-1.84-9.638a.626.626 0 1 1 .864.905c-1.572 1.5-.72 5.039 1.9 7.887 2.677 2.931 6.394 4.191 8.118 2.755a.626.626 0 0 1 .915.839z" fill="#ED6A5A"/><path d="M8.542 28.847a.635.635 0 0 1-.108.12l-3.426 2.9a.626.626 0 0 1-.81-.955l3.426-2.901a.626.626 0 0 1 .918.836zM19.483 40.33a.624.624 0 0 1-.109.12l-3.414 2.885a.627.627 0 0 1-.808-.957l3.414-2.884a.627.627 0 0 1 .917.837zM15.615 36.103a.62.62 0 0 1-.11.12c-.837.708-2.287.347-3.373-.84-.639-.681-.998-1.526-.957-2.253.027-.464.21-.853.53-1.123a.626.626 0 0 1 .81.956c-.067.054-.086.16-.09.239-.016.288.138.81.626 1.33.662.724 1.427.92 1.646.735a.625.625 0 0 1 .918.836z" fill="#ED6A5A"/><path d="M20.92 25.81a.627.627 0 0 1-.108.119l-8.297 7.032a.626.626 0 0 1-.81-.955l8.297-7.032a.626.626 0 0 1 .919.835zM23.912 29.07a.608.608 0 0 1-.109.119l-8.296 7.033a.626.626 0 0 1-.81-.955l8.297-7.033a.626.626 0 0 1 .918.835zM56.568 17.865a6.188 6.188 0 0 1-.427-1.29c-.177-.876-.065-1.623.333-2.22.877-1.323 2.99-1.638 5.95-.886 2.748.698 5.992 2.232 9.137 4.32 5.84 3.865 10.993 9.575 9.04 12.544-1.97 2.956-9.243.438-15.087-3.43-4.389-2.905-7.722-6.305-8.946-9.038zm22.809 9.491c-1.015-2.267-3.987-5.53-8.509-8.523-3.03-2.012-6.138-3.485-8.752-4.15-2.335-.593-4.054-.456-4.599.366-.207.31-.257.74-.148 1.279.505 2.5 4.138 6.42 8.837 9.53 6.49 4.296 12.246 5.442 13.351 3.783.332-.504.26-1.3-.18-2.285z" fill="#ED6A5A"/><path d="M52.94 19.441c-.928-2.071-.983-3.849-.129-5.139.586-.884 1.543-1.466 2.844-1.73 3.76-.758 10.003 1.289 15.904 5.217 8.202 5.423 12.823 12.412 10.524 15.907-2.307 3.485-10.551 1.957-18.768-3.476-3.836-2.536-7.046-5.535-9.042-8.444-.556-.81-1-1.591-1.334-2.335zm27.852 9.623c-1.326-2.962-4.713-6.785-9.924-10.23l-.002-.002c-5.552-3.695-11.565-5.717-14.963-5.031-.963.194-1.652.596-2.048 1.193-.847 1.28-.32 3.495 1.452 6.073 1.905 2.78 4.995 5.658 8.698 8.108 8.142 5.382 15.38 6.326 17.032 3.83.592-.898.496-2.285-.246-3.941z" fill="#ED6A5A"/><path d="M64.47 22.564a.625.625 0 0 1 .06-.616l.775-1.1-.697-1.865a.626.626 0 0 1 .844-.79l2.607 1.174 2.082-.145a.624.624 0 0 1 .637.423l.68 1.992 2.103 1.941a.625.625 0 1 1-.403 1.086l-1.981.067-.69 1.147a.626.626 0 0 1-.97.13l-2.082-1.995-2.639-1.129a.625.625 0 0 1-.325-.32zm1.838-2.612l.286.767a.627.627 0 0 1-.074.58l-.52.738 2.033.869c.07.03.132.071.187.123l1.597 1.532.462-.767a.625.625 0 0 1 .516-.303l.795-.027-1.099-1.014a.622.622 0 0 1-.168-.258l-.575-1.687-1.76.123a.628.628 0 0 1-.3-.054l-1.38-.622zM52.843 7.984a.625.625 0 0 1 .917-.78l4.453 2.948a.625.625 0 1 1-.69 1.045l-4.454-2.948a.622.622 0 0 1-.226-.265zM46.41 17.68a.626.626 0 0 1 .917-.779l4.453 2.948a.626.626 0 1 1-.69 1.044l-4.454-2.947a.622.622 0 0 1-.226-.266zM49.592 9.919a.625.625 0 0 1 .916-.78l2.108 1.39a.626.626 0 0 1-.689 1.046l-2.108-1.39a.62.62 0 0 1-.227-.266zM46.227 13.028a.627.627 0 0 1 .918-.779l2.08 1.379a.628.628 0 0 1-.692 1.044l-2.08-1.379a.627.627 0 0 1-.226-.265zM48.101 68.785c-10.082 0-18.286-8.213-18.286-18.307 0-10.083 8.204-18.286 18.286-18.286 10.095 0 18.308 8.203 18.308 18.286 0 10.094-8.213 18.307-18.308 18.307zm0-35.34c-9.392 0-17.033 7.64-17.033 17.033 0 9.404 7.641 17.054 17.033 17.054 9.405 0 17.055-7.65 17.055-17.054 0-9.392-7.65-17.033-17.055-17.033z" fill="#ED6A5A"/><path d="M60.046 64.068c-1.289 0-3.108-.473-5.558-1.443a.627.627 0 0 1-.356-.801c.66-1.773 1.254-4.206 1.765-7.234a.627.627 0 0 1 .377-.474c1.75-.73 3.857-1.626 6.276-2.669a.628.628 0 0 1 .79.261c.648 1.118 1.185 2.969 1.641 5.657a.627.627 0 0 1-1.235.21c-.36-2.127-.776-3.718-1.24-4.746-2.056.886-3.876 1.66-5.432 2.31-.458 2.639-.982 4.833-1.561 6.54 2.036.772 3.563 1.156 4.602 1.136.35.025.63.27.637.615a.627.627 0 0 1-.616.637h-.09zM45.345 68.576a.625.625 0 0 1-.492-1.014 19.245 19.245 0 0 0 1.98-3.042c-2.66-2.069-4.456-3.569-5.466-4.565-1.659.376-3.27.615-4.806.714.38 1.411 1.096 2.778 2.134 4.07a.626.626 0 0 1-.977.785c-1.34-1.67-2.198-3.462-2.549-5.328a.625.625 0 0 1 .594-.742c1.78-.061 3.684-.33 5.66-.797a.627.627 0 0 1 .596.175c.948.989 2.906 2.628 5.985 5.011.233.18.308.498.182.764-.59 1.242-1.38 2.497-2.349 3.73a.624.624 0 0 1-.492.239zM43.008 53.004a.626.626 0 0 1-.493-.24c-1.491-1.9-2.926-4.018-4.387-6.475a.627.627 0 0 1 .025-.68c1.698-2.418 3.46-4.578 5.24-6.42a.63.63 0 0 1 .594-.175c2.237.527 4.746 1.313 7.673 2.402a.626.626 0 0 1 .407.597 139.64 139.64 0 0 1-.377 8.052.626.626 0 0 1-.45.555l-2.006.583c-2.081.603-4.1 1.189-6.046 1.774a.625.625 0 0 1-.18.027zm-3.595-7.007c1.275 2.12 2.531 3.978 3.826 5.657A681.528 681.528 0 0 1 48.885 50l1.588-.461c.176-2.458.288-4.842.334-7.103-2.52-.924-4.79-1.636-6.76-2.12-1.57 1.653-3.126 3.562-4.634 5.681zM62.817 45.552a.625.625 0 0 1-.438-.179c-2.8-2.738-4.688-4.442-5.61-5.063a.627.627 0 0 1-.26-.38c-.497-2.182-.961-3.977-1.344-5.19a.626.626 0 1 1 1.194-.378c.385 1.22.828 2.919 1.317 5.054.995.72 2.706 2.265 5.21 4.702.308-.24.656-.566 1.039-.977a.626.626 0 1 1 .916.854c-.646.692-1.203 1.173-1.705 1.47a.624.624 0 0 1-.319.087zM37.476 36.993a.627.627 0 0 1-.122-1.24c2.124-.425 3.926-.686 5.503-.795a55.181 55.181 0 0 1 6.153-2.706.626.626 0 1 1 .437 1.174 53.711 53.711 0 0 0-6.128 2.703.636.636 0 0 1-.249.07c-1.53.099-3.37.362-5.47.782a.633.633 0 0 1-.124.012zM32.3 55.112a.612.612 0 0 1-.22-.04c-.759-.284-1.388-.698-1.872-1.229a.626.626 0 1 1 .926-.843c.163.178.35.34.562.482.106-2.246.57-4.329 1.382-6.207-.447-1.718-.653-3.774-.611-6.118a.626.626 0 0 1 .626-.615h.011a.626.626 0 0 1 .615.637c-.041 2.323.169 4.335.624 5.98.04.14.028.29-.032.424-.92 2.043-1.385 4.366-1.385 6.903a.626.626 0 0 1-.627.626z" fill="#ED6A5A"/><path d="M33.739 47.952a.627.627 0 0 1-.196-1.221c1.983-.654 3.62-1.105 5.001-1.377a.627.627 0 0 1 .242 1.23c-1.312.258-2.944.708-4.851 1.336a.62.62 0 0 1-.196.032zM35.785 60.706a.626.626 0 0 1-.484-.227c-1.621-1.963-2.827-3.9-3.583-5.757a.627.627 0 0 1 1.16-.472c.708 1.739 1.849 3.566 3.39 5.43a.626.626 0 0 1-.483 1.026zM47.621 64.965a.626.626 0 0 1-.155-1.232c3.26-.837 5.545-1.575 6.985-2.256a.626.626 0 1 1 .535 1.132c-1.512.715-3.87 1.48-7.209 2.336a.613.613 0 0 1-.156.02zM41.569 59.892a.626.626 0 0 1-.624-.69 34.024 34.024 0 0 1 1.467-7.018.627.627 0 0 1 1.192.386 32.777 32.777 0 0 0-1.413 6.76.626.626 0 0 1-.623.562zM56.514 55.32a.622.622 0 0 1-.45-.19c-1.086-1.124-2.846-2.634-5.384-4.618a.626.626 0 0 1 .771-.986c2.585 2.02 4.388 3.567 5.513 4.733a.625.625 0 0 1-.45 1.062zM62.797 52.649a.626.626 0 0 1-.618-.732c.4-2.337.406-4.653.02-6.885a.626.626 0 1 1 1.235-.213c.41 2.372.403 4.831-.021 7.31a.626.626 0 0 1-.616.52zM51.443 42.63a.627.627 0 0 1-.276-1.19c1.66-.809 3.545-1.544 5.764-2.247a.626.626 0 0 1 .378 1.194c-2.16.684-3.989 1.397-5.593 2.178a.624.624 0 0 1-.273.064zM43.842 40.25a.627.627 0 0 1-.612-.498 277.762 277.762 0 0 1-.816-4.06.627.627 0 0 1 1.23-.238c.27 1.395.54 2.75.812 4.04a.627.627 0 0 1-.614.755zM60.918 43.715a.626.626 0 0 1-.438-1.075c.853-.832 1.396-1.614 1.615-2.325a.626.626 0 1 1 1.197.37c-.285.924-.919 1.857-1.936 2.851a.625.625 0 0 1-.438.179zM59.018 41.962a.627.627 0 0 1-.52-.974c.707-1.06 1.351-2.059 1.933-2.974a.627.627 0 0 1 1.057.672c-.586.922-1.236 1.928-1.948 2.997-.12.18-.32.279-.522.279z" fill="#ED6A5A"/><path d="M56.91 39.54a.626.626 0 0 1-.45-1.063 6.888 6.888 0 0 0 1.533-2.454.626.626 0 1 1 1.174.437 8.236 8.236 0 0 1-1.808 2.89.626.626 0 0 1-.45.19zM47.037 51.814a.626.626 0 0 1-.55-.925c.79-1.453 2.125-3.346 3.968-5.626a.625.625 0 1 1 .973.786c-1.794 2.223-3.086 4.052-3.84 5.438a.627.627 0 0 1-.551.327zM44.114 52.67a.626.626 0 0 1-.579-.864c1.863-4.533 4.042-8.097 6.476-10.595a.625.625 0 1 1 .897.874c-2.322 2.383-4.413 5.813-6.215 10.197a.626.626 0 0 1-.58.388zM41.9 51.522a.627.627 0 0 1-.586-.847c1.527-4.07 3.509-7.567 5.89-10.391a.626.626 0 1 1 .958.808c-2.289 2.714-4.198 6.086-5.675 10.023a.627.627 0 0 1-.586.407zM40.044 48.808a.626.626 0 0 1-.556-.914c1.65-3.195 3.445-5.985 5.332-8.292a.627.627 0 0 1 .97.794c-1.832 2.239-3.578 4.955-5.19 8.073a.626.626 0 0 1-.556.34zM57.371 63.587a.627.627 0 0 1-.57-.364c-.37-.804-.912-2.143-1.706-4.213a.626.626 0 1 1 1.17-.448c.772 2.015 1.32 3.369 1.675 4.136a.627.627 0 0 1-.569.889zM59.458 64.046a.626.626 0 0 1-.597-.437c-.554-1.747-1.605-4.286-3.122-7.544a.626.626 0 1 1 1.134-.529c1.541 3.308 2.611 5.896 3.182 7.695a.626.626 0 0 1-.597.815zM61.482 62.669a.628.628 0 0 1-.604-.458c-.513-1.838-1.482-4.492-2.961-8.115a.626.626 0 1 1 1.159-.473c1.497 3.667 2.482 6.366 3.009 8.25a.627.627 0 0 1-.603.796zM63.298 60.164a.626.626 0 0 1-.606-.473c-.537-2.128-1.313-4.357-2.305-6.624a.626.626 0 1 1 1.148-.502c1.02 2.33 1.818 4.625 2.37 6.82a.626.626 0 0 1-.607.78zM43.3 68.117a.626.626 0 0 1-.522-.971c.778-1.178 1.72-2.471 3.053-4.193a.627.627 0 0 1 .99.767c-1.295 1.673-2.248 2.981-2.998 4.116a.625.625 0 0 1-.524.281zM40.836 67.219a.626.626 0 0 1-.54-.942 23.252 23.252 0 0 1 3.775-4.848.626.626 0 1 1 .879.892 22.008 22.008 0 0 0-3.573 4.587.626.626 0 0 1-.541.31zM38.686 66.071a.626.626 0 0 1-.518-.977c1.132-1.675 2.579-3.367 4.3-5.026a.625.625 0 1 1 .87.901c-1.66 1.6-3.05 3.223-4.132 4.826a.626.626 0 0 1-.52.276zM37.017 64.005a.626.626 0 0 1-.514-.984c.701-1.008 1.885-2.337 3.519-3.95a.627.627 0 0 1 .88.892c-1.58 1.559-2.713 2.828-3.37 3.773a.626.626 0 0 1-.515.269zM32.55 51.897a.658.658 0 0 1-.09-.006c-.858-.126-1.57-.23-2.114-.314a.626.626 0 1 1 .191-1.238c.541.083 1.25.187 2.104.313a.626.626 0 0 1-.09 1.245zM33.261 49.163l-.04-.001a18.639 18.639 0 0 1-2.765-.368.626.626 0 1 1 .265-1.224c.78.168 1.647.283 2.578.342a.626.626 0 0 1-.038 1.251zM33.448 46.658a.635.635 0 0 1-.106-.01c-.808-.137-1.541-.293-2.202-.434l-.14-.03a.627.627 0 0 1 .26-1.225l.14.03c.646.138 1.364.29 2.153.425a.626.626 0 0 1-.105 1.244zM43.864 35.762a.625.625 0 0 1-.42-.163c-.788-.716-1.23-1.217-1.434-1.624a.626.626 0 1 1 1.12-.56c.071.142.316.493 1.156 1.257a.627.627 0 0 1-.422 1.09z" fill="#ED6A5A"/></svg>