<svg width="80" height="46" fill="none" xmlns="http://www.w3.org/2000/svg"><path d="M79.6 20.986a4.9 4.9 0 0 0-6.52-2.54l-13.821 6.28-2.84-1.02-.58-3.1 8.78-12.42a4.94 4.94 0 1 0-8-5.72 10 10 0 0 0-1.98 3.98 10.484 10.484 0 0 0-.22 3.36c.244 1.442.565 2.87.96 4.28a7.8 7.8 0 0 1-1.58 5.2l-4.66 7.44-18.001 9.6a.6.6 0 0 0-.22.7.6.6 0 0 0 .7.36l14-5.02-8 12.68a.58.58 0 0 0 .94.66l13.06-15.52 8.6-3.1a7.7 7.7 0 0 1 5.4-.64c1.302.664 2.637 1.258 4.001 1.78 1.077.32 2.198.461 3.32.42a9.861 9.861 0 0 0 4.16-1.16 5 5 0 0 0 2.5-6.5zm-21.881-13.7a6.72 6.72 0 0 1 1.38-2.84 2 2 0 0 1 .94-.74 1.72 1.72 0 0 1 2.2 1.32 2 2 0 0 1-.56 1.72l-3.6 5.1a7.842 7.842 0 0 1-.36-1.4 7.7 7.7 0 0 1 0-3.16zm-4 20a1.5 1.5 0 1 1 1.5-1.5 1.499 1.499 0 0 1-1.5 1.6v-.1zm22.94-3.44a2 2 0 0 1-.94.86 6.72 6.72 0 0 1-3.02.8 7.698 7.698 0 0 1-3.06-.58 7.838 7.838 0 0 1-1.34-.72l5.74-2.54a2 2 0 0 1 1.78-.22 1.721 1.721 0 0 1 .88 2.4h-.04z" fill="#5CA4A9"/><path d="M54.918 32.446l-1.34.44-5.62 6.66 7.5 3.58c.23.06.464.1.7.12a4.14 4.14 0 0 0 3.42-1.22 2.96 2.96 0 0 0 .56-1.04 6.72 6.72 0 0 0-1.42-4.66 14.181 14.181 0 0 0-3.8-3.88zM38.938 28.445a6.6 6.6 0 0 1-4-1.42l-.22-.18a7.4 7.4 0 0 1-2.22-3.84l3.76-8a1.6 1.6 0 0 0-2.88-1.36l-3.76 8-1.52-.72 3.76-8a1.6 1.6 0 0 0-2.88-1.36l-3.76 8-1.42-.68 3.76-8a1.6 1.6 0 0 0-2.88-1.36l-3.76 8-1.48-.7 3.76-8a1.6 1.6 0 1 0-2.88-1.36l-3.76 8-1.48-.7 3.76-8a1.599 1.599 0 1 0-2.8-1.24l-3.76 8-1.481-.7 3.76-8a1.605 1.605 0 1 0-2.9-1.38l-3.76 8-1.42-.68 3.76-8a1.6 1.6 0 1 0-2.88-1.36l-3.74 8-3.34 4.92a2.12 2.12 0 0 0-.24 1.44c.135.522.464.972.92 1.26l31.42 15.02 6.56-3.6z" fill="#5CA4A9"/></svg>