<svg width="96" height="143" fill="none" xmlns="http://www.w3.org/2000/svg"><path d="M92.383 70.62l-1.096 1.095-2.958 2.959-4.398 4.397-5.334 5.335-5.88 5.88-5.895 5.895-5.53 5.53-4.647 4.647-3.36 3.36c-.53.53-1.06 1.054-1.583 1.583l-.07.069c-.782.783-.84 2.222 0 2.995.848.778 2.16.836 2.996 0l1.096-1.095 2.958-2.959 4.398-4.398 5.335-5.334A162824.58 162824.58 0 0 1 85.72 83.273l4.647-4.646 3.36-3.36c.53-.53 1.059-1.054 1.582-1.583l.07-.069c.782-.783.84-2.223 0-2.995-.848-.773-2.16-.837-2.996 0zM59.792 86.448h-1.35c-.502 0-1.015.027-1.518-.037.185.027.376.053.561.074a4.409 4.409 0 0 1-1.1-.301c.169.068.338.142.507.211a4.488 4.488 0 0 1-.963-.56l.429.333a4.574 4.574 0 0 1-.831-.831l.333.428a4.624 4.624 0 0 1-.56-.963c.068.17.142.339.211.508a4.914 4.914 0 0 1-.302-1.1c.027.185.053.375.074.56-.053-.402-.037-.804-.037-1.206v-1.9-4.371c0-.46-.02-.927.037-1.382-.026.186-.053.376-.074.561.053-.38.154-.746.302-1.1-.069.169-.143.338-.212.508a4.49 4.49 0 0 1 .561-.963l-.333.428c.243-.312.518-.593.83-.83l-.428.333a4.62 4.62 0 0 1 .963-.561c-.17.069-.339.143-.508.211.355-.142.72-.243 1.101-.301-.185.026-.376.053-.561.074.572-.074 1.154-.037 1.725-.037.572 0 1.16-.032 1.725.037a20.653 20.653 0 0 0-.56-.074c.38.053.746.153 1.1.301-.169-.068-.338-.142-.508-.211.344.148.667.333.963.56a700.38 700.38 0 0 0-.428-.333c.312.244.592.519.83.831l-.333-.428c.228.301.413.619.561.963-.069-.17-.143-.34-.212-.508.143.354.244.72.302 1.1a20.366 20.366 0 0 1-.074-.56c.053.402.037.804.037 1.206V83.389c0 .46.021.926-.037 1.382.027-.186.053-.376.074-.561a4.41 4.41 0 0 1-.301 1.1c.068-.169.142-.338.211-.508a4.491 4.491 0 0 1-.56.963l.333-.428a4.577 4.577 0 0 1-.831.83l.428-.333a4.62 4.62 0 0 1-.963.561c.17-.069.339-.143.508-.211-.354.142-.72.243-1.1.301.185-.026.375-.053.56-.074a5.28 5.28 0 0 1-.582.037 2.198 2.198 0 0 0-1.497.62c-.366.365-.646.968-.62 1.497.053 1.138.932 2.127 2.117 2.117 1.651-.016 3.192-.64 4.414-1.741a6.054 6.054 0 0 0 1.307-1.688c.429-.831.646-1.63.746-2.556.043-.408.032-.82.032-1.228v-2.032-4.44c0-.657-.032-1.287-.164-1.938-.323-1.593-1.334-2.92-2.614-3.873-1.075-.8-2.445-1.18-3.774-1.186h-2.053c-1.244 0-2.487.286-3.546.947a6.681 6.681 0 0 0-2.852 3.7c-.392 1.264-.27 2.693-.27 4v4.658c0 .333-.005.661 0 .994a6.669 6.669 0 0 0 1.783 4.356 6.05 6.05 0 0 0 1.704 1.286c.847.418 1.63.63 2.567.725.683.069 1.387.021 2.07.021h.656c1.106 0 2.17-.974 2.116-2.117-.058-1.153-.936-2.122-2.122-2.122zM89.497 110.751h-1.35c-.502 0-1.015.026-1.518-.037.185.026.376.053.561.074a4.421 4.421 0 0 1-1.1-.302c.169.069.338.143.507.212a4.467 4.467 0 0 1-.963-.561l.429.333a4.74 4.74 0 0 1-.831-.83l.333.428a4.604 4.604 0 0 1-.56-.963c.068.169.142.339.211.508a4.912 4.912 0 0 1-.302-1.101c.027.186.053.376.075.561-.053-.402-.038-.804-.038-1.206v-1.9-4.372c0-.46-.02-.926.038-1.381-.027.185-.053.376-.075.561.053-.381.154-.746.302-1.1-.069.169-.143.338-.212.507.148-.344.334-.666.561-.963l-.333.429c.243-.312.519-.593.83-.831l-.428.333c.302-.227.62-.412.963-.56-.169.068-.338.142-.508.211.355-.143.72-.243 1.101-.302-.185.027-.376.053-.56.075.57-.075 1.153-.037 1.724-.037.572 0 1.16-.032 1.726.036a20.314 20.314 0 0 0-.561-.073c.38.052.746.153 1.1.301-.169-.069-.338-.143-.508-.212.344.149.667.334.963.561l-.428-.333c.312.243.593.519.83.83l-.333-.428c.228.302.413.62.561.963-.069-.169-.143-.338-.211-.508.142.355.243.72.301 1.101a19.939 19.939 0 0 1-.074-.561c.053.402.037.805.037 1.207V107.692c0 .46.021.926-.037 1.381.027-.185.053-.375.074-.561a4.409 4.409 0 0 1-.301 1.101c.068-.169.142-.339.211-.508a4.48 4.48 0 0 1-.56.963l.333-.428a4.572 4.572 0 0 1-.831.83l.428-.333c-.301.228-.619.413-.963.561.17-.069.339-.143.508-.212-.354.143-.72.244-1.1.302.185-.026.375-.053.56-.074-.19.021-.38.037-.582.037a2.198 2.198 0 0 0-1.497.619c-.365.365-.646.969-.62 1.498.053 1.138.932 2.127 2.117 2.117 1.652-.016 3.192-.641 4.414-1.741a6.049 6.049 0 0 0 1.307-1.689c.429-.831.646-1.63.746-2.556.043-.407.032-.82.032-1.228v-2.032-4.44c0-.656-.031-1.286-.164-1.937-.323-1.593-1.333-2.921-2.614-3.874-1.075-.799-2.445-1.185-3.773-1.185H87.39c-1.244 0-2.487.285-3.546.947a6.681 6.681 0 0 0-2.852 3.7c-.392 1.264-.27 2.693-.27 4v4.657c0 .334-.005.662 0 .995a6.67 6.67 0 0 0 1.783 4.356 6.056 6.056 0 0 0 1.704 1.286c.847.418 1.63.63 2.567.725.683.069 1.387.021 2.07.021h.656c1.106 0 2.17-.974 2.117-2.117-.053-1.154-.932-2.122-2.123-2.122z" fill="#111"/><path d="M24.864 115.864c-6.4 0-11.232-2.08-14.496-6.24-3.2-4.16-4.8-9.728-4.8-16.704V59.416c0-7.104 1.568-12.672 4.704-16.704 3.2-4.096 8.064-6.144 14.592-6.144 6.464 0 11.264 2.048 14.4 6.144 3.2 4.032 4.8 9.6 4.8 16.704V92.92c0 7.04-1.6 12.64-4.8 16.8-3.2 4.096-8 6.144-14.4 6.144zm0-8.448c5.888 0 8.832-4.8 8.832-14.4V59.32c0-4.416-.64-7.904-1.92-10.464-1.216-2.624-3.52-3.936-6.912-3.936s-5.728 1.312-7.008 3.936c-1.28 2.56-1.92 6.048-1.92 10.464v33.696c0 9.6 2.976 14.4 8.928 14.4z" fill="#833C9F"/></svg>