<svg width="22" height="25" fill="none" xmlns="http://www.w3.org/2000/svg"><path d="M10.168 0c.234.041.15-.011.276.109l10.508 15.007c1.014 1.448 1.292 3.202.834 4.909-.352 1.315-1.254 2.578-2.436 3.406-2.7 1.89-6.382 1.27-8.259-1.41L.802 7.326a4.403 4.403 0 0 1-.734-3.31A4.403 4.403 0 0 1 1.89 1.158c2-1.4 4.768-.913 6.168 1.088l4.323 6.173 2.973 4.246.98 1.399.371.53c1.015 1.45.858 3.177-.5 4.127-.654.458-1.361.589-2.207.44a3.074 3.074 0 0 1-1.996-1.273L5.157 8.075a.27.27 0 0 1 .067-.375l1.19-.83a.269.269 0 0 1 .374.068l6.843 9.811c.17.242.422.402.713.453.341.06.512.037.721-.11.428-.3.422-.771.012-1.357l-.372-.53-.98-1.4-2.972-4.245L6.43 3.386a2.422 2.422 0 0 0-1.576-1.003 2.423 2.423 0 0 0-1.823.404c-.534.374-.89.933-1.004 1.575-.113.643.03 1.29.404 1.824L12.72 20.88c1.247 1.78 3.686 2.184 5.489.922 1.825-1.278 2.347-3.786 1.114-5.546L8.816 1.25a.27.27 0 0 1 .066-.375L10.07.043 10.168 0z" fill="#A1A1A1"/></svg>