<svg width="75" height="78" fill="none" xmlns="http://www.w3.org/2000/svg"><path d="M16.671 41.54H6.208a5.549 5.549 0 0 0-5.544 5.544v29.702c0 .672.544 1.214 1.214 1.214h19.121c.67 0 1.214-.542 1.214-1.214V47.084a5.546 5.546 0 0 0-5.542-5.543zm3.116 34.032H3.093V47.084A3.118 3.118 0 0 1 6.21 43.97h10.464a3.118 3.118 0 0 1 3.116 3.115v28.488h-.002z" fill="#111"/><path d="M42.9 28.826H32.434a5.55 5.55 0 0 0-5.543 5.545v42.415c0 .672.544 1.214 1.214 1.214h19.122c.67 0 1.214-.542 1.214-1.214V34.371a5.548 5.548 0 0 0-5.541-5.545zm3.115 46.746H29.32V34.371a3.118 3.118 0 0 1 3.116-3.117H42.9a3.118 3.118 0 0 1 3.116 3.117v41.201h-.002z" fill="#833C9F"/><path d="M69.128 13.914H58.664a5.551 5.551 0 0 0-5.545 5.544v57.328c0 .672.544 1.214 1.214 1.214h19.123c.672 0 1.214-.542 1.214-1.214V19.458a5.55 5.55 0 0 0-5.542-5.544zm3.114 61.658H55.547V19.458a3.12 3.12 0 0 1 3.117-3.116h10.464a3.118 3.118 0 0 1 3.116 3.116v56.114h-.002zM17.434 60.76h-3.875l-1.196-3.683a.97.97 0 0 0-1.845 0L9.322 60.76H5.445a.969.969 0 0 0-.568 1.756l3.135 2.276-1.197 3.684a.971.971 0 0 0 1.494 1.086l3.135-2.276 3.135 2.276a.977.977 0 0 0 1.143 0 .971.971 0 0 0 .352-1.086l-1.196-3.684 3.134-2.276a.968.968 0 0 0 .352-1.086.986.986 0 0 0-.93-.67zm-4.628 3.962l.493 1.514-1.287-.935a.973.973 0 0 0-1.143 0l-1.287.934.494-1.513a.973.973 0 0 0-.354-1.087l-1.287-.933h1.59c.42 0 .792-.27.922-.67l.492-1.512.492 1.511c.13.4.503.67.922.67h1.59l-1.287.934a.973.973 0 0 0-.35 1.087z" fill="#111"/><path d="M43.662 60.76h-3.874l-1.198-3.683a.97.97 0 0 0-1.845 0l-1.196 3.682h-3.875a.969.969 0 0 0-.57 1.756l3.135 2.276-1.197 3.684a.972.972 0 0 0 1.495 1.086l3.13-2.274 3.136 2.275a.974.974 0 0 0 1.143 0 .97.97 0 0 0 .352-1.085l-1.196-3.684 3.135-2.276a.97.97 0 0 0-.575-1.758zm-4.627 3.962l.492 1.514-1.287-.935a.974.974 0 0 0-1.144 0l-1.285.935.49-1.514a.972.972 0 0 0-.352-1.087l-1.286-.933h1.588a.97.97 0 0 0 .924-.67l.492-1.514.494 1.514c.13.4.503.67.923.67h1.589l-1.287.933a.971.971 0 0 0-.351 1.087zM43.662 43.64h-3.874l-1.198-3.682a.97.97 0 0 0-1.845 0l-1.196 3.682h-3.875a.971.971 0 1 0-.57 1.756l3.135 2.276-1.197 3.684a.972.972 0 0 0 1.495 1.086l3.13-2.276 3.136 2.276a.974.974 0 0 0 1.143 0 .97.97 0 0 0 .352-1.086l-1.196-3.684 3.135-2.276a.969.969 0 0 0 .353-1.084.979.979 0 0 0-.928-.672zm-4.627 3.962l.492 1.512-1.287-.934a.974.974 0 0 0-1.144 0l-1.285.934.49-1.512a.973.973 0 0 0-.352-1.087l-1.286-.932h1.588a.97.97 0 0 0 .924-.672l.492-1.512.494 1.513c.13.4.503.672.923.672h1.589l-1.287.932a.97.97 0 0 0-.351 1.086z" fill="#833C9F"/><path d="M69.889 60.76h-3.873l-1.198-3.683a.97.97 0 0 0-1.845 0l-1.198 3.682h-3.873a.973.973 0 0 0-.571 1.756l3.135 2.276-1.196 3.684a.971.971 0 0 0 1.494 1.086l3.135-2.276 3.133 2.276a.975.975 0 0 0 1.143 0 .972.972 0 0 0 .355-1.086l-1.198-3.684 3.135-2.276a.97.97 0 0 0 .353-1.086.987.987 0 0 0-.931-.67zm-4.627 3.962l.492 1.514-1.287-.935a.974.974 0 0 0-1.144 0l-1.285.935.492-1.514a.973.973 0 0 0-.355-1.087l-1.285-.933h1.588a.97.97 0 0 0 .924-.67l.492-1.514.492 1.514c.13.4.503.67.923.67h1.589l-1.287.933a.978.978 0 0 0-.35 1.087zM69.889 43.64h-3.873l-1.198-3.682a.97.97 0 0 0-1.845 0l-1.198 3.682h-3.873a.97.97 0 1 0-.571 1.756l3.135 2.276-1.196 3.684a.97.97 0 0 0 1.494 1.086l3.135-2.276 3.133 2.276a.975.975 0 0 0 1.143 0 .972.972 0 0 0 .355-1.086l-1.198-3.684 3.135-2.276a.969.969 0 0 0 .353-1.084.986.986 0 0 0-.931-.672zm-4.627 3.962l.492 1.512-1.287-.934a.974.974 0 0 0-1.144 0l-1.285.934.492-1.512a.974.974 0 0 0-.355-1.087l-1.285-.932h1.588a.971.971 0 0 0 .924-.672l.492-1.514.492 1.514c.13.4.503.672.923.672h1.589l-1.287.932a.98.98 0 0 0-.35 1.087zM69.889 26.52h-3.873l-1.198-3.683a.97.97 0 0 0-1.845 0l-1.198 3.684h-3.873a.973.973 0 0 0-.571 1.756l3.135 2.276-1.196 3.682a.97.97 0 0 0 1.494 1.086l3.135-2.276 3.133 2.276a.975.975 0 0 0 1.143 0 .97.97 0 0 0 .355-1.086l-1.198-3.682 3.135-2.276a.97.97 0 0 0 .353-1.086.984.984 0 0 0-.931-.67zm-4.627 3.961l.492 1.514-1.287-.936a.974.974 0 0 0-1.144 0l-1.285.934.492-1.512a.972.972 0 0 0-.355-1.086l-1.285-.933h1.588a.97.97 0 0 0 .924-.67l.492-1.516.492 1.515c.13.4.503.67.923.67h1.589l-1.287.934a.978.978 0 0 0-.35 1.086z" fill="#111"/><path d="M1.878 36.587c.115 0 .23-.015.347-.049.386-.115 37.188-11.186 58.231-31.391l-1.157 4.99a1.212 1.212 0 0 0 1.184 1.487c.553 0 1.051-.379 1.18-.94l2.134-9.197a1.216 1.216 0 0 0-1.311-1.48L53.4.968c-.667.07-1.15.667-1.08 1.334a1.21 1.21 0 0 0 1.336 1.08l5.75-.61C38.944 22.948 1.92 34.095 1.533 34.21c-.64.19-1.01.866-.819 1.51.157.526.64.867 1.164.867z" fill="#833C9F"/></svg>