<svg width="46" height="46" fill="none" xmlns="http://www.w3.org/2000/svg"><circle cx="23" cy="23" r="23" fill="#fff"/><path d="M30.168 26.06l-3.516-.835-.63-.883a4.74 4.74 0 0 0 1.846-2.085c.92-.699 1.4-1.437 1.425-2.196a1.872 1.872 0 0 0-.346-1.143c.388-.816 1.197-2.938.55-5.428-.032-.102-.336-1.003-1.213-1.385-.472-.205-.997-.214-1.567-.027-.693-.898-2.721-2.878-6.523-1.729-.111.04-2.73 1.006-3.636 3.445-.536 1.444-.355 3.069.54 4.837-.2.185-.4.457-.479.841-.165.793.268 1.72 1.288 2.756.168.342.777 1.413 2.082 2.152l-.613.845-3.54.837A7.558 7.558 0 0 0 10 33.444V36h26v-2.56a7.558 7.558 0 0 0-5.832-7.38zm-11.311-4.357l-.042-.098-.075-.076c-1.07-1.064-1.1-1.632-1.062-1.827.05-.263.302-.383.33-.395l.576-.225-.307-.544c-.39-.689-.65-1.345-.796-1.968 1.49-.228 2.576.242 2.586.246l.86.392-.212-2.057c3.07.305 3.978 1.707 3.984 1.717l.545.93.688-1.62c1.467.85 2.034 1.531 2.227 1.82a5.73 5.73 0 0 1-.327.72l-.222.39.336.298c.011.01.282.254.264.631-.021.432-.403.93-1.105 1.437l-.138.103-.056.16c-.033.094-.846 2.305-3.91 2.305-3.097 0-4.104-2.246-4.144-2.339zm-.33 8.825l1.644-1.437-1.33-1.282 1.624-2.24 1.208 8.262-3.146-3.303zm4.4 4.388l-1.458-9.966c.459.108.964.175 1.531.175.58 0 1.093-.069 1.551-.18l-1.477 9.971h-.148zm1.4-1.069l1.229-8.292 1.608 2.254-1.316 1.284 1.64 1.435-3.16 3.32z" fill="#833C9F"/></svg>