<svg width="21" height="21" fill="none" xmlns="http://www.w3.org/2000/svg"><path d="M21 10.23c0 5.65-4.615 10.23-10.31 10.23-1.807 0-3.505-.463-4.982-1.274L0 21l1.86-5.489A10.122 10.122 0 0 1 .382 10.23C.381 4.58 4.997 0 10.692 0 16.385 0 21 4.58 21 10.23zm-10.31-8.6c-4.779 0-8.667 3.857-8.667 8.6a8.51 8.51 0 0 0 1.652 5.042l-1.083 3.194 3.33-1.059a8.662 8.662 0 0 0 4.77 1.423c4.778 0 8.666-3.858 8.666-8.6 0-4.742-3.888-8.6-8.667-8.6zm5.207 10.956c-.064-.105-.232-.168-.485-.293-.253-.125-1.495-.732-1.726-.816-.232-.083-.4-.125-.57.126-.167.25-.652.815-.8.982-.147.168-.294.19-.547.064-.253-.125-1.067-.39-2.032-1.245-.751-.664-1.258-1.485-1.406-1.736-.147-.25-.015-.386.111-.511.114-.113.253-.293.38-.44.126-.146.168-.25.252-.418.084-.167.042-.313-.021-.439-.063-.125-.57-1.36-.78-1.861-.21-.502-.42-.418-.568-.418-.147 0-.316-.021-.484-.021a.933.933 0 0 0-.675.313c-.231.251-.884.858-.884 2.092 0 1.233.905 2.426 1.032 2.593.126.167 1.748 2.781 4.317 3.785s2.569.669 3.032.627c.463-.042 1.495-.607 1.707-1.192.21-.586.21-1.088.147-1.193z" fill="#15972C"/></svg>