<svg width="97" height="143" fill="none" xmlns="http://www.w3.org/2000/svg"><path d="M89.557.003L56.056 59.192l7.254 4.106L96.811 4.109 89.557.003z" fill="url(#paint0_linear)"/><path d="M7.252 0L0 4.105l33.499 59.184 7.252-4.104L7.25 0z" fill="url(#paint1_linear)"/><path d="M48.43 62.816a24.129 24.129 0 1 0 .001 48.258 24.129 24.129 0 0 0 0-48.258z" fill="#48BF61"/><path d="M11.206 133.982h1.353v-2.475h1.529c1.694 0 3.08-.902 3.08-2.629 0-1.573-1.133-2.596-2.926-2.596h-3.036v7.7zm1.353-3.696v-2.772h1.573c1.012 0 1.66.473 1.66 1.375 0 .825-.637 1.397-1.66 1.397h-1.573zm5.84 3.696h1.255l2.76-3.872v3.872h1.287v-5.808h-1.253a843.077 843.077 0 0 0-2.75 3.894v-3.894h-1.299v5.808zm9.656.132c1.133 0 1.804-.451 2.376-1.089l-.803-.792c-.418.429-.88.726-1.507.726-1.023 0-1.738-.836-1.738-1.87v-.022c0-1.012.704-1.848 1.672-1.848.671 0 1.1.297 1.507.726l.825-.891c-.539-.594-1.22-1.001-2.32-1.001-1.739 0-3.015 1.386-3.015 3.036v.022c0 1.65 1.276 3.003 3.003 3.003zm4.735 1.661c.935 0 1.452-.44 1.914-1.628l2.31-5.973h-1.386l-1.507 4.312-1.65-4.312h-1.42l2.42 5.808c-.22.506-.45.671-.824.671a1.64 1.64 0 0 1-.781-.22l-.451.99c.407.22.814.352 1.375.352zm5.364-1.793h1.331v-2.343h2.563v2.343h1.331v-5.808h-1.33v2.354h-2.564v-2.354h-1.33v5.808zm6.897 0h1.32v-1.397l.946-1.001 1.76 2.398h1.573l-2.442-3.366 2.255-2.442H48.9l-2.53 2.783v-2.783h-1.32v5.808zm6.52 0h1.254l2.761-3.872v3.872h1.287v-5.808H55.62c-.924 1.298-1.837 2.596-2.75 3.894v-3.894h-1.298v5.808zm9.764 0h1.419l1.419-2.035 1.43 2.035h1.452l-2.145-2.981 2.057-2.827h-1.42l-1.341 1.914-1.342-1.914h-1.452l2.057 2.86-2.134 2.948zm6.887 0h1.33v-2.343h2.564v2.343h1.33v-5.808h-1.33v2.354h-2.563v-2.354h-1.331v5.808zm9.657.132c1.793 0 3.113-1.375 3.113-3.025 0-1.683-1.309-3.036-3.09-3.036-1.783 0-3.103 1.375-3.103 3.036 0 1.672 1.31 3.025 3.08 3.025zm.022-1.155c-1.034 0-1.77-.858-1.77-1.87 0-1.034.681-1.87 1.748-1.87 1.045 0 1.782.847 1.782 1.87 0 1.023-.682 1.87-1.76 1.87zm7.109-5.456c.935 0 1.573-.594 1.716-1.529l-.803-.154c-.143.462-.418.748-.913.748-.495 0-.77-.286-.913-.748l-.814.154c.143.935.792 1.529 1.727 1.529zm-2.662 6.479h1.254l2.76-3.872v3.872h1.288v-5.808h-1.254c-.924 1.298-1.837 2.596-2.75 3.894v-3.894h-1.298v5.808zM42.773 79.086l.158 1.201 1.073.372.517-.537-.195-1.219-.52.541-1.033-.358zM41.016 85.655l-1.162-1.812a.914.914 0 0 0-.77-.43h-.072c-.51 0-.926.433-.926.964a1 1 0 0 0 .126.486l.948 1.689h1.282l.574-.897zM42.644 78.096l.93.322.578-.602-.294-1.835a.745.745 0 0 0-.731-.636.703.703 0 0 0-.525.215.74.74 0 0 0-.205.517v.082c0 .035.002.069.006.103l.24 1.834zM40.888 89.633l.123-.514-.482-.125.359.64zM42.205 91.982l.119-.616-.544-.141.425.757zM48.862 78.931h-1.724v.897h1.724v-.897zM48.862 80.724h-1.724v2.242h1.724v-2.242zm-.431 1.345h-.862v-.897h.862v.897zM53.51 76.847l.085-.583a.787.787 0 0 0 .008-.113c0-.461-.332-.806-.74-.806-.37 0-.66.255-.716.607l-.1.615.757.525.707-.245zM53.184 79.111l.183-1.27-.69.24-.784-.544-.21 1.304.783.499.718-.229zM48.862 74.897c0-.495-.387-.897-.862-.897-.476 0-.862.402-.862.897v3.137h1.724v-3.137zM52.31 97.31h-.862v-2.952l-.862-.897v2.056h-.862v-2.952l-.862-.897v2.504h-.863v-2.504l-.862.897v2.952h-.862v-2.056l-.862.897v2.952h-.862v-2.056l-.43.449V100h8.62v-4.297l-.431-.449v2.056zm-6.897 1.793h-.862v-.896h.862v.896zm1.724-1.793h-.862v-.896h.862v.896zm1.724-1.344H48v-.897h.862v.897zm1.725 1.344h-.862v-.896h.862v.896zm1.724 1.793h-.862v-.896h.862v.896zM49.723 88.793h-.013c.17.131.319.286.444.462v-.014h.176c.349-.37.58-.83.673-1.33-.481.095-.922.337-1.28.7v.182zM46.707 89.241v.014c.126-.176.275-.331.444-.462h-.013v-.182a2.463 2.463 0 0 0-1.28-.7c.092.5.324.959.673 1.33h.176zM46.298 90.27l-.124-.13a2.46 2.46 0 0 0-1.377.446 2.46 2.46 0 0 0 1.406.448h.117a2.307 2.307 0 0 1-.044-.448c0-.112.017-.219.032-.327l-.01.01zM48.43 86.806c-.271.42-.422.922-.428 1.432l.124.13-.01.01c.104-.016.207-.033.315-.033.108 0 .21.017.314.033l-.01-.01.125-.13a2.706 2.706 0 0 0-.43-1.432zM47.138 90.586c0 .204.047.398.129.577l.123-.129a1.466 1.466 0 0 1 2.081 0l.124.129c.081-.179.129-.373.129-.577 0-.741-.58-1.345-1.293-1.345s-1.293.604-1.293 1.345zM55.703 88.574l.21-.704-.438.227.228.477zM57.28 80.276a.63.63 0 0 0-.568.364l-.359.745 1.316.547.217-.732a.686.686 0 0 0 .028-.194v-.07a.648.648 0 0 0-.635-.66z" fill="#fff"/><path d="M54.135 85.998a.956.956 0 0 1-.861.554c-.532 0-.964-.45-.964-1.003v-.3c0-.05.004-.099.01-.147l.722-5.008-.695.221-.817-.52-.885 5.528a.906.906 0 0 1-.886.78c-.494 0-.897-.419-.897-.933v-1.308h-1.724v1.308c0 .514-.404.933-.898.933a.904.904 0 0 1-.885-.777l-.66-4.117-.458.477-1.177-.408.62 4.726c.006.047.01.092.01.14v.272c0 .57-.446 1.032-.993 1.032a.981.981 0 0 1-.826-.46l-.337-.525-.631.985h-1.24l.26.464 2.134.555-.431 1.793 1.705.443-.471 2.446.92 1.64 2.748-2.858h-.327a3.332 3.332 0 0 1-2.385-1.028l-.305-.317.305-.317a3.359 3.359 0 0 1 1.678-.946 3.587 3.587 0 0 1-.542-1.907v-.448h.43c.662 0 1.293.198 1.834.564.137-.655.45-1.268.91-1.745l.305-.318.304.318c.46.477.774 1.09.91 1.745a3.26 3.26 0 0 1 1.833-.564h.431v.448c0 .688-.19 1.344-.542 1.907.63.142 1.22.469 1.679.946l.304.317-.304.317a3.333 3.333 0 0 1-2.386 1.028h-.327l2.772 2.882.735-1.147c.24-.374.447-.768.627-1.176l-1.012-2.104 1.724-.897-.862-1.793 1.945-1.011 1.152-3.893-1.448-.602-1.83 3.808zm2.485-1.688h-.862v-.896h.862v.896z" fill="#fff"/><path d="M54.883 91.349l.245-.83-.516.268.27.562zM50.66 91.034c.501 0 .994-.16 1.406-.448a2.462 2.462 0 0 0-1.377-.446l-.124.13-.01-.01c.015.107.032.214.032.326 0 .153-.016.302-.044.448h.118z" fill="#fff"/><defs><linearGradient id="paint0_linear" x1="60.261" y1="61.173" x2="93.586" gradientUnits="userSpaceOnUse"><stop stop-color="#89CB97"/><stop offset=".509" stop-color="#69C57D" stop-opacity=".8"/><stop offset="1" stop-color="#48BF61" stop-opacity="0"/></linearGradient><linearGradient id="paint1_linear" x1="3.626" y1="2.052" x2="37.125" y2="61.237" gradientUnits="userSpaceOnUse"><stop stop-color="#48BF61" stop-opacity="0"/><stop offset=".51" stop-color="#69C57D" stop-opacity=".8"/><stop offset="1" stop-color="#89CB97"/></linearGradient></defs></svg>