<svg width="97" height="143" fill="none" xmlns="http://www.w3.org/2000/svg"><path d="M89.557.003L56.056 59.192l7.254 4.106L96.811 4.109 89.557.003z" fill="url(#paint0_linear)"/><path d="M7.252 0L0 4.105l33.499 59.184 7.252-4.104L7.25 0z" fill="url(#paint1_linear)"/><path d="M48.43 62.816a24.129 24.129 0 1 0 .001 48.258 24.129 24.129 0 0 0 0-48.258z" fill="#48BF61"/><path d="M58.069 81.65a4.791 4.791 0 0 1-4.2 2.48H43.13a4.792 4.792 0 0 1-4.199-2.48A15.567 15.567 0 0 0 38 87c0 7.168 4.71 13 10.5 13S59 94.168 59 87c0-1.906-.334-3.717-.931-5.35zM48.5 94.619c-1.82 0-3.299-1.47-3.299-3.278 0-1.807 1.48-3.278 3.3-3.278 1.818 0 3.298 1.47 3.298 3.278 0 1.807-1.48 3.278-3.299 3.278zm2.23-3.278c0 1.221-1 2.215-2.23 2.215a2.224 2.224 0 0 1-2.229-2.215c0-1.221 1-2.215 2.23-2.215 1.228 0 2.228.994 2.228 2.215zm6.853-13.37v1.407c0 2.034-1.666 3.689-3.713 3.689H43.13c-2.047 0-3.713-1.655-3.713-3.69v-1.405c0-2.035 1.666-3.69 3.713-3.69h.517c0 .021-.003.041-.003.062v4.988c0 .775.635 1.406 1.416 1.406h6.88c.78 0 1.416-.63 1.416-1.406v-4.988c0-.02-.003-.04-.003-.061h.517c2.047 0 3.713 1.654 3.713 3.689zm-5.297-3.627v4.988c0 .19-.155.343-.346.343h-6.88a.345.345 0 0 1-.346-.343v-4.988c0-.19.155-.343.346-.343h.751v4.674c0 .293.24.531.535.531a.533.533 0 0 0 .535-.531V74h.982v4.674c0 .293.24.531.535.531a.533.533 0 0 0 .535-.531V74h1.186v4.674c0 .293.24.531.535.531a.533.533 0 0 0 .535-.531V74h.751c.19 0 .346.154.346.343z" fill="#fff"/><defs><linearGradient id="paint0_linear" x1="60.261" y1="61.173" x2="93.586" gradientUnits="userSpaceOnUse"><stop stop-color="#89CB97"/><stop offset=".509" stop-color="#69C57D" stop-opacity=".8"/><stop offset="1" stop-color="#48BF61" stop-opacity="0"/></linearGradient><linearGradient id="paint1_linear" x1="3.626" y1="2.052" x2="37.125" y2="61.237" gradientUnits="userSpaceOnUse"><stop stop-color="#48BF61" stop-opacity="0"/><stop offset=".51" stop-color="#69C57D" stop-opacity=".8"/><stop offset="1" stop-color="#89CB97"/></linearGradient></defs></svg>