<svg width="97" height="143" fill="none" xmlns="http://www.w3.org/2000/svg"><path d="M89.557.003L56.056 59.192l7.254 4.106L96.811 4.109 89.557.003z" fill="url(#paint0_linear)"/><path d="M7.252 0L0 4.104 33.499 63.29l7.252-4.104L7.25 0z" fill="url(#paint1_linear)"/><path d="M48.43 62.816a24.129 24.129 0 1 0 .001 48.258 24.129 24.129 0 0 0 0-48.258z" fill="#48BF61"/><path d="M53.96 72c-2.097 0-4.169.575-6.047 1.66a.44.44 0 0 0-.056 0 .45.45 0 0 0-.084.084.453.453 0 0 0-.14.196.449.449 0 0 0-.001.141c.02.052.048.1.084.14.014.04.033.078.056.113.052.064.12.113.197.14a.448.448 0 0 0 .141 0 .448.448 0 0 0 .14 0 .45.45 0 0 0 .057-.055 11.358 11.358 0 0 1 11.306 0c.017.02.036.039.056.056a.449.449 0 0 0 .141 0 .448.448 0 0 0 .14 0 .45.45 0 0 0 .141-.056.451.451 0 0 0 .057-.085.45.45 0 0 0 .084-.055.45.45 0 0 0 .056-.282.45.45 0 0 0-.056-.197.446.446 0 0 0-.084-.055.445.445 0 0 0-.057-.085.44.44 0 0 0-.084 0C58.13 72.576 56.057 72 53.96 72zm0 1.8a10.38 10.38 0 0 0-5.175 1.406.451.451 0 0 0-.056.085.451.451 0 0 0-.085.056.451.451 0 0 0-.056.084.45.45 0 0 0 0 .113.454.454 0 0 0 0 .14.45.45 0 0 0 .056.197.45.45 0 0 0 .085.085.447.447 0 0 0 .112.056.448.448 0 0 0 .14 0 .449.449 0 0 0 .142 0 .44.44 0 0 0 .056 0 .451.451 0 0 0 .084-.056 9.41 9.41 0 0 1 9.422 0c.017.02.036.039.056.056a.448.448 0 0 0 .14 0 .45.45 0 0 0 .113 0 .45.45 0 0 0 .225-.056.451.451 0 0 0 .057-.085.452.452 0 0 0 .056-.112.448.448 0 0 0 0-.14.449.449 0 0 0 0-.142.45.45 0 0 0-.113-.196.447.447 0 0 0-.084-.085A10.38 10.38 0 0 0 53.96 73.8zm0 1.8c-1.48 0-2.978.388-4.303 1.153a.456.456 0 0 0-.056.056.45.45 0 0 0-.056.618c.069.09.169.15.28.17a.45.45 0 0 0 .338-.057 7.58 7.58 0 0 1 7.622 0 .45.45 0 0 0 .169.056.452.452 0 0 0 .365-.112.45.45 0 0 0 .17-.282.45.45 0 0 0-.057-.225.452.452 0 0 0-.169-.225A8.638 8.638 0 0 0 53.96 75.6v.001zm0 1.828a6.827 6.827 0 0 0-3.403.9.454.454 0 0 0 .478.76 5.833 5.833 0 0 1 5.85 0 .453.453 0 0 0 .478-.76 6.827 6.827 0 0 0-3.403-.9zm0 1.772a4.957 4.957 0 0 0-4.95 4.95c0 2.577 1.981 4.72 4.5 4.95v9h-2.7v-1.125c.49-.203.9-.593.9-1.153v-2.7c0-.606-.458-1.041-1.013-1.21l-1.743-4.359a.46.46 0 0 0-.394-.28h-9.056a.46.46 0 0 0-.366.28l-1.744 4.36v.028c-.54.176-.984.585-.984 1.18v2.701c0 .564.403.953.9 1.153V98.1h-1.8a.45.45 0 0 0-.494.33.453.453 0 0 0 .494.57h20.728a.448.448 0 0 0 .422-.624.448.448 0 0 0-.422-.276H54.41v-9c2.522-.231 4.528-2.373 4.528-4.95 0-2.729-2.25-4.95-4.978-4.95zm-1.35 2.672h.028a.44.44 0 0 1 .056 0h1.828c.99 0 1.8.81 1.8 1.8s-.81 1.8-1.8 1.8h-1.378v1.35a.452.452 0 0 1-.623.422.45.45 0 0 1-.277-.422v-4.5a.45.45 0 0 1 .056-.168v-.028a.46.46 0 0 1 .029-.028.461.461 0 0 1 .028-.056v-.028h.028a.456.456 0 0 1 .056-.055.44.44 0 0 1 .056-.028.445.445 0 0 1 .056-.028h.029a.435.435 0 0 1 .028-.028v-.003zm.534.9v1.8h1.379c.506 0 .9-.394.9-.9s-.394-.9-.9-.9h-1.379zm-13.303 5.4h8.41l1.434 3.6H38.407l1.434-3.6zm-.394 5.484a.788.788 0 1 1 0 1.576.788.788 0 0 1 0-1.576zm9.225 0a.788.788 0 1 1 0 1.576.788.788 0 0 1 0-1.576zm-8.662 3.516h8.1v.928h-8.1v-.928z" fill="#fff"/><defs><linearGradient id="paint0_linear" x1="60.261" y1="61.173" x2="93.586" gradientUnits="userSpaceOnUse"><stop stop-color="#89CB97"/><stop offset=".509" stop-color="#69C57D" stop-opacity=".8"/><stop offset="1" stop-color="#48BF61" stop-opacity="0"/></linearGradient><linearGradient id="paint1_linear" x1="3.626" y1="2.052" x2="37.125" y2="61.237" gradientUnits="userSpaceOnUse"><stop stop-color="#48BF61" stop-opacity="0"/><stop offset=".51" stop-color="#69C57D" stop-opacity=".8"/><stop offset="1" stop-color="#89CB97"/></linearGradient></defs></svg>