<svg width="97" height="143" fill="none" xmlns="http://www.w3.org/2000/svg"><path d="M89.557.003L56.056 59.192l7.254 4.106L96.811 4.109 89.557.003z" fill="url(#paint0_linear)"/><path d="M7.252 0L0 4.105l33.499 59.184 7.252-4.104L7.25 0z" fill="url(#paint1_linear)"/><path d="M48.43 62.816a24.129 24.129 0 1 0 .001 48.258 24.129 24.129 0 0 0 0-48.258z" fill="#48BF61"/><path d="M48.983 74C42.378 74 37 79.35 37 85.955c0 4.403 2.424 8.276 5.991 10.367.586.334.836-2.982.586-3.512-.363-.78-.948-1.393-1.45-2.09-1.839-2.591-2.034-6.242-.473-8.973 1.56-2.73 4.765-4.43 7.914-4.208 3.149.25 6.047 2.425 7.19 5.35 1.142 2.927.473 6.494-1.672 8.807-.39.418-.864.864-.976 1.42-.083.419 0 .865.112 1.283.111.446.14 1.672.669 1.811.418.112 1.17-.613 1.449-.836a11.775 11.775 0 0 0 2.424-2.564c1.393-2.006 2.174-4.403 2.174-6.855C60.938 79.35 55.559 74 48.983 74zm-2.007 1.923c-3.288.585-6.604 3.539-7.58 6.716a.419.419 0 0 1-.417.306c-.056 0-.084 0-.14-.027a.476.476 0 0 1-.306-.558c.53-1.755 1.7-3.455 3.288-4.82 1.533-1.31 3.316-2.202 5.016-2.509.25-.028.474.112.53.362 0 .251-.14.474-.39.53z" fill="#fff"/><path d="M53.08 93.284a4.598 4.598 0 0 0-4.124-2.536c-1.784 0-3.344 1.031-4.124 2.536-.307.641-.502 1.338-.502 2.09 0 .613.14 1.226.362 1.756.697 1.672 2.341 2.87 4.264 2.87a4.596 4.596 0 0 0 4.264-2.87c.223-.53.362-1.143.362-1.756 0-.752-.167-1.477-.502-2.09zm-4.124.223c-.14.557-.92 1.338-1.56 1.56-.725.251-1.366-.612-1.366-1.365 0-.752.836-1.588 1.588-1.588.753 0 1.505.668 1.338 1.393z" fill="#fff"/><defs><linearGradient id="paint0_linear" x1="60.261" y1="61.173" x2="93.586" gradientUnits="userSpaceOnUse"><stop stop-color="#89CB97"/><stop offset=".509" stop-color="#69C57D" stop-opacity=".8"/><stop offset="1" stop-color="#48BF61" stop-opacity="0"/></linearGradient><linearGradient id="paint1_linear" x1="3.626" y1="2.052" x2="37.125" y2="61.237" gradientUnits="userSpaceOnUse"><stop stop-color="#48BF61" stop-opacity="0"/><stop offset=".51" stop-color="#69C57D" stop-opacity=".8"/><stop offset="1" stop-color="#89CB97"/></linearGradient></defs></svg>