<svg width="97" height="143" fill="none" xmlns="http://www.w3.org/2000/svg"><path d="M89.557.003L56.056 59.192l7.254 4.106L96.811 4.109 89.557.003z" fill="url(#paint0_linear)"/><path d="M7.252 0L0 4.105l33.499 59.184 7.252-4.104L7.25 0z" fill="url(#paint1_linear)"/><path d="M48.43 62.816a24.129 24.129 0 1 0 .001 48.258 24.129 24.129 0 0 0 0-48.258z" fill="#48BF61"/><path d="M51.766 86.635a16.449 16.449 0 0 1-3.127.956c.07.676-2.187 2.55-2.802 1.89v9.164a1.355 1.355 0 0 0 2.71 0v-9.896h.509v9.896a1.355 1.355 0 0 0 2.71 0v-12.01zM47.151 85.56a.384.384 0 1 0-.768.001.384.384 0 0 0 .768 0zM47.936 86.584a.384.384 0 1 0 0-.769.384.384 0 0 0 0 .769zM48.801 78.933a2.463 2.463 0 0 0 2.466-2.467 2.466 2.466 0 1 0-2.466 2.467z" fill="#fff"/><path d="M42.095 92.863l.193.153 1.21-1.521.02 1.944.246-.003-.023-2.247.387-.486.19-.238a.718.718 0 0 0 .32.196.73.73 0 0 0 .206.031h.001a.725.725 0 0 0 .568-.274.723.723 0 0 0-.284-1.118.872.872 0 0 0 .007-.177 34.143 34.143 0 0 1-.062-1.998c-.004-2.654.383-4.145.764-4.924v3.853c.148.111.387.284.676.47l.046-.398a.602.602 0 1 1 .217.037l-.056.488c.14.086.289.171.443.252l.36-.266a.603.603 0 1 1 .2.125l-.342.252c.132.064.265.123.399.175 1.119-.178 2.558-.516 3.986-1.152v-3.831c.065.133.13.286.195.465.309.856.569 2.261.568 4.455 0 .604-.02 1.268-.062 1.997a.877.877 0 1 0 1.751.102c.044-.76.065-1.457.065-2.1-.005-3.308-.533-5.14-1.253-6.24-.36-.547-.782-.897-1.171-1.091a2.087 2.087 0 0 0-.896-.234l-.044-.002h-.54c-.043 1.345-1.578 2.77-1.578 2.77s-1.535-1.425-1.578-2.77h-.54l-.04.001a2.085 2.085 0 0 0-.9.234c-.59.292-1.225.932-1.67 2.066-.45 1.138-.753 2.782-.754 5.266 0 .501.013 1.038.04 1.61a.724.724 0 0 0-.712.726v.012a.722.722 0 0 0 .727.714h.006c.035 0 .07-.004.104-.01l.003.321.006.605-1.4 1.76zm3.066-3.293a.506.506 0 0 1-.317.903.503.503 0 0 1-.498-.427.875.875 0 0 0 .723-.533.51.51 0 0 1 .092.056zm-1.781.398a.016.016 0 0 0-.005 0 .507.507 0 0 1-.507-.502v-.005c0-.277.223-.504.502-.507h.001l.014.272a.873.873 0 0 0 .315.621.504.504 0 0 1-.32.121zm.356.647l-.005-.521a.725.725 0 0 0 .162-.125.869.869 0 0 0 .23.07c.007.071.025.141.053.207l-.323.407-.116.144-.001-.182z" fill="#fff"/><defs><linearGradient id="paint0_linear" x1="60.261" y1="61.173" x2="93.586" gradientUnits="userSpaceOnUse"><stop stop-color="#89CB97"/><stop offset=".509" stop-color="#69C57D" stop-opacity=".8"/><stop offset="1" stop-color="#48BF61" stop-opacity="0"/></linearGradient><linearGradient id="paint1_linear" x1="3.626" y1="2.052" x2="37.125" y2="61.237" gradientUnits="userSpaceOnUse"><stop stop-color="#48BF61" stop-opacity="0"/><stop offset=".51" stop-color="#69C57D" stop-opacity=".8"/><stop offset="1" stop-color="#89CB97"/></linearGradient></defs></svg>