<svg width="97" height="143" fill="none" xmlns="http://www.w3.org/2000/svg"><path d="M89.557.003L56.056 59.192l7.254 4.106L96.811 4.109 89.557.003z" fill="url(#paint0_linear)"/><path d="M7.252 0L0 4.105l33.499 59.184 7.252-4.104L7.25 0z" fill="url(#paint1_linear)"/><path d="M48.43 62.816a24.128 24.128 0 1 0 0 48.256 24.128 24.128 0 0 0 0-48.256z" fill="#48BF61"/><path d="M37.587 77.934a7.251 7.251 0 0 0-3.355 4.468 7.252 7.252 0 0 0 .788 5.531 7.25 7.25 0 0 0 4.468 3.355c.313.08.628.139.944.177l-.038 4.78-2.372-2.366a.814.814 0 1 0-1.15 1.153l3.74 3.73a.811.811 0 0 0 1.128.022l3.972-3.67a.814.814 0 1 0-1.105-1.196l-2.584 2.387.038-4.827a7.277 7.277 0 0 0 2.958-.977 7.253 7.253 0 0 0 3.355-4.468 7.253 7.253 0 0 0-.788-5.532c-2.049-3.464-6.534-4.616-9.999-2.567zm9.208 7.694a5.632 5.632 0 0 1-2.606 3.47 5.63 5.63 0 0 1-4.296.612 5.632 5.632 0 0 1-3.471-2.606 5.635 5.635 0 0 1-.612-4.297 5.634 5.634 0 0 1 2.606-3.47 5.674 5.674 0 0 1 7.767 1.994 5.633 5.633 0 0 1 .612 4.297zM64.706 90.066a7.253 7.253 0 0 0-3.131-4.627 7.263 7.263 0 0 0-3.16-1.153l.023-3.539 1.883.012h.006a.814.814 0 0 0 .005-1.629l-1.884-.012.015-2.298a.815.815 0 0 0-1.629-.01l-.015 2.298-1.883-.012h-.005a.814.814 0 0 0-.006 1.629l1.884.012-.023 3.535a7.25 7.25 0 0 0-5.324 3.24 7.251 7.251 0 0 0-1.058 5.486 7.253 7.253 0 0 0 3.131 4.627 7.248 7.248 0 0 0 5.486 1.058 7.252 7.252 0 0 0 4.628-3.131 7.253 7.253 0 0 0 1.057-5.486zm-2.418 4.588a5.636 5.636 0 0 1-3.594 2.433 5.63 5.63 0 0 1-4.262-.822 5.634 5.634 0 0 1-2.433-3.594 5.634 5.634 0 0 1 .822-4.262 5.635 5.635 0 0 1 3.595-2.433 5.633 5.633 0 0 1 4.262.822 5.633 5.633 0 0 1 2.432 3.595 5.634 5.634 0 0 1-.822 4.261z" fill="#fff"/><defs><linearGradient id="paint0_linear" x1="60.261" y1="61.173" x2="93.586" gradientUnits="userSpaceOnUse"><stop stop-color="#89CB97"/><stop offset=".509" stop-color="#69C57D" stop-opacity=".8"/><stop offset="1" stop-color="#48BF61" stop-opacity="0"/></linearGradient><linearGradient id="paint1_linear" x1="3.626" y1="2.052" x2="37.125" y2="61.237" gradientUnits="userSpaceOnUse"><stop stop-color="#48BF61" stop-opacity="0"/><stop offset=".51" stop-color="#69C57D" stop-opacity=".8"/><stop offset="1" stop-color="#89CB97"/></linearGradient></defs></svg>