<svg width="97" height="143" fill="none" xmlns="http://www.w3.org/2000/svg"><path d="M89.557.003L56.056 59.192l7.254 4.106L96.811 4.109 89.557.003z" fill="url(#paint0_linear)"/><path d="M7.252 0L0 4.104 33.499 63.29l7.252-4.104L7.25 0z" fill="url(#paint1_linear)"/><path d="M48.43 62.816a24.129 24.129 0 1 0 .001 48.258 24.129 24.129 0 0 0 0-48.258z" fill="#48BF61"/><path d="M13.883 133.982h1.353v-3.245h3.674v3.245h1.353v-7.7H18.91v3.201h-3.674v-3.201h-1.353v7.7zm13.076 0v-3.443c0-1.551-.835-2.453-2.552-2.453-.945 0-1.573.198-2.21.484l.363 1.067c.527-.22 1.012-.363 1.66-.363.925 0 1.43.44 1.43 1.243v.11a4.889 4.889 0 0 0-1.605-.242c-1.354 0-2.355.616-2.355 1.903 0 1.188.968 1.815 2.069 1.815.88 0 1.485-.363 1.88-.836v.715h1.32zm-1.287-2.101c0 .726-.66 1.221-1.54 1.221-.627 0-1.122-.308-1.122-.858 0-.583.495-.924 1.331-.924.517 0 .99.099 1.331.231v.33zm2.87 2.101h1.331v-4.664h2.52v4.664h1.33v-5.808h-5.18v5.808zm6.854 1.76h1.331v-2.662c.407.539 1.012 1.023 1.97 1.023 1.385 0 2.705-1.089 2.705-3.014 0-1.947-1.33-3.036-2.706-3.036-.935 0-1.54.484-1.969 1.089v-.968h-1.33v7.568zm2.992-2.794c-.902 0-1.694-.737-1.694-1.859 0-1.133.792-1.881 1.694-1.881.902 0 1.661.737 1.661 1.859 0 1.166-.748 1.881-1.66 1.881zm9.25 1.034v-3.443c0-1.551-.836-2.453-2.552-2.453-.946 0-1.573.198-2.21.484l.362 1.067c.528-.22 1.012-.363 1.661-.363.924 0 1.43.44 1.43 1.243v.11a4.889 4.889 0 0 0-1.606-.242c-1.353 0-2.354.616-2.354 1.903 0 1.188.968 1.815 2.068 1.815.88 0 1.485-.363 1.881-.836v.715h1.32zm-1.287-2.101c0 .726-.66 1.221-1.54 1.221-.627 0-1.122-.308-1.122-.858 0-.583.495-.924 1.331-.924.517 0 .99.099 1.331.231v.33zm2.87 2.101h3.014c1.32 0 2.145-.594 2.145-1.573 0-.825-.495-1.254-1.199-1.452.495-.22.935-.594.935-1.331 0-.891-.759-1.452-1.914-1.452h-2.98v5.808zm1.31-1.056v-1.452h1.44c.715 0 1.056.286 1.056.704 0 .451-.34.748-.99.748H50.53zm0-2.354v-1.375h1.385c.594 0 .847.286.847.66 0 .418-.308.715-.869.715H50.53zm5.135 3.476c1.287 0 2.079-.517 2.079-4.73h1.815v4.664h1.33v-5.808h-4.389c0 4.422-.462 4.752-1.133 4.752-.087 0-.297-.022-.385-.044l-.098 1.089c.198.033.572.077.78.077zm9.56.066c1.066 0 1.825-.429 2.375-1.089l-.78-.693c-.463.451-.925.693-1.574.693-.858 0-1.529-.528-1.672-1.474h4.268c.011-.066.022-.286.022-.374 0-1.672-.935-3.124-2.783-3.124-1.66 0-2.838 1.364-2.838 3.025 0 1.815 1.298 3.036 2.981 3.036zm-1.662-3.443c.121-.902.693-1.529 1.507-1.529.88 0 1.386.671 1.474 1.529h-2.98zm5.638 3.311h1.33v-2.343h2.564v2.343h1.33v-5.808h-1.33v2.354h-2.563v-2.354h-1.331v5.808zm6.896 0h1.254l2.761-3.872v3.872H81.4v-5.808h-1.254c-.924 1.298-1.837 2.596-2.75 3.894v-3.894h-1.298v5.808zm6.444 0h1.562l1.375-1.958h1.188v1.958h1.33v-5.808h-2.914c-1.463 0-2.288.77-2.288 1.892 0 .913.56 1.496 1.353 1.738l-1.606 2.178zm2.728-2.959c-.682 0-1.144-.33-1.144-.891 0-.55.429-.88 1.133-.88h1.408v1.771H85.27zM57.453 83.1h-3.64l2.918 2.984h-2.34a6.769 6.769 0 0 0-4.218 1.448V79.17l2.918 2.983v-3.752L48.758 74l-4.305 4.402v3.752l2.918-2.983v8.39a6.83 6.83 0 0 0-4.218-1.447h-2.34l2.918-2.985h-3.669l-4.304 4.403 4.304 4.402h3.64l-2.889-2.984h2.34c2.34 0 4.218 1.95 4.218 4.343V100h2.773v-6.707c0-2.393 1.907-4.343 4.218-4.343h2.34l-2.889 2.984h3.64l4.305-4.402-4.305-4.432z" fill="#fff"/><defs><linearGradient id="paint0_linear" x1="60.261" y1="61.173" x2="93.586" gradientUnits="userSpaceOnUse"><stop stop-color="#89CB97"/><stop offset=".509" stop-color="#69C57D" stop-opacity=".8"/><stop offset="1" stop-color="#48BF61" stop-opacity="0"/></linearGradient><linearGradient id="paint1_linear" x1="3.626" y1="2.052" x2="37.125" y2="61.237" gradientUnits="userSpaceOnUse"><stop stop-color="#48BF61" stop-opacity="0"/><stop offset=".51" stop-color="#69C57D" stop-opacity=".8"/><stop offset="1" stop-color="#89CB97"/></linearGradient></defs></svg>