<svg width="97" height="143" fill="none" xmlns="http://www.w3.org/2000/svg"><path d="M89.557.003L56.056 59.192l7.254 4.106L96.811 4.109 89.557.003z" fill="url(#paint0_linear)"/><path d="M7.252 0L0 4.104 33.499 63.29l7.252-4.104L7.25 0z" fill="url(#paint1_linear)"/><path d="M48.43 62.816a24.129 24.129 0 1 0 .001 48.258 24.129 24.129 0 0 0 0-48.258z" fill="#48BF61"/><path d="M42.31 78.935a2.467 2.467 0 1 0 0-4.935 2.467 2.467 0 0 0 0 4.935zM41.74 83.182c-.757-1.49-1.223-3.093-1.394-3.732h-.654s-3.836 1.097-3.48 8.87l.315-.005a33.404 33.404 0 0 0 .003.88c.008.48.4.863.877.863h.016a.878.878 0 0 0 .861-.893 30.055 30.055 0 0 1-.002-.875l.526-.008s-.026-1.224.128-2.028l.02.218.243.028a26.055 26.055 0 0 0 2.54-3.318zM44.932 79.45h-.667c-.207.722-1.168 3.561-4.261 7.13l.06.006c.651.058 1.494.115 2.247.115.753 0 1.596-.057 2.248-.115.627-.056 1.074-.11 1.108-.115l.02-.218c.154.805.128 2.03.128 2.03l.527.007a27.716 27.716 0 0 1-.003.876.878.878 0 0 0 1.755.028 38.293 38.293 0 0 0 .002-.88l.315.005c.356-7.773-3.48-8.869-3.48-8.869z" fill="#fff"/><path d="M43.102 87.342c.486.792 1.375 2.478 1.674 4.638l-.652.09c-.331-2.417-1.473-4.243-1.793-4.71h-.04a11.075 11.075 0 0 0-.704 1.224c-.423.856-.894 2.07-1.088 3.486l-.652-.09c.299-2.16 1.187-3.846 1.673-4.638a36.063 36.063 0 0 1-2.5-.2l.08.848-.44 2.522s.139.022.38.055l-.731 8.188s.165.063.43.139a1.355 1.355 0 0 0 2.626.148c.32-.052.563-.104.563-.104l.222-8.153a21.538 21.538 0 0 0 .323 0l.222 8.153s.242.052.563.105a1.356 1.356 0 0 0 2.627-.149c.264-.076.43-.139.43-.139l-.733-8.188c.242-.032.38-.055.38-.055l-.439-2.522.08-.848c-.377.043-1.425.156-2.5.2zM41.272 80.265c.206.643.5 1.457.876 2.252.862-1.461 1.267-2.554 1.43-3.067h-2.55c.06.213.14.492.244.815zM53.782 74.38a4.423 4.423 0 1 0 0 8.847 4.423 4.423 0 0 0 0-8.846zm0 .55a1.937 1.937 0 1 1 0 3.874 1.937 1.937 0 1 0 0 3.874 3.875 3.875 0 0 1 0-7.749zm0 6.295a.484.484 0 1 1 0-.968.484.484 0 0 1 0 .968z" fill="#fff"/><path d="M53.783 77.35a.484.484 0 1 0 0-.968.484.484 0 0 0 0 .969zM52.382 95.72h-2.924v4.241h2.924v-4.24zM63.064 95.72H60.14v4.241h2.924v-4.24zM61.306 94.369h-10.09v.877h10.09v-.877zM61.306 92.888h-10.09v.878h10.09v-.878zM61.306 91.408h-10.09v.877h10.09v-.877zM61.306 89.927h-10.09v.878h10.09v-.878z" fill="#fff"/><defs><linearGradient id="paint0_linear" x1="60.261" y1="61.173" x2="93.586" gradientUnits="userSpaceOnUse"><stop stop-color="#89CB97"/><stop offset=".509" stop-color="#69C57D" stop-opacity=".8"/><stop offset="1" stop-color="#48BF61" stop-opacity="0"/></linearGradient><linearGradient id="paint1_linear" x1="3.626" y1="2.052" x2="37.125" y2="61.237" gradientUnits="userSpaceOnUse"><stop stop-color="#48BF61" stop-opacity="0"/><stop offset=".51" stop-color="#69C57D" stop-opacity=".8"/><stop offset="1" stop-color="#89CB97"/></linearGradient></defs></svg>