<svg width="97" height="143" fill="none" xmlns="http://www.w3.org/2000/svg"><path d="M89.557.003L56.056 59.192l7.254 4.106L96.811 4.109 89.557.003z" fill="url(#paint0_linear)"/><path d="M7.252 0L0 4.105 33.499 63.29l7.252-4.105L7.25 0z" fill="url(#paint1_linear)"/><path d="M48.43 62.816a24.129 24.129 0 1 0 .001 48.258 24.129 24.129 0 0 0 0-48.258z" fill="#48BF61"/><path d="M18.271 133.982h1.488v-7.032h2.664v-1.368h-6.816v1.368h2.664v7.032zm5.55 1.92h1.451v-2.904c.444.588 1.104 1.116 2.148 1.116 1.512 0 2.952-1.188 2.952-3.288 0-2.124-1.452-3.312-2.952-3.312-1.02 0-1.68.528-2.148 1.188v-1.056H23.82v8.256zm3.263-3.048c-.984 0-1.848-.804-1.848-2.028 0-1.236.864-2.052 1.848-2.052.984 0 1.812.804 1.812 2.028 0 1.272-.816 2.052-1.812 2.052zm7.68 1.272c1.163 0 1.991-.468 2.591-1.188l-.852-.756c-.504.492-1.008.756-1.716.756-.936 0-1.668-.576-1.824-1.608h4.656c.012-.072.024-.312.024-.408 0-1.824-1.02-3.408-3.036-3.408-1.812 0-3.096 1.488-3.096 3.3 0 1.98 1.416 3.312 3.252 3.312zm-1.813-3.756c.132-.984.756-1.668 1.644-1.668.96 0 1.512.732 1.608 1.668h-3.252zm6.15 3.612h1.453v-2.556h2.795v2.556h1.453v-6.336h-1.453v2.568h-2.795v-2.568H39.1v6.336zm12.84 0v-3.756c0-1.692-.912-2.676-2.784-2.676-1.032 0-1.716.216-2.412.528l.396 1.164c.576-.24 1.104-.396 1.812-.396 1.008 0 1.56.48 1.56 1.356v.12a5.333 5.333 0 0 0-1.752-.264c-1.476 0-2.568.672-2.568 2.076 0 1.296 1.056 1.98 2.256 1.98.96 0 1.62-.396 2.052-.912v.78h1.44zm-1.404-2.292c0 .792-.72 1.332-1.68 1.332-.684 0-1.224-.336-1.224-.936 0-.636.54-1.008 1.452-1.008.564 0 1.08.108 1.452.252v.36zm2.327 2.292h1.632l1.812-2.7.972 1.104v1.596h1.452v-1.596l.972-1.104 1.812 2.7h1.632l-2.472-3.672 2.388-2.664h-1.692l-2.64 3.108v-3.108H57.28v3.108l-2.628-3.108H52.96l2.388 2.664-2.484 3.672zm14.208.144c1.164 0 1.992-.468 2.592-1.188l-.852-.756c-.504.492-1.008.756-1.716.756-.936 0-1.668-.576-1.824-1.608h4.656c.012-.072.024-.312.024-.408 0-1.824-1.02-3.408-3.036-3.408-1.812 0-3.096 1.488-3.096 3.3 0 1.98 1.416 3.312 3.252 3.312zm-1.812-3.756c.132-.984.756-1.668 1.644-1.668.96 0 1.512.732 1.608 1.668H65.26zm6.15 5.532h1.452v-2.904c.444.588 1.104 1.116 2.148 1.116 1.512 0 2.952-1.188 2.952-3.288 0-2.124-1.452-3.312-2.952-3.312-1.02 0-1.68.528-2.148 1.188v-1.056H71.41v8.256zm3.264-3.048c-.984 0-1.848-.804-1.848-2.028 0-1.236.864-2.052 1.848-2.052.984 0 1.812.804 1.812 2.028 0 1.272-.816 2.052-1.812 2.052zM33.96 91.756v-9.512a.8.8 0 1 0-1.6 0v9.512a.8.8 0 1 0 1.6 0zM36.785 94.376V79.624a.8.8 0 1 0-1.6 0v14.752a.8.8 0 0 0 1.6 0zM65.16 91.756v-9.512a.8.8 0 1 0-1.6 0v9.512a.8.8 0 0 0 1.6 0zM62.336 94.376V79.624a.8.8 0 1 0-1.6 0v14.752a.8.8 0 0 0 1.6 0zM59.56 96.2V77.8a.8.8 0 1 0-1.6 0v8.4h-18.4v-8.4a.8.8 0 1 0-1.6 0v18.4a.8.8 0 1 0 1.6 0v-8.4h18.4v8.4a.8.8 0 1 0 1.6 0z" fill="#fff"/><defs><linearGradient id="paint0_linear" x1="60.261" y1="61.173" x2="93.586" gradientUnits="userSpaceOnUse"><stop stop-color="#89CB97"/><stop offset=".509" stop-color="#69C57D" stop-opacity=".8"/><stop offset="1" stop-color="#48BF61" stop-opacity="0"/></linearGradient><linearGradient id="paint1_linear" x1="3.626" y1="2.052" x2="37.125" y2="61.237" gradientUnits="userSpaceOnUse"><stop stop-color="#48BF61" stop-opacity="0"/><stop offset=".51" stop-color="#69C57D" stop-opacity=".8"/><stop offset="1" stop-color="#89CB97"/></linearGradient></defs></svg>