<svg width="97" height="143" fill="none" xmlns="http://www.w3.org/2000/svg"><path d="M89.557.003L56.056 59.192l7.254 4.106L96.811 4.109 89.557.003z" fill="url(#paint0_linear)"/><path d="M7.252 0L0 4.104 33.499 63.29l7.252-4.104L7.25 0z" fill="url(#paint1_linear)"/><path d="M48.43 62.816a24.129 24.129 0 1 0 .001 48.258 24.129 24.129 0 0 0 0-48.258z" fill="#48BF61"/><path d="M17.76 134.982v-2.046l1.21-1.375 2.299 3.421h1.628l-3.047-4.422 2.893-3.278h-1.617l-3.366 4.004v-4.004h-1.342v4.004l-3.366-4.004h-1.617l2.882 3.278-3.036 4.422h1.628l2.299-3.421 1.21 1.375v2.046h1.342zm8.799.132c1.067 0 1.826-.429 2.376-1.089l-.781-.693c-.462.451-.924.693-1.573.693-.858 0-1.529-.528-1.672-1.474h4.268c.011-.066.022-.286.022-.374 0-1.672-.935-3.124-2.783-3.124-1.661 0-2.838 1.364-2.838 3.025 0 1.815 1.298 3.036 2.981 3.036zm-1.661-3.443c.121-.902.693-1.529 1.507-1.529.88 0 1.386.671 1.474 1.529h-2.981zm5.638 3.311h1.33v-2.343h2.564v2.343h1.33v-5.808h-1.33v2.354h-2.563v-2.354h-1.331v5.808zm9.58.132c1.133 0 1.804-.451 2.376-1.089l-.803-.792c-.418.429-.88.726-1.507.726-1.023 0-1.738-.836-1.738-1.87v-.022c0-1.012.704-1.848 1.672-1.848.671 0 1.1.297 1.507.726l.825-.891c-.539-.594-1.22-1.001-2.32-1.001-1.739 0-3.015 1.386-3.015 3.036v.022c0 1.65 1.276 3.003 3.003 3.003zm3.547-.132h1.32v-1.397l.946-1.001 1.76 2.398h1.573l-2.442-3.366 2.255-2.442h-1.562l-2.53 2.783v-2.783h-1.32v5.808zm6.52 0h1.254l2.761-3.872v3.872h1.287v-5.808h-1.254a843.077 843.077 0 0 0-2.75 3.894v-3.894h-1.298v5.808zm9.634-6.479c.935 0 1.573-.594 1.716-1.529l-.803-.154c-.143.462-.418.748-.913.748-.495 0-.77-.286-.913-.748l-.814.154c.143.935.792 1.529 1.727 1.529zm-2.662 6.479h1.254l2.76-3.872v3.872h1.288v-5.808h-1.254c-.924 1.298-1.837 2.596-2.75 3.894v-3.894h-1.298v5.808zm12.25.132c1.407 0 2.331-.792 2.331-1.771 0-.748-.429-1.188-1.056-1.408.506-.22.913-.616.913-1.32 0-.902-.89-1.562-2.167-1.562-.946 0-1.77.319-2.365.836l.594.836c.44-.385 1.045-.594 1.65-.594.55 0 .957.264.957.66 0 .44-.396.759-1.023.759h-.715v.957h.715c.76 0 1.177.297 1.177.726 0 .484-.495.803-1.1.803-.66 0-1.309-.253-1.826-.693l-.627.88c.682.583 1.507.891 2.541.891zm8.586-.132v-3.443c0-1.551-.836-2.453-2.552-2.453-.946 0-1.573.198-2.211.484l.363 1.067c.528-.22 1.012-.363 1.66-.363.925 0 1.43.44 1.43 1.243v.11a4.889 4.889 0 0 0-1.605-.242c-1.353 0-2.354.616-2.354 1.903 0 1.188.968 1.815 2.068 1.815.88 0 1.485-.363 1.88-.836v.715h1.32zm-1.287-2.101c0 .726-.66 1.221-1.54 1.221-.627 0-1.122-.308-1.122-.858 0-.583.495-.924 1.33-.924.518 0 .99.099 1.332.231v.33zm2.826 2.167c1.287 0 2.079-.517 2.079-4.73h1.815v4.664h1.33v-5.808h-4.388c0 4.422-.462 4.752-1.133 4.752-.088 0-.297-.022-.385-.044l-.1 1.089c.199.033.573.077.782.077zM48.712 82.95a4.475 4.475 0 1 0 0-8.95 4.475 4.475 0 0 0 0 8.95zM55.175 100.178a.87.87 0 0 0 .79-1.235l-6.463-13.977a.87.87 0 0 0-1.58 0L41.46 98.943a.87.87 0 0 0 .79 1.235h12.925z" fill="#fff"/><defs><linearGradient id="paint0_linear" x1="60.261" y1="61.173" x2="93.586" gradientUnits="userSpaceOnUse"><stop stop-color="#89CB97"/><stop offset=".509" stop-color="#69C57D" stop-opacity=".8"/><stop offset="1" stop-color="#48BF61" stop-opacity="0"/></linearGradient><linearGradient id="paint1_linear" x1="3.626" y1="2.052" x2="37.125" y2="61.237" gradientUnits="userSpaceOnUse"><stop stop-color="#48BF61" stop-opacity="0"/><stop offset=".51" stop-color="#69C57D" stop-opacity=".8"/><stop offset="1" stop-color="#89CB97"/></linearGradient></defs></svg>