<?xml version="1.0" encoding="utf-8"?><svg xmlns="http://www.w3.org/2000/svg" xmlns:xlink="http://www.w3.org/1999/xlink"><symbol viewBox="0 0 15 12" id="back" xmlns="http://www.w3.org/2000/svg"><path fill-rule="evenodd" clip-rule="evenodd" d="M0 8.571L6.917 12V9.771C14.5 9.771 15 7.971 15 0c-1.417 7.543-1.75 7.286-8.083 7.286V5.143L0 8.57z"/></symbol><symbol viewBox="0 0 19 16" id="back1" xmlns="http://www.w3.org/2000/svg"><path d="M3.863 15.643H2.99v-2.478h.873v2.478zm-3.369 0c-.24 0-.431-.169-.431-.379v-1.721c0-.231.191-.378.431-.378h.41v2.478h-.41zm4.737 0H4.47v-2.478h.762v2.478zm-2.848 0H1.51v-2.478h.873v2.478zm4.327 0h-.874v-2.478h.873v2.478z"/><path d="M14.754 15.643H7.316v-2.478h7.462c1.055 0 1.415-.315 1.415-1.24V6.059c0-.923-.36-1.238-1.415-1.238H6.406v1.973c0 .337-.432.42-.6.295L.192 3.833C.072 3.77 0 3.686 0 3.56c0-.105.072-.21.192-.294L5.806.074c.24-.147.6-.084.6.273v2.016h8.348C17.369 2.363 19 3.812 19 6.1v5.805c0 2.289-1.631 3.738-4.246 3.738z"/></symbol><symbol viewBox="0 0 20 20" id="calend" xmlns="http://www.w3.org/2000/svg"><path fill-rule="evenodd" clip-rule="evenodd" d="M13.333 1.667h-1.667v1.667h1.667V1.667zm-2.5 9.166H9.166a.833.833 0 0 0 0 1.666h1.667a.833.833 0 0 0 0-1.666zM10 5c.46 0 .833-.373.833-.833V.833a.833.833 0 0 0-1.666 0v3.334c0 .46.373.833.833.833zm5.833 9.167h-1.667a.833.833 0 0 0 0 1.666h1.667a.833.833 0 0 0 0-1.666zm0-3.334h-1.667a.833.833 0 0 0 0 1.666h1.667a.833.833 0 0 0 0-1.666zM15 5c.46 0 .833-.373.833-.833V.833a.833.833 0 0 0-1.666 0v3.334c0 .46.373.833.833.833zm-.833 4.167h1.667a.833.833 0 0 0 0-1.666h-1.667a.833.833 0 0 0 0 1.666zm-5 0h1.667a.833.833 0 0 0 0-1.666H9.167a.833.833 0 0 0 0 1.666zm-3.334 5H4.166a.833.833 0 0 0 0 1.666h1.667a.833.833 0 0 0 0-1.666zm12.501-12.5h-1.667v1.667h1.667v15H1.666V3.333h1.667V1.667H1.666C.746 1.667 0 2.413 0 3.334v15c0 .92.746 1.667 1.666 1.667h16.667c.92 0 1.667-.746 1.667-1.667V3.333c0-.92-.746-1.666-1.666-1.666zM5.833 10.833H4.166a.833.833 0 0 0 0 1.666h1.667a.833.833 0 0 0 0-1.666zm2.5-9.166H6.667v1.667h1.667V1.667h-.001zm2.5 12.5H9.166a.833.833 0 0 0 0 1.666h1.667a.833.833 0 0 0 0-1.666zm-6.667-5h1.667a.833.833 0 0 0 0-1.666H4.166a.833.833 0 0 0 0 1.666zM5 5c.46 0 .833-.373.833-.833V.833a.833.833 0 0 0-1.667 0v3.334c0 .46.374.833.834.833z"/></symbol><symbol viewBox="0 0 57 67" id="cheap" xmlns="http://www.w3.org/2000/svg"><path d="M28.227.69c-4.886 0-8.873 3.987-8.873 8.872 0 4.886 3.987 8.873 8.873 8.873 4.885 0 8.873-3.987 8.873-8.873C37.1 4.677 33.112.69 28.227.69zm0 2.535a6.319 6.319 0 0 1 6.338 6.337 6.319 6.319 0 0 1-6.338 6.338 6.319 6.319 0 0 1-6.338-6.338 6.319 6.319 0 0 1 6.338-6.337zm15.112 17.041a1.268 1.268 0 0 0-.476.12l-7.823 3.901a27.848 27.848 0 0 0-6.813-.852c-10.576 0-19.634 5.825-22.123 13.904-1.702-.229-3.229-1.479-3.229-3.763a1.267 1.267 0 1 0-2.535 0c0 3.413 2.462 5.716 5.21 6.219a15.11 15.11 0 0 0-.14 2.02c0 5.467 3.02 10.3 7.606 13.627v9.19a1.268 1.268 0 0 0 1.267 1.267h8.24a1.268 1.268 0 0 0 1.228-.93l1.445-5.012c1 .11 1.991.238 3.03.238 1.04 0 2.032-.129 3.031-.238l1.446 5.011a1.268 1.268 0 0 0 1.228.93h8.239a1.267 1.267 0 0 0 1.267-1.267v-9.15c2.456-1.774 4.457-3.978 5.784-6.496l5.942-1.505a1.268 1.268 0 0 0 .95-1.228v-8.24a1.268 1.268 0 0 0-.95-1.228l-5.586-1.406c-1.271-2.744-3.32-5.132-5.902-7.05l1.01-6.616a1.268 1.268 0 0 0-1.346-1.446zm-1.526 3.486l-.752 4.912a1.269 1.269 0 0 0 .535 1.228c2.747 1.886 4.815 4.329 5.941 7.05a1.268 1.268 0 0 0 .852.754l5.19 1.307v6.258l-5.507 1.387a1.268 1.268 0 0 0-.832.673c-1.192 2.5-3.194 4.75-5.783 6.496a1.269 1.269 0 0 0-.555 1.05v8.497h-6l-1.466-5.09a1.268 1.268 0 0 0-1.407-.911 25.936 25.936 0 0 1-3.802.297c-1.296 0-2.57-.114-3.803-.297a1.268 1.268 0 0 0-1.406.91l-1.466 5.09h-6.001v-8.496a1.27 1.27 0 0 0-.555-1.05c-4.373-2.95-7.05-7.251-7.05-12.002 0-8.588 8.924-15.844 20.28-15.844 2.342 0 4.585.3 6.675.87.303.089.628.06.911-.078l6.002-3.01zm-13.586 4.12c-2.901 0-5.651.531-8.081 1.505a1.271 1.271 0 1 0 .95 2.357c2.12-.85 4.547-1.327 7.13-1.327 1.67 0 3.274.201 4.774.574a1.273 1.273 0 1 0 .594-2.475 22.168 22.168 0 0 0-5.367-.634zm12.675 7.605a2.535 2.535 0 1 0 0 5.07 2.535 2.535 0 0 0 0-5.07z"/></symbol><symbol viewBox="0 0 20 20" id="close" xmlns="http://www.w3.org/2000/svg"><path fill-rule="evenodd" clip-rule="evenodd" d="M9.985 0c5.525 0 9.985 4.491 9.985 10 0 5.534-4.46 10-9.985 10C4.485 20 0 15.534 0 10 0 4.491 4.484 0 9.985 0zm5.203 14.218L10.976 10l4.212-4.194a.702.702 0 0 0-.991-.993L9.985 9.008 5.798 4.814a.702.702 0 0 0-.991.992L8.994 10l-4.187 4.218a.702.702 0 0 0 .991.992l4.187-4.217 4.212 4.218a.702.702 0 0 0 .99-.993z"/></symbol><symbol viewBox="0 0 13 13" id="close1" xmlns="http://www.w3.org/2000/svg"><path d="M7.936 6.498l4.763-4.763A1.016 1.016 0 1 0 11.262.298L6.498 5.06 1.735.298A1.016 1.016 0 1 0 .298 1.735L5.06 6.498.298 11.262a1.016 1.016 0 0 0 0 1.437c.191.191.451.301.711.301.26 0 .52-.096.712-.301l4.777-4.763 4.764 4.763c.191.191.451.301.711.301.26 0 .52-.096.712-.301a1.016 1.016 0 0 0 0-1.437l-4.75-4.764z"/></symbol><symbol viewBox="0 0 16 14" id="comments" xmlns="http://www.w3.org/2000/svg"><path d="M14.174 0H1.826C.828 0 0 .78 0 1.728v7.986c0 .949.828 1.719 1.826 1.719h5.951l4.206 2.508a.439.439 0 0 0 .427.01.394.394 0 0 0 .216-.348v-2.17h1.548c.998 0 1.826-.77 1.826-1.719V1.728C16 .78 15.172 0 14.174 0zm.991 9.714c0 .51-.452.926-.991.926h-1.969a.405.405 0 0 0-.414.396v1.85L8.121 10.7a.439.439 0 0 0-.222-.06H1.826c-.539 0-.991-.416-.991-.925V1.728c0-.512.452-.935.991-.935h12.348c.539 0 .991.423.991.935v7.986z"/></symbol><symbol viewBox="0 0 129 129" id="down-arrow" xmlns="http://www.w3.org/2000/svg"><path d="M121.3 34.6c-1.6-1.6-4.2-1.6-5.8 0l-51 51.1-51.1-51.1c-1.6-1.6-4.2-1.6-5.8 0-1.6 1.6-1.6 4.2 0 5.8l53.9 53.9c.8.8 1.8 1.2 2.9 1.2 1 0 2.1-.4 2.9-1.2l53.9-53.9c1.7-1.6 1.7-4.2.1-5.8z"/></symbol><symbol viewBox="0 0 66 66" id="etc" xmlns="http://www.w3.org/2000/svg"><path d="M6.703 39.703a6.703 6.703 0 1 0 0-13.406 6.703 6.703 0 0 0 0 13.406zm0-11.344a4.64 4.64 0 1 1 0 9.28 4.64 4.64 0 0 1 0-9.28zm33-21.656a6.703 6.703 0 1 0-13.405 0 6.703 6.703 0 0 0 13.405 0zm-11.344 0a4.64 4.64 0 1 1 9.28 0 4.64 4.64 0 0 1-9.28 0zm30.938 19.594a6.703 6.703 0 1 0 0 13.405 6.703 6.703 0 0 0 0-13.405zm0 11.344a4.64 4.64 0 1 1 0-9.28 4.64 4.64 0 0 1 0 9.28zM39.703 59.297a6.703 6.703 0 1 0-13.405 0 6.703 6.703 0 0 0 13.405 0zm-11.344 0a4.64 4.64 0 1 1 9.28 0 4.64 4.64 0 0 1-9.28 0zM33 42.797a9.797 9.797 0 1 0 0-19.594 9.797 9.797 0 0 0 0 19.594zm0-16.5a6.703 6.703 0 1 1 0 13.406 6.703 6.703 0 0 1 0-13.406z"/><path d="M15.984 33a17.016 17.016 0 1 0 34.032 0 17.016 17.016 0 0 0-34.032 0zM33 21.14a11.86 11.86 0 1 1 0 23.72 11.86 11.86 0 0 1 0-23.72z"/><path d="M33 37.64a4.64 4.64 0 1 0 0-9.28 4.64 4.64 0 0 0 0 9.28z"/></symbol><symbol viewBox="0 0 49 74" id="event" xmlns="http://www.w3.org/2000/svg"><g filter="url(#aja)"><path d="M10.078 59.028c-.618 0-1.03.412-1.03 1.03v1.133c0 .618.412 1.03 1.03 1.03.618 0 1.03-.412 1.03-1.03v-1.133c0-.618-.515-1.03-1.03-1.03z"/><path d="M43.97 24.518c.618 0 1.03-.413 1.03-1.03V1.03C45 .412 44.588 0 43.97 0H12.24c-.618 0-1.03.412-1.03 1.03v22.457c0 .619.412 1.03 1.03 1.03h12.57v5.048c-.515-.206-1.133-.309-1.957-.309-1.34 0-2.473.31-2.576.31a1.118 1.118 0 0 0-.824.823c-1.751 8.448-4.12 11.332-5.357 12.26-.515-.928-1.545-1.546-2.678-1.546H7.09c-1.648 0-3.09 1.34-3.09 3.09V62.84c0 1.648 1.34 3.09 3.09 3.09h4.327c1.236 0 2.266-.72 2.781-1.75 6.697 1.648 9.684.617 21.737.927 2.163.206 4.12-1.34 4.326-3.503.103-1.133-.206-2.266-.927-3.09a3.768 3.768 0 0 0 1.648-2.782c.103-1.133-.206-2.266-.927-3.09a3.768 3.768 0 0 0 1.648-2.782c.103-1.133-.206-2.163-.927-3.09a3.768 3.768 0 0 0 1.649-2.782c.309-2.163-1.237-4.12-3.4-4.43h-7.52v-15.04H43.97zM13.27 2.06h29.772v20.397H13.27V2.06zm-1.75 61.81H7.192c-.515 0-1.03-.413-1.03-1.03V44.09c0-.515.412-1.03 1.03-1.03h4.327c.515 0 1.03.412 1.03 1.03v18.75c-.103.617-.515 1.03-1.03 1.03zm28.843-19.883c-.103 1.03-1.03 1.752-2.06 1.649h-8.859c-.618 0-1.03.412-1.03 1.03 0 .618.412 1.03 1.03 1.03h8.55c1.03.103 1.751 1.03 1.648 2.163-.103 1.03-1.03 1.752-2.163 1.648h-6.284c-.618 0-1.03.413-1.03 1.03 0 .619.412 1.03 1.03 1.03h6.078c1.03.104 1.751 1.031 1.648 2.061-.103 1.03-1.03 1.751-2.06 1.648h-3.709c-.618 0-1.03.412-1.03 1.03 0 .619.412 1.03 1.03 1.03h3.606a1.9 1.9 0 0 1 1.545 2.061c-.103 1.03-1.03 1.751-2.06 1.648h-.103c-11.847-.412-14.834.824-21.53-.927V44.812c1.545-.825 4.635-3.606 6.799-13.392.412-.103.927-.103 1.442-.103.927 0 1.442.206 1.648.309.206.206.309.412.309.824v.103c.206 1.648-.618 5.047-1.751 7.829-.103.309-.103.721.103.927.206.206.515.412.824.412h14.834c.927.206 1.648 1.133 1.545 2.266zm-11.022-4.223h-3.915c.721-1.958 1.545-4.945 1.34-7.211V24.62h2.575v15.143z"/><path d="M33.257 17.718c.618 0 1.03-.412 1.03-1.03 0-.618-.412-1.03-1.03-1.03H22.955c-.618 0-1.03.412-1.03 1.03 0 .618.412 1.03 1.03 1.03h10.302zm5.15-5.459c0-.618-.412-1.03-1.03-1.03H18.834c-.618 0-1.03.412-1.03 1.03 0 .618.412 1.03 1.03 1.03h18.543c.618 0 1.03-.412 1.03-1.03zM22.955 8.86h10.404c.619 0 1.03-.412 1.03-1.03 0-.619-.411-1.03-1.03-1.03H22.955c-.618 0-1.03.411-1.03 1.03 0 .618.412 1.03 1.03 1.03z"/></g><defs><filter id="aja" x="0" y="0" width="49" height="73.93" filterUnits="userSpaceOnUse" color-interpolation-filters="sRGB"><feFlood flood-opacity="0" result="BackgroundImageFix"/><feColorMatrix in="SourceAlpha" values="0 0 0 0 0 0 0 0 0 0 0 0 0 0 0 0 0 0 127 0"/><feOffset dy="4"/><feGaussianBlur stdDeviation="2"/><feColorMatrix values="0 0 0 0 0 0 0 0 0 0 0 0 0 0 0 0 0 0 0.25 0"/><feBlend in2="BackgroundImageFix" result="effect1_dropShadow"/><feBlend in="SourceGraphic" in2="effect1_dropShadow" result="shape"/></filter></defs></symbol><symbol viewBox="0 0 21 17" id="f1" xmlns="http://www.w3.org/2000/svg"><path d="M20.425 5.95h-8.747a.448.448 0 0 0 0 .894h3.22a1.19 1.19 0 0 0-.087.522c.08 1.222-.327 2.324-.966 2.622-.548.255-1.398-.118-2.334-1.017-.027-.025-.058-.043-.087-.065v2.968c.776.43 1.467.578 2.045.578a3.254 3.254 0 0 0 1.382-.3c1.57-.73 2.489-2.67 2.341-4.94a1.16 1.16 0 0 0-.089-.367h3.323a.447.447 0 0 0 0-.895zm-12.907.318a3.045 3.045 0 1 0 0-6.09 3.045 3.045 0 0 0 0 6.09zm-.335.978l-.76-.438V8.56l.76-.438.442-.255.442.256.76.437V6.808l-.76.438-.442.255-.442-.255zm-3.949 8.863c.137-.783.31-1.52.527-2.19V9.024c-1.47 1.558-2.487 4.008-2.97 7.084h2.443z"/><path d="M9.954 7.84l-.93 1.41-1.399 2.118L6.227 9.25l-.942-1.428a6.132 6.132 0 0 0-1.16.842v7.445h6.934v-3.282a.05.05 0 0 1 .002.005V8.64a6.165 6.165 0 0 0-.97-.721c-.045-.028-.091-.054-.137-.08z"/></symbol><symbol viewBox="0 0 20 13" id="f2" xmlns="http://www.w3.org/2000/svg"><path d="M4.693 5.958V7.11c0 .047.04.086.086.086h10.605c.047 0 .086-.04.086-.086V5.958c0-1.283.957-2.335 2.192-2.506V2.1c0-.86-.7-1.561-1.56-1.561H4.062C3.2.539 2.5 1.239 2.5 2.1v1.352a2.536 2.536 0 0 1 2.193 2.506z"/><path d="M18.011 4.111a1.848 1.848 0 0 0-1.845 1.847v1.153c0 .43-.35.781-.781.781H4.78A.782.782 0 0 1 4 7.111V5.958a1.848 1.848 0 0 0-1.846-1.847A1.848 1.848 0 0 0 .309 5.958v1.153a4.476 4.476 0 0 0 2.956 4.202c.072.604.58 1.072 1.202 1.072.526 0 .969-.335 1.139-.802h8.954c.17.467.613.802 1.138.802a1.21 1.21 0 0 0 1.202-1.072 4.476 4.476 0 0 0 2.957-4.202V5.958a1.848 1.848 0 0 0-1.846-1.847z"/></symbol><symbol viewBox="0 0 17 19" id="f3" xmlns="http://www.w3.org/2000/svg"><path d="M16.614 14.267a.619.619 0 0 0-.598-.666c-.315-.016-.946.325-1.128.406-.631.309-1.494.78-2.059 1.17-.033.033-.1.065-.133.082a2.159 2.159 0 0 1-.83.325c-1.66.34-4.066.373-4.066.373h-.133c-.1 0-.2-.065-.216-.162-.016-.114.067-.211.183-.228l3.585-.34c.399-.05.714-.407.664-.813a.773.773 0 0 0-.813-.667l-3.187-.032c-.216 0-.565-.05-.764-.114-2.058-.585-3.203-.033-3.817.227a.701.701 0 0 0-.681-.34l-1.394.113c-.465.032-.797.406-.764.829l.216 2.99c.033.439.432.764.88.731l1.377-.097a.73.73 0 0 0 .631-.439l6.025.26c.665.065 1.295-.016 1.893-.309l.166-.08 4.564-2.618c.216-.13.382-.357.399-.6zm-14.557 3.17c-.266 0-.465-.196-.465-.44 0-.243.216-.438.465-.438.265 0 .464.195.464.438 0 .244-.199.44-.464.44zm10.556-2.796v-.244c-.016-.097-.033-.211-.066-.309v-.016c.481-.26 1.428-.699 1.942-.894.266-.097.515-.097.747.065-.183.065-.349.147-.514.228-.532.26-1.494.764-1.96 1.089a.68.68 0 0 0-.149.081zm-.05-1.186l-.232.13c-.016.016-.05.032-.066.048a1.301 1.301 0 0 0-.365-.292c.315-.163 1.029-.39 1.344-.504.25-.098.498-.098.73.049-.348.146-1.062.39-1.41.569zM9.005 1.963v6.4h-.994v-6.4c-2.382.438-4.402 3.977-4.402 8.26h-.994c0-5.057 2.627-9.3 5.893-9.3 3.244 0 5.75 4.2 5.75 9.3h-.993c0-4.32-1.92-7.82-4.26-8.26z"/></symbol><symbol viewBox="0 0 17 17" id="f4" xmlns="http://www.w3.org/2000/svg"><path d="M8.455 16.818c-2.904.51-3.86-.889-4.853-2.344C2.87 13.396 2.122 12.3.36 12.206l-.337-.02-.02-.34C-.033 10.788.192 9.03 1.448 8.69c-.545-.89-.62-1.683-.414-2.344.413-1.38 2.38-2.666 3.71-2.269 2.118.624 2.643 2.703 3.036 4.745-.28 0-.468.019-.468.019l.056.567s.188-.019.525-.019v.038l.206-.038c1.237-.019 3.748.113 5.022 1.361l.394-.416a2.323 2.323 0 0 0-.413-.34c.281-1.323.787-3.743 1.162-5.576L17 5.968l-.056.264c-.88 4.367-1.33 5.255-2.942 8.506l-.131.265c-.338.7-.9 1.323-1.8 1.682-.843.34-2.004.435-3.616.133zm-.094-8.015c-.487-2.495-1.33-3.8-1.724-4.31L5.682.467l.3-.113c.018 0 2.154-.889 3.935.15l.018.02.338 8.43a12.413 12.413 0 0 0-1.912-.15zm2.474.246l-.319-7.712 3.56 1.115c-.28 1.36-1.067 5.255-1.48 7.202-.543-.284-1.162-.473-1.761-.605zm-8.583-.454c1.406-.019 2.624.662 3.205 2.098l.075.19.187-.02c.019 0 2.492-.189 3.354 2.439l.338-.662c-.918-1.947-2.849-2.325-3.523-2.344-.375-.812-1.574-2.022-2.511-2.155.337-.586 1.087-1.115 1.574-1.55-1.462.549-2.492 1.305-2.699 2.004z"/></symbol><symbol viewBox="0 0 26 19" id="family" xmlns="http://www.w3.org/2000/svg"><path d="M1.529 17.662c0 .369.316.633.633.633.316 0 .632-.317.632-.633v-4.903c0-.211-.105-.37-.21-.527-.74-.633-1.214-1.582-1.214-2.532a3.308 3.308 0 0 1 3.321-3.322A3.308 3.308 0 0 1 8.013 9.7 3.171 3.171 0 0 1 6.8 12.23c-.158.106-.21.317-.21.528v4.903c0 .369.316.633.632.633a.642.642 0 0 0 .633-.633v-4.587c.896-.896 1.423-2.056 1.423-3.321 0-1.793-1.002-3.322-2.53-4.113.685-.58 1.107-1.423 1.107-2.425C7.856 1.476 6.432 0 4.64 0 2.9 0 1.424 1.423 1.424 3.216c0 .949.421 1.793 1.107 2.425C1.054 6.432 0 7.961 0 9.754c0 1.265.527 2.478 1.423 3.321v4.587h.106zM4.745 1.318a1.89 1.89 0 0 1 1.898 1.898 1.89 1.89 0 0 1-1.898 1.898 1.89 1.89 0 0 1-1.898-1.898c0-1.054.896-1.898 1.898-1.898zm20.773 6.485c0-1.74-1.424-3.216-3.216-3.216-1.74 0-3.216 1.423-3.216 3.216 0 1.054.527 1.95 1.265 2.53-.738.58-1.16 1.424-1.16 2.426 0 .79.317 1.581.897 2.161v2.742c0 .369.316.633.632.633.37 0 .633-.317.633-.633v-3.005c0-.211-.106-.37-.21-.527-.423-.317-.634-.844-.634-1.371 0-1.002.791-1.793 1.793-1.793 1.002 0 1.793.791 1.793 1.793 0 .527-.211 1.054-.633 1.37-.158.106-.211.317-.211.528v3.005c0 .369.316.633.633.633a.641.641 0 0 0 .632-.633v-2.689c.58-.58.897-1.37.897-2.162 0-1.001-.475-1.845-1.16-2.425.738-.632 1.265-1.529 1.265-2.583zM22.302 9.7a1.89 1.89 0 0 1-1.898-1.898 1.89 1.89 0 0 1 1.898-1.898A1.89 1.89 0 0 1 24.2 7.803 1.89 1.89 0 0 1 22.302 9.7zm-5.905-2.688a3.195 3.195 0 0 0 1.107-2.425c0-1.74-1.423-3.216-3.216-3.216-1.74 0-3.216 1.423-3.216 3.216 0 1.002.422 1.845 1.107 2.425-1.265.738-2.109 2.056-2.109 3.638a4.2 4.2 0 0 0 1.16 2.9l-1.054 3.954a.691.691 0 0 0 .421.843.691.691 0 0 0 .844-.422l1.265-4.323c.053-.263 0-.527-.21-.685-.633-.527-1.055-1.37-1.055-2.214a2.835 2.835 0 0 1 2.847-2.847 2.835 2.835 0 0 1 2.847 2.847c0 .843-.369 1.634-1.054 2.214-.211.158-.264.422-.211.685l1.265 4.323c.105.264.37.475.633.475h.21c.37-.105.528-.474.422-.844l-1.16-3.954a4.194 4.194 0 0 0 1.16-2.9c.106-1.634-.738-3.005-2.003-3.69zm-2.056-.58a1.89 1.89 0 0 1-1.898-1.898 1.89 1.89 0 0 1 1.898-1.898 1.89 1.89 0 0 1 1.898 1.898c-.053 1.054-.897 1.898-1.898 1.898z"/></symbol><symbol viewBox="0 0 16 15" id="favorite" xmlns="http://www.w3.org/2000/svg"><path d="M14.65 1.35C13.83.534 12.784.172 11.72.172c-1.313 0-2.664.552-3.672 1.541 0 0-.02.02-.038.02-.02 0-.02 0-.039-.02C7.058.856 5.88 0 4.681 0A4.667 4.667 0 0 0 1.37 1.37a4.708 4.708 0 0 0 0 6.64l6.24 5.878a.614.614 0 0 0 .4.152.654.654 0 0 0 .399-.152l6.24-5.878A4.767 4.767 0 0 0 16 4.66a4.647 4.647 0 0 0-1.35-3.31z"/></symbol><symbol viewBox="0 0 11 16" id="fbnew" xmlns="http://www.w3.org/2000/svg"><path d="M10.053.276v3.276H7.104a.657.657 0 0 0-.655.655v1.965h3.276v3.276H6.45V16H3.173V9.448H.553V6.172h2.62V4.207A3.93 3.93 0 0 1 6.777.276h3.276z"/></symbol><symbol viewBox="0 0 612 612" id="feed" xmlns="http://www.w3.org/2000/svg"><path d="M577.358 46.188H34.642C15.508 46.188 0 61.696 0 80.83v334.869c0 19.133 15.508 34.641 34.642 34.641h35.6l62.54 115.473 62.54-115.473H577.36c19.134 0 34.642-15.508 34.642-34.641V80.83c-.002-19.134-15.51-34.642-34.644-34.642zm11.547 346.415c0 19.135-15.508 34.643-34.642 34.643H179.212l-45.646 79.051-45.634-79.051H57.736c-19.134 0-34.642-15.508-34.642-34.643V103.924c0-19.134 15.508-34.642 34.642-34.642h496.528c19.134 0 34.642 15.508 34.642 34.642v288.679z"/></symbol><symbol viewBox="0 0 12 16" id="fire" xmlns="http://www.w3.org/2000/svg"><path opacity=".9" d="M.164 11.98c.361 2.06 2.087 3.09 4.026 3.605-.46-.326-.641-.859-.46-1.683.23-.996.312-1.545-.23-2.112 1.33.533 1.774 1.202 1.626 1.7.378-.944.444-2.644-.197-3.451.887.566 2.251 1.786 2.07 3.245.428-.292.378-1.27 1.397-1.717-.657.824-.214.944.099 2.524.148.756-.115 1.22-.46 1.46 1.051-.292 2.71-1.065 3.138-2.627 1.035-3.795-2.695-4.585-.904-7.195-1.61.189-2.234 1.322-2.514 2.679-.673-1.614-1.43-5.014.625-8.276-5.521 3.245-3.895 7.76-5.11 8.997.345-1.545.18-2.885-2.07-3.572C2.135 8.064-.23 9.764.163 11.98z"/></symbol><symbol viewBox="0 0 119 25" id="gamidov" xmlns="http://www.w3.org/2000/svg"><g opacity=".8" clip-path="url(#ata)"><path d="M18.002 11.534c.57-.539 1.031-.794 1.357-.61.354.242-.175-.88-1.246-.977.355-.09 1.857-.09 2.771.041-.146-.279-2.099-.726-4.325-.524-1.57.147-8.976 1.478-8.685 3.176.114.652.928 1.28.894 1.088-.164-.939 4.622-2.909 8.337-3.632-2.636 3.08-8.723 9.703-12.841 10.458-1.74.313-2.334-.491-2.453-1.627-.713-5.915 8.588-16.43 13.854-16.903.844-.077 1.776.23 1.926 1.072.292 1.668-2.116 3.93-3.48 4.052-.115.01.262-.841.353-.985-.532.296-1.09 1.11-1.02 1.551.05.287.625.781 1.067.74 2.077-.173 4.366-3.015 3.98-5.2-.248-1.4-1.881-1.701-2.822-1.616C9.041 2.234-1.21 12.212.116 19.396c.328 1.75 1.696 2.747 3.596 2.46 3.23-.486 7.406-4.464 9.978-7.13-1.391 2.286-2.899 6.746-2.384 9.697.064.364.338.592.53.576.078-.008.09-.048.084-.086-.006-.039-.066-.033-.09-.167-.05-.287-.044-1.145.173-2.118.592-2.72 2.838-8.122 6-11.094zm25.642-4.042c.174-.346.918-1.213 1.221-1.376a.566.566 0 0 1 .4-.056c.077 0-.09-.284-.292-.46-.3-.264-.79-.61-1.222-.513-.473.198-.982 1.51-.865 2.07.076.337.55.704.758.335z"/><path d="M68.66 4.654c-1.354 2.05-4.402 6.335-5.913 7.717.032-.256.125-1.607.62-2.898.458-1.269.875-2.3 1.252-2.293.154-.015.187.06.196 0-.111-.517-.973-1.198-1.43-1.138a.36.36 0 0 0-.23.138c-.328.368-.66 1.026-.977 1.87a3.37 3.37 0 0 1-.576.159c-.758.127-1.296-.272-1.766-.834a.663.663 0 0 0-.475-.148c-.247.043-.722.67-.745.866-.024.197.25.756.377.92-.942 2.069-3.14 5.383-4.299 5.035-1.16-.348 1.715-7.183 5.192-7.497.134-.012.291.013.49.015.077-.008.134-.012.028-.06-.155-.104-.5-.288-1.229-.223-2.3.209-4.958 2.27-5.863 4.617-1.109 1.319-2.545 2.905-3.209 3.016.267-1.25 1.357-3.92 2.6-6.6.693-1.48 1.28-2.687 1.939-3.817.628-1.104 1.595-3.022 2.302-2.774.382.179-.583-.863-1.646-.708-.174.015-.397.19-.643.443-.394.428-.823 1.09-1.28 1.892-.715 1.369-1.624 3.066-2.49 5.014a1.243 1.243 0 0 0-.903-.25c-1.152.103-2.349.834-3.656 1.946a9.396 9.396 0 0 0-1.825 2.119c-1.128 1.38-2.727 3.209-3.594 3.528.09-.806 1.95-5.413 2.75-5.408.158 0 .27.094.257.017-.084-.48-.989-1.183-1.429-1.137a.372.372 0 0 0-.268.147c-.567.592-1.42 2.134-2.058 3.616-1.118 1.345-2.539 2.92-3.389 3.204-.146-.843 2.112-5.273 2.524-5.699.212-.233-.605-1.21-1.02-1.174-.807.074-3.83 3.948-5.232 6.391-.119-.67 1.122-3.586 1.918-4.71.16-.208-.644-1.11-1.028-1.075-.04 0-.078.01-.112.03-.776.244-4.264 4.356-5.205 6.095.31-.787 1.556-3.45 2.215-4.463.196-.33.438-.545.569-.538.131.008.25.093.238.018-.085-.48-.947-1.16-1.428-1.118a.338.338 0 0 0-.232.118 5.06 5.06 0 0 0-.614.834c-.453.743-.86 1.513-1.219 2.307-1.116 1.37-3.005 3.645-4.018 4.046-.015-.226.01-.453.076-.67.36-1.278 1.72-3.522 1.85-3.34.036-.237-.804-1.232-1.154-1.006-.438.312-1.467 1.627-1.759 1.97-.85.933-3.197 3.105-3.791 3.379a.157.157 0 0 1-.135.011c-.19-.08.824-2.624 2.374-4.341 1.062-1.167 2.322-2.098 3.426-2.257.569-.088.984.166 1.086.74.036.24.005.485-.088.708-.017.02.024.037.06.015.17-.28.243-.609.206-.935-.16-.9-1.166-1.12-1.904-1.055-3.534.319-7.175 4.989-6.806 7.078.067.383.695 1.066 1.072 1.208a.602.602 0 0 0 .173.03c.807-.073 3.983-3.63 4.457-4.257a7.482 7.482 0 0 0-.747 2.17 3.119 3.119 0 0 0-.029.723c.061.345.497.715.793.845a.748.748 0 0 0 .348.085c.905-.082 2.683-2.252 4.058-4.14a24.97 24.97 0 0 0-.564 1.503c-.343.925-.329 1.45-.267 1.58.25.524.853 1.072 1.406.887-.313-.11-.292-.5.145-1.183.105-.184.272-.452.534-.847 1.124-1.697 2.592-3.66 4.326-5.004-1.081 1.285-2.071 4.179-1.943 4.907.067.384.79.942 1.059.918.538-.049 1.95-3.549 5.018-6.274-.836 1.01-2.364 4.399-2.172 5.492.066.363.751 1.035 1.192 1.002.729-.066 2.066-1.532 3.287-3.095-.292.822-.462 1.523-.4 1.88.063.356.626.782.95.85.078.008.156.008.234 0 .743-.129 2.014-1.535 3.191-3.045-.23.592-.332 1.114-.273 1.457.08.443.846 1.248 1.192 1.217.998-.09 4.303-4.126 4.881-4.723-.636 1.81-.882 2.843-.815 3.228.074.421.569.785.905.93a.833.833 0 0 0 .648.02c.6-.257 1.79-1.678 2.832-3.046a3.89 3.89 0 0 0-.01 1.35c.084.399.302.755.617 1.007a1.71 1.71 0 0 0 1.11.376c2.056-.068 5.54-3.186 5.61-5.782.195.042.395.05.592.026.35-.033.693-.115 1.02-.244-.075.223-.15.456-.224.696-.51 1.674-.656 3.167-.524 3.953.028.147.584.727.958.672.595-.053 5.22-5.571 6.563-9.197.09-.222-.002-.194-.11-.028zm-18.799 5.12c-1.895 2.158-4.598 4.562-4.851 4.449-.171-.082.76-2.219 2.2-3.993.875-1.13 1.969-2.218 2.737-2.505.257-.1.537-.126.807-.072l-.893 2.122zm25.19 1.57c1.974.347 3.693.913 3.903 2.1.512 2.896-8.044 8.358-12.671 8.775-.616.056-1.618.127-1.75-.62-.251-1.419 3.877-6.095 8.723-7.933-2.488.166-10.354 5.53-9.856 8.365.266 1.515 2.174 1.713 3.443 1.599 5.24-.473 14.08-5.436 13.339-9.634-.375-2.128-2.746-2.633-5.021-3.033-2.035-.362-3.964-.674-4.16-1.786-.348-1.974 4.739-5.645 7.146-6.135.247-.041.493-.083.705-.102.729-.066 1.277.06 1.29.682.059 1.774-3.307 4.251-4.095 4.322-.115.009-.23.02-.25-.095a1.51 1.51 0 0 1 .227-1.035c-.343.265-.946 1.157-.808 1.943.075.422.678.522 1.062.488 2.041-.183 4.94-2.957 4.576-5.242-.242-1.478-1.487-1.793-3.224-1.577-2.789.347-8.537 3.474-7.968 6.695.301 1.687 2.973 1.798 5.39 2.223zm32.348-3.966c.08.344.554.71.763.341.172-.347.917-1.212 1.219-1.377a.576.576 0 0 1 .401-.054c.076-.008-.09-.284-.292-.462-.3-.264-.792-.609-1.222-.511-.477.198-.987 1.51-.869 2.063z"/><path d="M116.939 9.264c-.757.127-1.296-.272-1.766-.834a.653.653 0 0 0-.475-.148c-.247.041-.721.668-.746.865-.024.197.251.76.38.917-.941 2.07-3.146 5.384-4.3 5.04-1.153-.342 1.717-7.183 5.192-7.496.134-.012.292.012.49.013.077 0 .136-.012.029-.06-.154-.103-.5-.286-1.229-.22-2.224.2-4.786 2.14-5.774 4.394-1.101 1.33-2.523 2.905-3.323 3.201.092-.807 1.951-5.413 2.752-5.407.156 0 .269.091.256.014-.084-.479-.988-1.183-1.43-1.135a.357.357 0 0 0-.267.148c-.505.511-1.235 1.795-1.839 3.11-1.124 1.377-2.987 3.564-3.767 3.697.267-1.25 1.356-3.92 2.6-6.602.693-1.479 1.281-2.685 1.94-3.815.624-1.101 1.592-3.024 2.298-2.778.384.179-.583-.864-1.646-.71-.172.016-.396.192-.643.444-.393.424-.823 1.086-1.285 1.888-.715 1.368-1.625 3.067-2.49 5.014a1.24 1.24 0 0 0-.902-.25c-1.152.104-2.35.834-3.656 1.945a9.391 9.391 0 0 0-1.797 2.07c-1.114 1.359-2.693 3.182-3.589 3.548-.095-.536.376-1.962 1.109-3.332.485-.9.9-1.639 1.134-1.972.203-.295.422-.485.557-.496.175 0 .251.093.236.016-.084-.48-.946-1.16-1.407-1.12a.396.396 0 0 0-.252.122c-.945.942-2.071 2.737-2.898 3.804-.765.965-2.42 2.866-3.274 3.332-.097-.556.568-2.31 1.32-3.682.505-.902 1.135-1.971 1.43-1.96.176 0 .269.094.256.017-.088-.498-.968-1.183-1.43-1.137a.363.363 0 0 0-.249.139c-.412.427-1.055 1.42-1.561 2.42-.167.323-.329.664-.479 1.009-1.188 1.455-3.033 3.669-3.713 3.65.245-1.266 1.256-3.83 2.48-6.505.567-1.2 1.032-2.218 1.586-3.162 3.122-.767 6.634-1.103 10.5-1.12.233 0 .146-.033-.01-.057-2.848-.328-6.927-.117-9.993.315.652-1.168 1.516-2.81 2.188-2.571.402.177-.563-.865-1.628-.71-.173.015-.395.19-.643.444-.412.427-.841 1.088-1.995 3.179-2.106.443-4.124 1.17-3.895 2.024.166.61.884.914 1.192.887-.55-.242.42-1.265 2.18-1.793a38.606 38.606 0 0 0-1.346 2.738c-1.718 3.854-2.25 5.817-2.148 6.385a.493.493 0 0 0 .108.282c.219.296.501.537.826.704a.692.692 0 0 0 .627.023c.713-.348 2.143-2.12 3.25-3.614-.358.986-.57 1.886-.483 2.365.08.46.767.925 1.075.897l.145-.015c1.113-.333 3.199-3.326 4.79-5.471a11.753 11.753 0 0 0-1.215 3.284c-.058.277-.08.56-.066.843.06.344.522.75.856.877a.556.556 0 0 0 .328.087c.73-.067 2.05-1.514 3.255-3.065-.234.6-.34 1.125-.278 1.478.077.444.844 1.248 1.19 1.217.999-.09 4.305-4.125 4.882-4.723-.637 1.81-.884 2.844-.815 3.228.074.422.567.785.906.93a.824.824 0 0 0 .647.02c.661-.284 2.042-1.988 3.15-3.471-.391 1.009-.637 1.903-.563 2.323.061.345.626.78.95.849.077.009.155.009.233 0 .79-.136 2.187-1.724 3.423-3.342a3.915 3.915 0 0 0-.05 1.559c.085.398.305.754.621 1.005.316.252.71.384 1.111.373 2.055-.068 5.542-3.187 5.612-5.782.192.04.389.049.583.024.38-.033.752-.125 1.103-.274.886-.392 1.543-1.094 1.592-1.37-.208 0-.786.811-2.053 1.042zm-16.06 1.953c-1.896 2.158-4.599 4.562-4.854 4.448-.17-.081.761-2.218 2.202-3.992.875-1.13 1.968-2.218 2.738-2.505a1.44 1.44 0 0 1 .806-.073l-.892 2.122z"/></g><defs><clipPath id="ata"><path d="M0 0h119v25H0z"/></clipPath></defs></symbol><symbol viewBox="0 0 512 512" id="hamb" xmlns="http://www.w3.org/2000/svg"><path d="M437.02 74.98C388.668 26.63 324.379 0 256 0S123.332 26.629 74.98 74.98C26.63 123.332 0 187.621 0 256s26.629 132.668 74.98 181.02C123.332 485.37 187.621 512 256 512s132.668-26.629 181.02-74.98C485.37 388.668 512 324.379 512 256s-26.629-132.668-74.98-181.02zM173.379 372.82c0 8.418-6.82 15.239-15.238 15.239-8.414 0-15.239-6.82-15.239-15.239V139.18c0-8.418 6.825-15.239 15.239-15.239 8.418 0 15.238 6.82 15.238 15.239zm97.863 30.282c0 8.418-6.824 15.238-15.238 15.238-8.418 0-15.238-6.82-15.238-15.238V108.898c0-8.418 6.82-15.238 15.238-15.238 8.414 0 15.238 6.82 15.238 15.238zm97.86-30.282c0 8.418-6.82 15.239-15.239 15.239-8.414 0-15.234-6.82-15.234-15.239V139.18c0-8.418 6.82-15.239 15.234-15.239 8.418 0 15.239 6.82 15.239 15.239zm0 0"/></symbol><symbol viewBox="0 0 15 14" id="heart" xmlns="http://www.w3.org/2000/svg"><path d="M1.28 5.722c-.568 0-1.027-.46-1.027-1.027A4.11 4.11 0 0 1 5.7.813a1.027 1.027 0 1 1-.67 1.941 2.055 2.055 0 0 0-2.724 1.941c0 .567-.459 1.027-1.026 1.027zm6.16 0a1.027 1.027 0 0 1-1.014-1.188C6.8 2.174 8.443.589 10.517.589a4.11 4.11 0 0 1 4.107 4.106 1.026 1.026 0 1 1-2.054 0c0-1.132-.92-2.053-2.053-2.053-1.264 0-1.896 1.144-2.066 2.214-.08.505-.517.866-1.013.866z"/><path d="M7.438 13.935c-.223 0-.446-.073-.631-.218C6.136 13.194.252 8.492.252 4.695a1.026 1.026 0 1 1 2.053 0c0 1.925 2.927 5.035 5.133 6.891 2.206-1.858 5.133-4.97 5.133-6.89a1.026 1.026 0 1 1 2.054 0c0 3.796-5.884 8.498-6.555 9.021a1.024 1.024 0 0 1-.632.218z"/></symbol><symbol viewBox="0 0 45 42" id="heart1" xmlns="http://www.w3.org/2000/svg"><path d="M3.5 15.906a3.18 3.18 0 0 1-3.18-3.181C.32 5.708 6.025.001 13.042.001c1.422 0 2.822.232 4.155.693a3.182 3.182 0 0 1 1.969 4.047A3.19 3.19 0 0 1 15.12 6.71a6.368 6.368 0 0 0-8.44 6.015 3.18 3.18 0 0 1-3.18 3.181zm19.09 0a3.18 3.18 0 0 1-3.143-3.68C20.606 4.913 25.702 0 32.128 0c7.017 0 12.724 5.707 12.724 12.724a3.18 3.18 0 1 1-6.362 0 6.368 6.368 0 0 0-6.362-6.362c-3.916 0-5.875 3.544-6.403 6.862a3.18 3.18 0 0 1-3.137 2.681z"/><path d="M22.585 41.355c-.69 0-1.383-.226-1.956-.674C18.549 39.058.319 24.49.319 12.726a3.18 3.18 0 1 1 6.361 0c0 5.964 9.07 15.6 15.905 21.351 6.836-5.758 15.905-15.4 15.905-21.35a3.18 3.18 0 1 1 6.362 0c0 11.762-18.23 26.331-20.31 27.954a3.172 3.172 0 0 1-1.957.674z"/></symbol><symbol viewBox="0 0 111 111" id="like" xmlns="http://www.w3.org/2000/svg"><circle cx="55.5" cy="55.5" r="55.5"/><path d="M50.52 33.23c-.295 7.76-1.3 12.358-6.113 19.287-.601-.958-1.654-1.607-2.855-1.607H30.724c-1.852 0-3.384 1.533-3.384 3.384v24.364c0 1.851 1.532 3.384 3.384 3.384h10.828a3.389 3.389 0 0 0 2.813-1.523c.704.567 1.355 1.077 2.03 1.48 1.116.668 2.378 1.07 4.103 1.249 3.452.357 9.115.093 22.186.147.307-.006.611-.12.846-.317 2.63-2.145 3.773-4.2 4.293-6.514.257-.079.488-.235.656-.444 1.967-2.459 2.68-5.295 2.22-7.74.19-.088.357-.22.487-.381 2.298-2.696 2.762-6.148 1.946-8.756 1.404-1.66 1.984-3.608 1.777-5.414-.331-2.287-1.992-4.585-4.103-4.95H63.379c1.041-6.854.35-13.154-1.968-17.236-1.251-2.204-3.076-3.437-4.885-3.701-3.174-.42-5.735 1.571-6.006 5.287zm5.054-2.623c1.31-.137 2.772.881 3.49 2.368 1.98 3.486 2.8 10.006 1.46 17.004-.15.781.537 1.61 1.331 1.608h18.57c1.016.521 1.669 1.418 1.797 2.538.125 1.084.208 3.553-1.417 3.553h-8.143c-.715 0-1.374.638-1.374 1.353 0 .716.66 1.364 1.374 1.354h7.974c.407 1.495 1.103 5.414-1.248 5.414h-6.726c-.715 0-1.374.639-1.374 1.354 0 .715.66 1.363 1.374 1.353h5.267c.406 1.495 1.102 5.415-1.248 5.415h-4.019c-.715 0-1.374.638-1.374 1.353s.66 1.364 1.374 1.354h2.39c-.417 1.448-1.18 2.558-2.939 4.06-12.58-.043-18.413.156-21.34-.148-1.492-.154-2.193-.374-2.982-.846-.71-.425-1.581-1.175-2.855-2.2V56.389c6.29-8 7.98-14.725 8.29-23.053.397-1.815 1.329-2.622 2.348-2.729zm-24.85 23.01h10.828c.398 0 .677.279.677.677v24.364a.648.648 0 0 1-.677.677H30.724a.648.648 0 0 1-.677-.677V54.294c0-.398.278-.677.677-.677zm5.414 16.899a2.03 2.03 0 1 0 0 4.06 2.03 2.03 0 0 0 0-4.06z"/></symbol><symbol viewBox="0 0 59 57" id="like1" xmlns="http://www.w3.org/2000/svg"><path d="M23.52 6.23c-.295 7.76-1.3 12.358-6.113 19.287-.601-.958-1.654-1.607-2.855-1.607H3.724C1.872 23.91.34 25.443.34 27.294v24.364c0 1.851 1.532 3.384 3.384 3.384h10.828a3.389 3.389 0 0 0 2.813-1.523c.704.567 1.355 1.077 2.03 1.48 1.116.668 2.378 1.07 4.103 1.248 3.451.358 9.115.094 22.186.148.307-.006.611-.12.846-.317 2.63-2.146 3.773-4.2 4.294-6.514.256-.079.487-.235.655-.444 1.967-2.459 2.68-5.295 2.22-7.74.19-.088.357-.22.487-.381 2.298-2.696 2.762-6.148 1.946-8.756 1.404-1.66 1.984-3.608 1.777-5.414-.331-2.287-1.992-4.585-4.103-4.95H36.379c1.041-6.854.35-13.154-1.968-17.236-1.251-2.204-3.076-3.437-4.885-3.701-3.174-.42-5.735 1.571-6.006 5.287zm5.054-2.623c1.31-.137 2.772.881 3.49 2.368 1.98 3.486 2.8 10.006 1.46 17.004-.15.781.537 1.61 1.331 1.608h18.57c1.016.521 1.669 1.419 1.797 2.538.125 1.084.207 3.553-1.417 3.553h-8.142c-.716 0-1.375.638-1.375 1.353 0 .716.66 1.364 1.375 1.354h7.973c.407 1.495 1.103 5.414-1.248 5.414h-6.725c-.716 0-1.375.639-1.375 1.354 0 .715.66 1.364 1.375 1.353h5.266c.407 1.495 1.102 5.415-1.248 5.415h-4.018c-.716 0-1.375.638-1.375 1.353s.66 1.364 1.375 1.354h2.39c-.417 1.448-1.18 2.558-2.94 4.06-12.58-.043-18.413.155-21.34-.148-1.492-.154-2.193-.373-2.982-.846-.71-.425-1.582-1.175-2.855-2.2V29.389c6.29-8 7.98-14.725 8.29-23.053.397-1.815 1.329-2.622 2.348-2.728zm-24.85 23.01h10.828c.398 0 .677.278.677.677v24.364a.648.648 0 0 1-.677.677H3.724c-.399 0-.677-.279-.677-.677V27.294c0-.399.278-.677.677-.677zm5.414 16.899a2.03 2.03 0 1 0 0 4.06 2.03 2.03 0 0 0 0-4.06z"/></symbol><symbol viewBox="0 0 59 57" id="like2" xmlns="http://www.w3.org/2000/svg"><path d="M23.52 6.23c-.295 7.76-1.3 12.358-6.113 19.287-.601-.958-1.654-1.607-2.855-1.607H3.724C1.872 23.91.34 25.443.34 27.294v24.364c0 1.851 1.532 3.384 3.384 3.384h10.828a3.389 3.389 0 0 0 2.813-1.523c.704.567 1.355 1.077 2.03 1.48 1.116.668 2.378 1.07 4.103 1.248 3.451.358 9.115.094 22.186.148.307-.006.611-.12.846-.317 2.63-2.146 3.773-4.2 4.294-6.514.256-.079.487-.235.655-.444 1.967-2.459 2.68-5.295 2.22-7.74.19-.088.357-.22.487-.381 2.298-2.696 2.762-6.148 1.946-8.756 1.404-1.66 1.984-3.608 1.777-5.414-.331-2.287-1.992-4.585-4.103-4.95H36.379c1.041-6.854.35-13.154-1.968-17.236-1.251-2.204-3.076-3.437-4.885-3.701-3.174-.42-5.735 1.571-6.006 5.287zm5.054-2.623c1.31-.137 2.772.881 3.49 2.368 1.98 3.486 2.8 10.006 1.46 17.004-.15.781.537 1.61 1.331 1.608h18.57c1.016.521 1.669 1.419 1.797 2.538.125 1.084.207 3.553-1.417 3.553h-8.142c-.716 0-1.375.638-1.375 1.353 0 .716.66 1.364 1.375 1.354h7.973c.407 1.495 1.103 5.414-1.248 5.414h-6.725c-.716 0-1.375.639-1.375 1.354 0 .715.66 1.364 1.375 1.353h5.266c.407 1.495 1.102 5.415-1.248 5.415h-4.018c-.716 0-1.375.638-1.375 1.353s.66 1.364 1.375 1.354h2.39c-.417 1.448-1.18 2.558-2.94 4.06-12.58-.043-18.413.155-21.34-.148-1.492-.154-2.193-.373-2.982-.846-.71-.425-1.582-1.175-2.855-2.2V29.389c6.29-8 7.98-14.725 8.29-23.053.397-1.815 1.329-2.622 2.348-2.728zm-24.85 23.01h10.828c.398 0 .677.278.677.677v24.364a.648.648 0 0 1-.677.677H3.724c-.399 0-.677-.279-.677-.677V27.294c0-.399.278-.677.677-.677zm5.414 16.899a2.03 2.03 0 1 0 0 4.06 2.03 2.03 0 0 0 0-4.06z"/></symbol><symbol viewBox="0 0 13 13" id="like3" xmlns="http://www.w3.org/2000/svg"><path fill-rule="evenodd" clip-rule="evenodd" d="M6.307.039c.368 4.003-1.74 5.672-2.336 6.06.005.042.007.086.007.13v5.711l.982.604h5.164c.01 0 .023 0 .032.002 1.19.182 1.237-1.388 1.237-1.584a.245.245 0 0 1 .128-.24c.745-.358.43-1.482.4-1.578a.25.25 0 0 1 .106-.298c.967-.523.358-1.465.279-1.584a.262.262 0 0 1-.023-.289c1.752-3-3.72-2.26-4.07-2.21a.183.183 0 0 1-.087 0c-.116-.024-.19-.148-.168-.278.817-4.62-1.066-4.57-1.656-4.452l.005.006zM3.627 12.01V6.23a.514.514 0 0 0-.13-.35.42.42 0 0 0-.314-.147H.444a.413.413 0 0 0-.313.146.524.524 0 0 0-.131.35v5.78c0 .138.05.262.13.35a.42.42 0 0 0 .314.146h2.739a.413.413 0 0 0 .313-.146.522.522 0 0 0 .126-.278c0-.017 0-.036.005-.052v-.02z"/></symbol><symbol viewBox="0 0 23 25" id="map" xmlns="http://www.w3.org/2000/svg"><path fill-rule="evenodd" clip-rule="evenodd" d="M11.689 1.699c1.169.073 2.191 1.899 2.922 3.944-1.023.147-2.119.439-3.068.731-.95-.292-2.046-.584-3.069-.73.73-2.046 1.754-3.872 2.922-3.945V.164c0-.219.293-.219.293 0V1.7zm8.474 14.976c.73 0 1.315.292 1.826.73.439.512.731 1.17.731 1.9v4.967H0v-7.597h.804v-1.607h.511v-.804c0-.365.365-.73.73-.73h.293l.365-.95v-1.17c0-.145.22-.145.22 0v1.17l.364.95h.293c.438 0 .73.365.73.73v.804h.512v1.607h.803V20.4H7.38c-.074-.658-.074-1.316-.074-1.973 1.17-.146 2.338-.073 3.434.292a6.987 6.987 0 0 0-1.9 1.68h.95a7.865 7.865 0 0 1 1.754-1.314 7.863 7.863 0 0 1 1.753 1.315h.95a6.986 6.986 0 0 0-1.9-1.68c1.096-.366 2.265-.44 3.434-.293 0 .657 0 1.315-.073 1.973h1.607v-1.096c0-.73.292-1.388.804-1.9a2.594 2.594 0 0 1 1.826-.73v-1.607c0-.147.22-.147.22 0v1.607zM14.976 6.666c.146.512.292.95.365 1.461-.657-.438-1.388-.803-2.118-1.169.511-.146 1.096-.219 1.753-.292zm.73 3.142c0 .365.074.657.074.876-1.534.146-2.922.293-4.237.658-1.315-.366-2.703-.512-4.238-.658 0-.219.074-.511.074-.876.365-.293.657-.512 1.022-.804a17.94 17.94 0 0 1 3.142-1.534c1.168.438 2.191.95 3.141 1.534.365.292.658.511 1.023.804zm-7.962-1.68c.073-.512.219-.95.365-1.462.585.073 1.242.146 1.753.292-.73.366-1.46.731-2.118 1.17zm8.036 3.287v1.388a11.002 11.002 0 0 0-2.557-1.023c.803-.146 1.68-.292 2.557-.365zm0 2.41v.585a24.712 24.712 0 0 0-4.237.585 24.709 24.709 0 0 0-4.238-.585v-.584c1.315-.804 2.777-1.315 4.238-1.754 1.46.439 2.922.95 4.237 1.754zm-8.475-1.022v-1.388c.877.073 1.754.219 2.557.365-.876.22-1.753.585-2.557 1.023zm8.475 2.338v1.315c-.073 0-.073-.073-.146-.073-.73-.366-1.534-.658-2.411-.95.803-.146 1.68-.22 2.557-.292zm0 2.41v.147a7.626 7.626 0 0 0-4.237.584c-1.315-.584-2.776-.804-4.238-.584v-.147a15.292 15.292 0 0 1 4.238-1.753c1.46.365 2.922.95 4.237 1.753zm-8.475-1.095V15.14c.877.073 1.754.146 2.557.292-.876.292-1.68.584-2.41.95-.073 0-.073.073-.147.073z"/></symbol><symbol viewBox="0 0 56 56" id="menu" xmlns="http://www.w3.org/2000/svg"><path d="M8 40c-4.411 0-8 3.589-8 8s3.589 8 8 8 8-3.589 8-8-3.589-8-8-8zm20 0c-4.411 0-8 3.589-8 8s3.589 8 8 8 8-3.589 8-8-3.589-8-8-8zm20 0c-4.411 0-8 3.589-8 8s3.589 8 8 8 8-3.589 8-8-3.589-8-8-8zM8 20c-4.411 0-8 3.589-8 8s3.589 8 8 8 8-3.589 8-8-3.589-8-8-8zm20 0c-4.411 0-8 3.589-8 8s3.589 8 8 8 8-3.589 8-8-3.589-8-8-8zm20 0c-4.411 0-8 3.589-8 8s3.589 8 8 8 8-3.589 8-8-3.589-8-8-8zM8 0C3.589 0 0 3.589 0 8s3.589 8 8 8 8-3.589 8-8-3.589-8-8-8zm20 0c-4.411 0-8 3.589-8 8s3.589 8 8 8 8-3.589 8-8-3.589-8-8-8zm20 16c4.411 0 8-3.589 8-8s-3.589-8-8-8-8 3.589-8 8 3.589 8 8 8z"/></symbol><symbol viewBox="0 0 37 65" id="micro" xmlns="http://www.w3.org/2000/svg"><path d="M34.907 27.288a1.204 1.204 0 0 0-1.203 1.203 15.648 15.648 0 0 1-31.297 0 1.204 1.204 0 0 0-2.407 0 18.056 18.056 0 0 0 16.852 17.996v16.105h-9.63a1.203 1.203 0 1 0 0 2.408H28.89a1.204 1.204 0 1 0 0-2.407h-9.63V46.486A18.055 18.055 0 0 0 36.111 28.49a1.204 1.204 0 0 0-1.203-1.203z"/><path d="M17.935 40.926h.229A12.338 12.338 0 0 0 30.49 28.6V12.326A12.338 12.338 0 0 0 18.176 0h-.241A12.338 12.338 0 0 0 5.621 12.326V28.6a12.338 12.338 0 0 0 12.314 12.326zm-4.694-14.445H8.027v-4.814h5.213a1.203 1.203 0 1 0 0-2.408H8.027v-4.815h5.213a1.204 1.204 0 0 0 0-2.407h-5.2a9.918 9.918 0 0 1 9.894-9.63h.229a9.919 9.919 0 0 1 9.906 9.63h-5.2a1.204 1.204 0 1 0 0 2.407h5.212v4.815H22.87a1.204 1.204 0 1 0 0 2.408h5.212v4.814H22.87a1.204 1.204 0 1 0 0 2.408h5.2a9.918 9.918 0 0 1-9.906 9.63h-.229a9.919 9.919 0 0 1-9.906-9.63h5.212a1.204 1.204 0 1 0 0-2.407z"/></symbol><symbol viewBox="0 0 512 512" id="pin" xmlns="http://www.w3.org/2000/svg"><path d="M256 0C156.748 0 76 80.748 76 180c0 33.534 9.289 66.26 26.869 94.652l142.885 230.257A15 15 0 0 0 258.499 512h.119a14.997 14.997 0 0 0 12.75-7.292L410.611 272.22C427.221 244.428 436 212.539 436 180 436 80.748 355.252 0 256 0zm128.866 256.818L258.272 468.186l-129.905-209.34C113.734 235.214 105.8 207.95 105.8 180c0-82.71 67.49-150.2 150.2-150.2S406.1 97.29 406.1 180c0 27.121-7.411 53.688-21.234 76.818z"/><path d="M256 90c-49.626 0-90 40.374-90 90 0 49.309 39.717 90 90 90 50.903 0 90-41.233 90-90 0-49.626-40.374-90-90-90zm0 150.2c-33.257 0-60.2-27.033-60.2-60.2 0-33.084 27.116-60.2 60.2-60.2s60.1 27.116 60.1 60.2c0 32.683-26.316 60.2-60.1 60.2z"/></symbol><symbol viewBox="0 0 18 20" id="reserv" xmlns="http://www.w3.org/2000/svg"><path d="M7.27 1.402l-1.04.755a.363.363 0 0 0-.11.456c.45.864.21 1.9-.585 2.477a1.96 1.96 0 0 1-2.55-.199.363.363 0 0 0-.468-.036l-1.025.746a1.433 1.433 0 0 0-.316 1.995l7.559 10.4c.461.636 1.36.779 1.995.317l1.04-.756a.363.363 0 0 0 .11-.456 1.93 1.93 0 0 1 .584-2.477 1.96 1.96 0 0 1 2.551.2c.134.123.323.14.467.035l1.026-.746c.636-.462.778-1.36.316-1.995l-7.559-10.4a1.433 1.433 0 0 0-1.995-.316zm8.818 12.134l-.809.587a2.658 2.658 0 0 0-3.235-.077 2.642 2.642 0 0 0-.925 3.1l-.809.589a.716.716 0 0 1-.998-.158l-5.249-7.223 1.33-.966-.42-.577-1.33.966-1.89-2.6a.716.716 0 0 1 .158-.998l.81-.588c.942.75 2.252.79 3.234.077a2.642 2.642 0 0 0 .926-3.1l.809-.589a.716.716 0 0 1 .997.158l1.89 2.6-1.329.966.42.578 1.329-.966 5.249 7.223a.716.716 0 0 1-.158.998z"/><path d="M8.28 6.406L5.926 8.117l.42.578L8.7 6.984l-.42-.578zm2.663 2.48l-3.466 2.52.42.578 3.466-2.52-.42-.578zm1.379.986l-4.334 3.15.42.577 4.334-3.15-.42-.577z"/></symbol><symbol viewBox="0 0 54 67" id="restaraunt" xmlns="http://www.w3.org/2000/svg"><path d="M54 26.716C53.858 11.796 41.637-.14 26.716.002 11.796.143-.14 12.364.001 27.285c0 6.537 2.416 12.363 6.253 17.052h-.142L27.285 66.08 47.89 44.053h-.142C51.726 39.363 54 33.253 54 26.717zM26.716 54.5C15.348 54.642 2.5 38.653 2.5 27.285 2.358 15.917 15.348 2.5 26.716 2.5 38.085 2.358 51.5 15.917 51.5 27.285c0 11.226-13.557 27.073-24.784 27.215z"/><path d="M27.568 29.843c1.705-2.558 2.132-3.41 2.132-3.41l-1.421-.995s-.285.284-1.848 2.415c-1.137-1.847-1.563-2.416-1.563-2.416l-1.42.853s.141.427 1.846 3.268c-.142.143-.284.285-.426.569-2.984 4.405-9.663 9.52-6.537 11.51 2.985 1.99 5.543-6.11 8.1-10.09 2.416 4.406 4.121 11.937 7.105 10.09 3.127-1.847-3.268-7.673-5.542-11.51-.284 0-.284-.142-.426-.284zm-3.836-6.821l-1.848 1.137c-.426.284-.568.71-.284 1.137.284.426.71.568 1.137.284l1.847-1.137c.426-.284.569-.71.284-1.137-.284-.426-.71-.568-1.136-.284zm-1.422-.285c2.274-1.278 2.7-4.831.996-7.673-1.706-2.984-4.974-4.263-7.248-2.842-2.273 1.279-2.7 4.831-.994 7.673 1.705 2.985 4.973 4.263 7.247 2.842zm-6.962-8.526c1.705 4.121 4.547 7.674 4.547 7.674-5.826-1.705-4.547-7.674-4.547-7.674zm13.358 10.232l1.847 1.279c.426.284.995.142 1.279-.285.284-.426.142-.994-.284-1.279L29.7 22.88c-.426-.284-.994-.142-1.279.285-.284.426-.142.994.285 1.279zm12.363-9.521c-.427-.284-4.406 5.116-5.116 4.547-.853-.568 3.41-5.684 2.984-5.968-.426-.284-3.979 5.4-4.831 4.832-.853-.569 3.126-5.969 2.7-6.253-.427-.284-3.837 5.4-4.548 4.973-.71-.426 2.842-6.11 2.416-6.394-.426-.284-5.116 7.531-5.116 7.531-.71 1.137-.568 2.558.427 3.269l2.7 1.847c.994.71 2.415.284 3.126-.71.284-.143 5.684-7.39 5.258-7.674z"/></symbol><symbol viewBox="0 0 80 46" id="salon" xmlns="http://www.w3.org/2000/svg"><path d="M79.6 20.986a4.9 4.9 0 0 0-6.52-2.54l-13.821 6.28-2.84-1.02-.58-3.1 8.78-12.42a4.94 4.94 0 1 0-8-5.72 10 10 0 0 0-1.98 3.98 10.484 10.484 0 0 0-.22 3.36c.244 1.442.565 2.87.96 4.28a7.8 7.8 0 0 1-1.58 5.2l-4.66 7.44-18.001 9.6a.6.6 0 0 0-.22.7.6.6 0 0 0 .7.36l14-5.02-8 12.68a.58.58 0 0 0 .94.66l13.06-15.52 8.6-3.1a7.7 7.7 0 0 1 5.4-.64 41.284 41.284 0 0 0 4.001 1.78 10.33 10.33 0 0 0 3.32.42 9.861 9.861 0 0 0 4.16-1.16 5 5 0 0 0 2.5-6.5zm-21.881-13.7a6.72 6.72 0 0 1 1.38-2.84 2 2 0 0 1 .94-.74 1.72 1.72 0 0 1 2.2 1.32 2 2 0 0 1-.56 1.72l-3.6 5.1a7.842 7.842 0 0 1-.36-1.4 7.7 7.7 0 0 1 0-3.16zm-4 20a1.5 1.5 0 1 1 1.5-1.5 1.499 1.499 0 0 1-1.5 1.6v-.1zm22.94-3.44a2 2 0 0 1-.94.86 6.72 6.72 0 0 1-3.02.8 7.698 7.698 0 0 1-3.06-.58 7.838 7.838 0 0 1-1.34-.72l5.74-2.54a2 2 0 0 1 1.78-.22 1.721 1.721 0 0 1 .88 2.4h-.04z"/><path d="M54.918 32.446l-1.34.44-5.62 6.66 7.5 3.58c.23.06.464.1.7.12a4.14 4.14 0 0 0 3.42-1.22 2.96 2.96 0 0 0 .56-1.04 6.72 6.72 0 0 0-1.42-4.66 14.181 14.181 0 0 0-3.8-3.88zm-15.98-4.001a6.6 6.6 0 0 1-4-1.42l-.22-.18a7.4 7.4 0 0 1-2.22-3.84l3.76-8a1.6 1.6 0 0 0-2.88-1.36l-3.76 8-1.52-.72 3.76-8a1.6 1.6 0 0 0-2.88-1.36l-3.76 8-1.42-.68 3.76-8a1.6 1.6 0 0 0-2.88-1.36l-3.76 8-1.48-.7 3.76-8a1.6 1.6 0 1 0-2.88-1.36l-3.76 8-1.48-.7 3.76-8a1.599 1.599 0 1 0-2.8-1.24l-3.76 8-1.481-.7 3.76-8a1.605 1.605 0 1 0-2.9-1.38l-3.76 8-1.42-.68 3.76-8a1.6 1.6 0 1 0-2.88-1.36l-3.74 8-3.34 4.92a2.12 2.12 0 0 0-.24 1.44c.135.522.464.972.92 1.26l31.42 15.02 6.56-3.6z"/></symbol><symbol viewBox="0 0 20 20" id="search" xmlns="http://www.w3.org/2000/svg"><path fill-rule="evenodd" clip-rule="evenodd" d="M19.417 19.417a1.998 1.998 0 0 1-2.822 0L12.93 15.75c-1.289.8-2.8 1.244-4.443 1.244C3.799 16.995 0 13.196 0 8.487A8.472 8.472 0 0 1 8.487 0c4.687 0 8.508 3.799 8.508 8.487 0 1.621-.466 3.132-1.244 4.443l3.666 3.665a1.998 1.998 0 0 1 0 2.822zM8.487 2.488a6.002 6.002 0 0 0-5.999 5.999 6.002 6.002 0 0 0 5.999 5.998 6.002 6.002 0 0 0 5.998-5.998 5.988 5.988 0 0 0-5.998-5.999z"/></symbol><symbol viewBox="0 0 85 69" id="sport" xmlns="http://www.w3.org/2000/svg"><path d="M36.907 26.732a3.84 3.84 0 0 1-.689.75c-2.553 2.122-7.359.703-10.942-3.23-2.242-2.446-3.489-5.348-3.334-7.761.084-1.303.583-2.375 1.445-3.102 0-.002.001-.002.002-.003 2.541-2.12 7.352-.71 10.953 3.212 2.254 2.453 3.504 5.358 3.344 7.769-.06.915-.327 1.717-.78 2.365zM23.75 14.833c-.324.464-.515 1.053-.559 1.739-.131 2.048 1.022 4.668 3.01 6.835 3.028 3.325 7.248 4.75 9.216 3.113.603-.504.956-1.277 1.02-2.235.136-2.046-1.02-4.667-3.017-6.84-3.042-3.314-7.267-4.732-9.227-3.099a2.527 2.527 0 0 0-.443.487z"/><path d="M32.386 30.712a.621.621 0 0 1-.11.12c-2.525 2.137-7.33.733-10.938-3.197-3.491-3.811-4.394-8.524-2.047-10.73a.625.625 0 1 1 .858.912c-1.817 1.705-.86 5.727 2.111 8.972 3.047 3.318 7.264 4.732 9.208 3.087a.626.626 0 0 1 .918.836z"/><path d="M24.061 14.463a.632.632 0 0 1-.108.119l-3.828 3.257a.626.626 0 0 1-.811-.954l3.828-3.257a.626.626 0 0 1 .92.835zM36.33 27.36a.608.608 0 0 1-.108.118l-3.815 3.24a.625.625 0 1 1-.81-.953l3.815-3.24a.625.625 0 0 1 .919.834zm-4.175-4.903a1.527 1.527 0 0 1-.265.291c-.887.744-2.5.327-3.676-.946-.718-.777-1.112-1.713-1.054-2.504.034-.485.235-.89.578-1.17.904-.76 2.478-.363 3.666.923.706.765 1.099 1.7 1.05 2.498a1.751 1.751 0 0 1-.299.909zm-3.675-3.306a.462.462 0 0 0-.071.238c-.025.333.15.942.725 1.563.773.839 1.685 1.06 1.949.84.072-.061.113-.169.122-.319.021-.342-.155-.96-.721-1.572-.778-.843-1.669-1.044-1.942-.813l-.012.01a.237.237 0 0 0-.05.053zM19.995 39.77a3.562 3.562 0 0 1-.62.68c-2.303 1.92-6.627.659-9.847-2.867-2.015-2.204-3.133-4.81-2.993-6.973.076-1.176.53-2.145 1.31-2.804 1.86-1.564 5.12-1.057 8.116 1.26.274.21.307.604.113.878a.626.626 0 0 1-.878.112c-2.479-1.917-5.17-2.448-6.544-1.293-.522.44-.814 1.089-.868 1.929-.117 1.801.906 4.118 2.668 6.047 2.676 2.929 6.393 4.19 8.117 2.753 1.36-1.149 1.142-3.752-.525-6.331a.627.627 0 0 1 1.051-.68c1.792 2.771 2.104 5.566.9 7.29z"/><path d="M15.969 43.323a.623.623 0 0 1-.113.122c-2.299 1.916-6.623.656-9.844-2.87-3.129-3.402-3.932-7.639-1.84-9.638a.626.626 0 1 1 .864.905c-1.572 1.5-.72 5.039 1.9 7.887 2.677 2.931 6.394 4.191 8.118 2.755a.626.626 0 0 1 .915.839z"/><path d="M8.542 28.847a.635.635 0 0 1-.108.12l-3.426 2.9a.626.626 0 0 1-.81-.955l3.426-2.901a.626.626 0 0 1 .918.836zM19.483 40.33a.624.624 0 0 1-.109.12l-3.414 2.885a.627.627 0 0 1-.808-.957l3.414-2.884a.627.627 0 0 1 .917.837zm-3.868-4.227a.62.62 0 0 1-.11.12c-.837.708-2.287.347-3.373-.84-.639-.681-.998-1.526-.957-2.253.027-.464.21-.853.53-1.123a.626.626 0 0 1 .81.956c-.067.054-.086.16-.09.239-.016.288.138.81.626 1.33.662.724 1.427.92 1.646.735a.625.625 0 0 1 .918.836z"/><path d="M20.92 25.81a.627.627 0 0 1-.108.119l-8.297 7.032a.626.626 0 0 1-.81-.955l8.297-7.032a.626.626 0 0 1 .919.835zm2.992 3.26a.608.608 0 0 1-.109.119l-8.296 7.033a.626.626 0 0 1-.81-.955l8.297-7.033a.626.626 0 0 1 .918.835zm32.656-11.205a6.188 6.188 0 0 1-.427-1.29c-.177-.876-.065-1.623.333-2.22.877-1.323 2.99-1.638 5.95-.886 2.748.698 5.992 2.232 9.137 4.32 5.84 3.865 10.993 9.575 9.04 12.544-1.97 2.956-9.243.438-15.087-3.43-4.389-2.905-7.722-6.305-8.946-9.038zm22.809 9.491c-1.015-2.267-3.987-5.53-8.509-8.523-3.03-2.012-6.138-3.485-8.752-4.15-2.335-.593-4.054-.456-4.599.366-.207.31-.257.74-.148 1.279.505 2.5 4.138 6.42 8.837 9.53 6.49 4.296 12.246 5.442 13.351 3.783.332-.504.26-1.3-.18-2.285z"/><path d="M52.94 19.441c-.928-2.071-.983-3.849-.129-5.139.586-.884 1.543-1.466 2.844-1.73 3.76-.758 10.003 1.289 15.904 5.217 8.202 5.423 12.823 12.412 10.524 15.907-2.307 3.485-10.551 1.957-18.768-3.476-3.836-2.536-7.046-5.535-9.042-8.444-.556-.81-1-1.591-1.334-2.335zm27.852 9.623c-1.326-2.962-4.713-6.785-9.924-10.23l-.002-.002c-5.552-3.695-11.565-5.717-14.963-5.031-.963.194-1.652.596-2.048 1.193-.847 1.28-.32 3.495 1.452 6.073 1.905 2.78 4.995 5.658 8.698 8.108 8.142 5.382 15.38 6.326 17.032 3.83.592-.898.496-2.285-.246-3.941z"/><path d="M64.47 22.564a.625.625 0 0 1 .06-.616l.775-1.1-.697-1.865a.626.626 0 0 1 .844-.79l2.607 1.174 2.082-.145a.624.624 0 0 1 .637.423l.68 1.992 2.103 1.941a.625.625 0 1 1-.403 1.086l-1.981.067-.69 1.147a.626.626 0 0 1-.97.13l-2.082-1.995-2.639-1.129a.625.625 0 0 1-.325-.32zm1.838-2.612l.286.767a.627.627 0 0 1-.074.58l-.52.738 2.033.869c.07.03.132.071.187.123l1.597 1.532.462-.767a.625.625 0 0 1 .516-.303l.795-.027-1.099-1.014a.622.622 0 0 1-.168-.258l-.575-1.687-1.76.123a.628.628 0 0 1-.3-.054l-1.38-.622zM52.843 7.984a.625.625 0 0 1 .917-.78l4.453 2.948a.625.625 0 1 1-.69 1.045l-4.454-2.948a.622.622 0 0 1-.226-.265zM46.41 17.68a.626.626 0 0 1 .917-.779l4.453 2.948a.626.626 0 1 1-.69 1.044l-4.454-2.947a.622.622 0 0 1-.226-.266zm3.182-7.761a.625.625 0 0 1 .916-.78l2.108 1.39a.626.626 0 0 1-.689 1.046l-2.108-1.39a.62.62 0 0 1-.227-.266zm-3.365 3.109a.627.627 0 0 1 .918-.779l2.08 1.379a.628.628 0 0 1-.692 1.044l-2.08-1.379a.627.627 0 0 1-.226-.265zm1.874 55.757c-10.082 0-18.286-8.213-18.286-18.307 0-10.083 8.204-18.286 18.286-18.286 10.095 0 18.308 8.203 18.308 18.286 0 10.094-8.213 18.307-18.308 18.307zm0-35.34c-9.392 0-17.033 7.64-17.033 17.033 0 9.404 7.641 17.054 17.033 17.054 9.405 0 17.055-7.65 17.055-17.054 0-9.392-7.65-17.033-17.055-17.033z"/><path d="M60.046 64.068c-1.289 0-3.108-.473-5.558-1.443a.627.627 0 0 1-.356-.801c.66-1.773 1.254-4.206 1.765-7.234a.627.627 0 0 1 .377-.474c1.75-.73 3.857-1.626 6.276-2.669a.628.628 0 0 1 .79.261c.648 1.118 1.185 2.969 1.641 5.657a.627.627 0 0 1-1.235.21c-.36-2.127-.776-3.718-1.24-4.746a537.36 537.36 0 0 1-5.432 2.31c-.458 2.639-.982 4.833-1.561 6.54 2.036.772 3.563 1.156 4.602 1.136.35.025.63.27.637.615a.627.627 0 0 1-.616.637h-.09zm-14.701 4.508a.625.625 0 0 1-.492-1.014 19.245 19.245 0 0 0 1.98-3.042c-2.66-2.069-4.456-3.569-5.466-4.565-1.659.376-3.27.615-4.806.714.38 1.411 1.096 2.778 2.134 4.07a.626.626 0 0 1-.977.785c-1.34-1.67-2.198-3.462-2.549-5.328a.625.625 0 0 1 .594-.742c1.78-.061 3.684-.33 5.66-.797a.627.627 0 0 1 .596.175c.948.989 2.906 2.628 5.985 5.011.233.18.308.498.182.764-.59 1.242-1.38 2.497-2.349 3.73a.624.624 0 0 1-.492.239zm-2.337-15.572a.626.626 0 0 1-.493-.24c-1.491-1.9-2.926-4.018-4.387-6.475a.627.627 0 0 1 .025-.68c1.698-2.418 3.46-4.578 5.24-6.42a.63.63 0 0 1 .594-.175c2.237.527 4.746 1.313 7.673 2.402a.626.626 0 0 1 .407.597 139.64 139.64 0 0 1-.377 8.052.626.626 0 0 1-.45.555l-2.006.583c-2.081.603-4.1 1.189-6.046 1.774a.625.625 0 0 1-.18.027zm-3.595-7.007c1.275 2.12 2.531 3.978 3.826 5.657A681.528 681.528 0 0 1 48.885 50l1.588-.461c.176-2.458.288-4.842.334-7.103-2.52-.924-4.79-1.636-6.76-2.12-1.57 1.653-3.126 3.562-4.634 5.681zm23.404-.445a.625.625 0 0 1-.438-.179c-2.8-2.738-4.688-4.442-5.61-5.063a.627.627 0 0 1-.26-.38c-.497-2.182-.961-3.977-1.344-5.19a.626.626 0 1 1 1.194-.378c.385 1.22.828 2.919 1.317 5.054.995.72 2.706 2.265 5.21 4.702.308-.24.656-.566 1.039-.977a.626.626 0 1 1 .916.854c-.646.692-1.203 1.173-1.705 1.47a.624.624 0 0 1-.319.087zm-25.341-8.559a.627.627 0 0 1-.122-1.24c2.124-.425 3.926-.686 5.503-.795a55.181 55.181 0 0 1 6.153-2.706.626.626 0 1 1 .437 1.174 53.711 53.711 0 0 0-6.128 2.703.636.636 0 0 1-.249.07c-1.53.099-3.37.362-5.47.782a.633.633 0 0 1-.124.012zM32.3 55.112a.612.612 0 0 1-.22-.04c-.759-.284-1.388-.698-1.872-1.229a.626.626 0 1 1 .926-.843c.163.178.35.34.562.482.106-2.246.57-4.329 1.382-6.207-.447-1.718-.653-3.774-.611-6.118a.626.626 0 0 1 .626-.615h.011a.626.626 0 0 1 .615.637c-.041 2.323.169 4.335.624 5.98a.62.62 0 0 1-.032.424c-.92 2.043-1.385 4.366-1.385 6.903a.626.626 0 0 1-.627.626z"/><path d="M33.739 47.952a.627.627 0 0 1-.196-1.221c1.983-.654 3.62-1.105 5.001-1.377a.627.627 0 0 1 .242 1.23c-1.312.258-2.944.708-4.851 1.336a.62.62 0 0 1-.196.032zm2.046 12.754a.626.626 0 0 1-.484-.227c-1.621-1.963-2.827-3.9-3.583-5.757a.627.627 0 0 1 1.16-.472c.708 1.739 1.849 3.566 3.39 5.43a.626.626 0 0 1-.483 1.026zm11.836 4.259a.626.626 0 0 1-.155-1.232c3.26-.837 5.545-1.575 6.985-2.256a.626.626 0 1 1 .535 1.132c-1.512.715-3.87 1.48-7.209 2.336a.613.613 0 0 1-.156.02zm-6.052-5.073a.626.626 0 0 1-.624-.69 34.024 34.024 0 0 1 1.467-7.018.627.627 0 0 1 1.192.386 32.777 32.777 0 0 0-1.413 6.76.626.626 0 0 1-.623.562zm14.945-4.572a.622.622 0 0 1-.45-.19c-1.086-1.124-2.846-2.634-5.384-4.618a.626.626 0 0 1 .771-.986c2.585 2.02 4.388 3.567 5.513 4.733a.625.625 0 0 1-.45 1.062zm6.283-2.671a.626.626 0 0 1-.618-.732c.4-2.337.406-4.653.02-6.885a.626.626 0 1 1 1.235-.213c.41 2.372.403 4.831-.021 7.31a.626.626 0 0 1-.616.52zM51.443 42.63a.627.627 0 0 1-.276-1.19c1.66-.809 3.545-1.544 5.764-2.247a.626.626 0 0 1 .378 1.194c-2.16.684-3.989 1.397-5.593 2.178a.624.624 0 0 1-.273.064zm-7.601-2.38a.627.627 0 0 1-.612-.498 277.762 277.762 0 0 1-.816-4.06.627.627 0 0 1 1.23-.238c.27 1.395.54 2.75.812 4.04a.627.627 0 0 1-.614.755zm17.076 3.465a.626.626 0 0 1-.438-1.075c.853-.832 1.396-1.614 1.615-2.325a.626.626 0 1 1 1.197.37c-.285.924-.919 1.857-1.936 2.851a.625.625 0 0 1-.438.179zm-1.9-1.753a.627.627 0 0 1-.52-.974c.707-1.06 1.351-2.059 1.933-2.974a.627.627 0 0 1 1.057.672c-.586.922-1.236 1.928-1.948 2.997a.628.628 0 0 1-.522.279z"/><path d="M56.91 39.54a.626.626 0 0 1-.45-1.063 6.888 6.888 0 0 0 1.533-2.454.626.626 0 1 1 1.174.437 8.236 8.236 0 0 1-1.808 2.89.626.626 0 0 1-.45.19zm-9.873 12.274a.626.626 0 0 1-.55-.925c.79-1.453 2.125-3.346 3.968-5.626a.625.625 0 1 1 .973.786c-1.794 2.223-3.086 4.052-3.84 5.438a.627.627 0 0 1-.551.327zm-2.923.856a.626.626 0 0 1-.579-.864c1.863-4.533 4.042-8.097 6.476-10.595a.625.625 0 1 1 .897.874c-2.322 2.383-4.413 5.813-6.215 10.197a.626.626 0 0 1-.58.388zM41.9 51.522a.627.627 0 0 1-.586-.847c1.527-4.07 3.509-7.567 5.89-10.391a.626.626 0 1 1 .958.808c-2.289 2.714-4.198 6.086-5.675 10.023a.627.627 0 0 1-.586.407zm-1.856-2.714a.626.626 0 0 1-.556-.914c1.65-3.195 3.445-5.985 5.332-8.292a.627.627 0 0 1 .97.794c-1.832 2.239-3.578 4.955-5.19 8.073a.626.626 0 0 1-.556.34zm17.327 14.779a.627.627 0 0 1-.57-.364c-.37-.804-.912-2.143-1.706-4.213a.626.626 0 1 1 1.17-.448c.772 2.015 1.32 3.369 1.675 4.136a.627.627 0 0 1-.569.889zm2.087.459a.626.626 0 0 1-.597-.437c-.554-1.747-1.605-4.286-3.122-7.544a.626.626 0 1 1 1.134-.529c1.541 3.308 2.611 5.896 3.182 7.695a.626.626 0 0 1-.597.815zm2.024-1.377a.628.628 0 0 1-.604-.458c-.513-1.838-1.482-4.492-2.961-8.115a.626.626 0 1 1 1.159-.473c1.497 3.667 2.482 6.366 3.009 8.25a.627.627 0 0 1-.603.796zm1.816-2.505a.626.626 0 0 1-.606-.473c-.537-2.128-1.313-4.357-2.305-6.624a.626.626 0 1 1 1.148-.502c1.02 2.33 1.818 4.625 2.37 6.82a.626.626 0 0 1-.607.78zM43.3 68.117a.626.626 0 0 1-.522-.971c.778-1.178 1.72-2.471 3.053-4.193a.627.627 0 0 1 .99.767c-1.295 1.673-2.248 2.981-2.998 4.116a.625.625 0 0 1-.524.281zm-2.464-.898a.626.626 0 0 1-.54-.942 23.252 23.252 0 0 1 3.775-4.848.626.626 0 1 1 .879.892 22.008 22.008 0 0 0-3.573 4.587.626.626 0 0 1-.541.31zm-2.15-1.148a.626.626 0 0 1-.518-.977c1.132-1.675 2.579-3.367 4.3-5.026a.625.625 0 1 1 .87.901c-1.66 1.6-3.05 3.223-4.132 4.826a.626.626 0 0 1-.52.276zm-1.669-2.066a.626.626 0 0 1-.514-.984c.701-1.008 1.885-2.337 3.519-3.95a.627.627 0 0 1 .88.892c-1.58 1.559-2.713 2.828-3.37 3.773a.626.626 0 0 1-.515.269zM32.55 51.897a.658.658 0 0 1-.09-.006c-.858-.126-1.57-.23-2.114-.314a.626.626 0 1 1 .191-1.238c.541.083 1.25.187 2.104.313a.626.626 0 0 1-.09 1.245zm.711-2.734l-.04-.001a18.639 18.639 0 0 1-2.765-.368.626.626 0 1 1 .265-1.224c.78.168 1.647.283 2.578.342a.626.626 0 0 1-.038 1.251zm.187-2.505a.635.635 0 0 1-.106-.01 51.789 51.789 0 0 1-2.202-.434l-.14-.03a.627.627 0 0 1 .26-1.225l.14.03c.646.138 1.364.29 2.153.425a.626.626 0 0 1-.105 1.244zm10.416-10.896a.625.625 0 0 1-.42-.163c-.788-.716-1.23-1.217-1.434-1.624a.626.626 0 1 1 1.12-.56c.071.142.316.493 1.156 1.257a.627.627 0 0 1-.422 1.09z"/></symbol><symbol viewBox="0 0 27 11" id="star" xmlns="http://www.w3.org/2000/svg"><path d="M16.842 10.645a.573.573 0 0 1-.268-.066l-2.76-1.452-2.76 1.451a.577.577 0 0 1-.837-.608l.527-3.073L8.511 4.72a.576.576 0 0 1 .32-.984l3.086-.448L13.297.49a.577.577 0 0 1 1.034 0l1.38 2.797 3.086.448a.578.578 0 0 1 .32.984l-2.233 2.177.528 3.073a.578.578 0 0 1-.57.675zm-3.028-2.746c.092 0 .184.021.268.066l1.994 1.048-.381-2.219a.579.579 0 0 1 .165-.51l1.613-1.573-2.229-.324a.575.575 0 0 1-.434-.315l-.996-2.02-.997 2.02a.577.577 0 0 1-.434.315l-2.229.324 1.612 1.572a.578.578 0 0 1 .167.511l-.381 2.22 1.993-1.05a.576.576 0 0 1 .269-.065zM8.417 3.238H1.496a.577.577 0 0 1 0-1.154h6.921a.577.577 0 0 1 0 1.154zM7.074 5.421H3.869a.577.577 0 0 1 0-1.154h3.205a.577.577 0 0 1 0 1.154zm1.25 1.971H6.509a.577.577 0 0 1 0-1.153h1.815a.577.577 0 1 1 0 1.153zm18.007-4.154H19.41a.577.577 0 0 1 0-1.154h6.921a.577.577 0 0 1 0 1.154zm-2.373 2.183h-3.205a.577.577 0 0 1 0-1.154h3.204a.577.577 0 0 1 0 1.154zm-2.644 1.971h-1.815a.577.577 0 0 1 0-1.153h1.815a.577.577 0 1 1 0 1.153z"/></symbol><symbol viewBox="0 0 30 30" id="tag" xmlns="http://www.w3.org/2000/svg"><path d="M13.176 1.002L5.798 2.054h-.03a.244.244 0 0 0-.206.206v.03L4.51 9.66a.244.244 0 0 0 .069.206l11.059 11.06a.244.244 0 0 0 .35 0l8.453-8.453a.243.243 0 0 0 0-.343L13.381 1.07a.244.244 0 0 0-.205-.068zm-.053.496l10.8 10.8-8.11 8.11-10.8-10.8 1.014-7.104 7.096-1.006zM9.876 4.173c-1.21 0-2.195.986-2.195 2.195 0 1.21.985 2.195 2.195 2.195s2.195-.986 2.195-2.195c0-1.21-.986-2.195-2.195-2.195zm0 .488c.946 0 1.707.761 1.707 1.707 0 .946-.761 1.707-1.707 1.707a1.704 1.704 0 0 1-1.707-1.707c0-.946.761-1.707 1.707-1.707z"/></symbol><symbol viewBox="0 0 23 23" id="tel" xmlns="http://www.w3.org/2000/svg"><path d="M15.5 13.6c-.3-.5-1.1-.7-1.6-.3l-1.2.8c-.2-.1-.7-.4-1.8-1.9-1.2-1.8-1.1-2.5-1.1-2.6l1.2-.8c.5-.3.7-1.1.3-1.6L9.7 4.8l-.1-.1c-.1 0-.4-.3-.9-.3s-1.1.2-1.6.6l-.1.2C5.9 6.8 5.7 8.7 5.7 8.8V9c.5 2.2 1.6 4 2.3 5l.1.2.1.1c.8 1.2 2 2.7 3.7 3.9l.1.1s1.1.4 2.5.4c.5 0 .9 0 1.4-.1l.2-.1c1.6-1 1.3-2.1 1.3-2.2l-1.9-2.7zm0 3.9c-.3.1-.7.1-1.1.1-1 0-1.9-.2-2.1-.3-1.6-1.1-2.6-2.4-3.4-3.6l-.2-.3c-.6-1-1.7-2.6-2.2-4.6 0-.3.3-1.8 1.1-3 .9-.5 1.2-.4 1.4-.4l1.5 2.4V8l-1.1.7c-.2.1-.4.2-.5.5-.3.7.1 1.9 1.2 3.5 1.1 1.6 2 2.4 2.7 2.4.3 0 .5-.1.6-.3l1.1-.7s.1 0 .1.1l1.6 2.3c.1.2 0 .6-.7 1z"/><path d="M11.5 0C5.2 0 0 5.2 0 11.5S5.2 23 11.5 23 23 17.8 23 11.5 17.8 0 11.5 0zm0 22C5.7 22 1 17.3 1 11.5S5.7 1 11.5 1 22 5.7 22 11.5 17.3 22 11.5 22z"/></symbol><symbol viewBox="0 0 29.731 29.731" id="tel1" xmlns="http://www.w3.org/2000/svg"><path d="M23.895 29.731c-1.237 0-2.731-.31-4.374-.93-3.602-1.358-7.521-4.042-11.035-7.556C4.971 17.73 2.287 13.81.928 10.208-.307 6.933-.31 4.245.921 3.015c.177-.177.357-.367.543-.563C2.587 1.271 3.856-.058 5.538.002 6.697.05 7.82.77 8.97 2.201c3.398 4.226 1.866 5.732.093 7.478l-.313.31c-.29.29-.838 1.633 4.26 6.731 1.664 1.664 3.083 2.882 4.217 3.619.714.464 1.991 1.166 2.515.642l.315-.318c1.744-1.769 3.25-3.296 7.473.099 1.431 1.15 2.15 2.272 2.198 3.433.069 1.681-1.27 2.953-2.452 4.075-.195.186-.385.366-.562.542-.611.612-1.588.919-2.819.919zM5.418 1C4.223 1 3.144 2.136 2.189 3.141c-.192.202-.378.398-.561.581-.917.916-.824 3.323.236 6.134 1.31 3.472 3.913 7.266 7.33 10.683 3.416 3.415 7.208 6.018 10.681 7.327 2.811 1.062 5.218 1.152 6.133.237.183-.183.379-.369.581-.56 1.027-.976 2.192-2.082 2.141-3.309-.035-.843-.649-1.75-1.825-2.695-3.519-2.83-4.503-1.831-6.135-.176l-.32.323c-.78.781-2.047.608-3.767-.51-1.193-.776-2.667-2.038-4.379-3.751-4.231-4.23-5.584-6.819-4.26-8.146l.319-.315c1.659-1.632 2.66-2.617-.171-6.138-.947-1.175-1.853-1.789-2.696-1.825L5.418 1z"/></symbol><symbol viewBox="0 0 24 24" id="teleg" xmlns="http://www.w3.org/2000/svg"><path d="M10.435 16.909v5.309l2.761-2.762a.523.523 0 0 1 .74.739l-3.653 3.652a.522.522 0 0 1-.891-.37v-7.304c0-.126.045-.247.128-.342l7.185-8.27a.523.523 0 0 1 .788.684l-6.675 7.682 9.616 2.218L22.81 1.523 1.91 13.87l4.628 1.068a.522.522 0 1 1-.235 1.017L.404 14.594a.52.52 0 0 1-.149-.957L23.213.072a.522.522 0 0 1 .782.522l-2.609 18.26a.52.52 0 0 1-.633.436l-10.318-2.381z"/></symbol><symbol viewBox="0 0 612 612" id="time" xmlns="http://www.w3.org/2000/svg"><path d="M587.572 186.881c-32.266-75.225-87.096-129.934-162.949-162.285C386.711 8.427 346.992.168 305.497.168c-41.488 0-80.914 8.181-118.784 24.428-75.225 32.265-130.298 86.939-162.621 162.285C7.895 224.629 0 264.176 0 305.664c0 41.496 7.895 81.371 24.092 119.127 32.323 75.346 87.403 130.348 162.621 162.621 37.877 16.247 77.295 24.42 118.784 24.42 41.489 0 81.214-8.259 119.12-24.42C500.47 555.06 555.3 500.009 587.573 424.791 603.819 386.914 612 347.16 612 305.664c0-41.488-8.174-80.907-24.428-118.783zm-48.848 253.972c-24.021 41.195-56.929 73.876-98.375 98.039-41.195 24.021-86.332 36.135-134.845 36.135-36.47 0-71.27-7.024-104.4-21.415-33.129-14.384-61.733-33.294-85.661-57.215-23.928-23.928-42.973-52.811-57.214-85.997-14.199-33.065-21.08-68.258-21.08-104.735 0-48.52 11.921-93.428 35.807-134.509 23.971-41.231 56.886-73.947 98.039-98.04 41.146-24.092 85.99-36.142 134.502-36.142 48.52 0 93.649 12.121 134.845 36.142 41.446 24.164 74.283 56.879 98.375 98.039 24.092 41.153 36.135 85.99 36.135 134.509 0 48.521-11.964 93.735-36.128 135.189z"/><path d="M324.906 302.988V129.659c0-10.372-9.037-18.738-19.41-18.738-9.701 0-18.403 8.366-18.403 18.738v176.005c0 .336.671 1.678.671 2.678-.671 6.024 1.007 11.043 5.019 15.062L392.836 423.45c6.695 6.695 19.073 6.695 25.763 0 7.694-7.695 7.188-18.86 0-26.099l-93.693-94.363z"/></symbol><symbol viewBox="0 0 20 33" id="type" xmlns="http://www.w3.org/2000/svg"><path d="M10 0C5.904 0 2.585 3.154 2.585 7.045c0 3.89 5.005 12.26 7.415 12.26s7.416-8.37 7.416-12.26C17.416 3.154 14.096 0 10 0zm0 10.226c-1.849 0-3.349-1.425-3.349-3.181 0-1.757 1.5-3.182 3.35-3.182 1.849 0 3.348 1.425 3.348 3.182s-1.5 3.18-3.349 3.18zm3.83 15.747l.612 4.723L20 31.908l-2.058-7.982-4.043-1.33-7.285 1.553-.4 4.693-.621-4.793-3.535-1.453L0 30.578l6.1 1.663 7.329-1.563.4-4.705z"/></symbol><symbol viewBox="0 0 21 20" id="user" xmlns="http://www.w3.org/2000/svg"><path d="M2.435 20h16.13a1.941 1.941 0 0 0 1.935-1.936c0-3.71-2.097-7.096-5.323-8.838a5.72 5.72 0 0 0 1.13-3.42C16.306 2.613 13.694 0 10.5 0 7.306 0 4.694 2.613 4.694 5.806c0 1.29.419 2.452 1.129 3.42A10.023 10.023 0 0 0 .5 18.064 1.94 1.94 0 0 0 2.435 20zM10.5 1.935a3.882 3.882 0 0 1 3.871 3.871A3.882 3.882 0 0 1 10.5 9.677a3.882 3.882 0 0 1-3.871-3.87A3.882 3.882 0 0 1 10.5 1.934zm-3.194 8.71a5.735 5.735 0 0 0 3.194.968c1.194 0 2.29-.355 3.194-.968 2.935 1.29 4.87 4.194 4.87 7.42H2.435c0-3.226 1.936-6.13 4.871-7.42z"/></symbol><symbol viewBox="0 0 14 15" id="user1" xmlns="http://www.w3.org/2000/svg"><path fill-rule="evenodd" clip-rule="evenodd" d="M6.842 1.293a2.25 2.25 0 0 0-2.247 2.246 2.25 2.25 0 0 0 2.247 2.248 2.25 2.25 0 0 0 2.246-2.248 2.249 2.249 0 0 0-2.246-2.246zm0 5.786a3.544 3.544 0 0 1-3.54-3.54A3.543 3.543 0 0 1 6.843 0a3.543 3.543 0 0 1 3.538 3.54 3.543 3.543 0 0 1-3.538 3.54zM12.378 15a.646.646 0 0 1-.646-.646 5.225 5.225 0 0 0-5.22-5.22 5.226 5.226 0 0 0-5.22 5.22.647.647 0 0 1-1.292 0 6.52 6.52 0 0 1 6.512-6.512 6.52 6.52 0 0 1 6.513 6.512c0 .357-.29.646-.647.646z"/></symbol></svg>