<svg width="97" height="143" fill="none" xmlns="http://www.w3.org/2000/svg"><path d="M89.557.003L56.056 59.192l7.254 4.106L96.811 4.109 89.557.003z" fill="url(#paint0_linear)"/><path d="M7.252 0L0 4.105l33.499 59.184 7.252-4.104L7.25 0z" fill="url(#paint1_linear)"/><path d="M48.43 62.816a24.129 24.129 0 1 0 .001 48.258 24.129 24.129 0 0 0 0-48.258z" fill="#48BF61"/><path d="M57.236 90.08v-.697h.038a.27.27 0 0 0 .269-.27V87.09a.27.27 0 0 0-.269-.269h-.215a1.023 1.023 0 0 1-.35-.773V84.68a.93.93 0 0 0-1.86 0v1.368c0 .299-.126.578-.35.773h-.214a.27.27 0 0 0-.269.269v2.024c0 .148.12.269.27.269h.037v.696a1.77 1.77 0 0 0-1.184 1.665V99.155c0 .466.379.845.845.845h3.591a.846.846 0 0 0 .845-.845v-7.41c0-.751-.482-1.421-1.184-1.666zm-2.106-4.032V84.68a.65.65 0 0 1 1.3 0v1.368c0 .283.089.552.251.773h-1.803c.163-.221.252-.49.252-.773zm-.629 4.269a.14.14 0 0 0 .102-.135v-.8h2.353v.8a.14.14 0 0 0 .102.135c.634.178 1.078.76 1.082 1.418h-4.721a1.488 1.488 0 0 1 1.082-1.418zm3.64 8.838a.565.565 0 0 1-.566.565h-3.591a.565.565 0 0 1-.565-.565v-.735h4.721v.735zM52.263 77.719a.37.37 0 0 0-.37-.37h-.408V74.33a.33.33 0 0 0-.33-.33h-4.883a.33.33 0 0 0-.33.33v3.02h-.409a.37.37 0 0 0-.369.369v21.652a.63.63 0 0 0 .629.629h5.841a.63.63 0 0 0 .629-.629v-9.796V80.6 77.719zm-1.058-.65v.28h-4.983v-.28h4.983zm-5.76.65c0-.05.04-.09.089-.09h6.36c.049 0 .089.04.089.09v2.74H45.444v-2.74zm6.538 20.348h-3.229a.14.14 0 1 0 0 .28h3.229v1.024a.35.35 0 0 1-.349.349h-5.841a.35.35 0 0 1-.349-.349v-9.659h6.539v8.355z" fill="#fff"/><path d="M48.194 98.067h-.616a.14.14 0 1 0 0 .28h.616a.14.14 0 0 0 0-.28zM44.594 79.772H38.22a.14.14 0 0 0-.14.14v.787l.277 4.408.005.081.025.39.25 3.965.007.119.006.101.037.586.058.928.024.373.018.295.074 1.168.01.152.04.651.045.72.016.245.071 1.132.014.23.014.22.056.876a.14.14 0 0 0 .14.13h.005v2.161c0 .204.166.37.37.37h3.53a.37.37 0 0 0 .37-.37v-2.16h.006a.14.14 0 0 0 .14-.131l.054-.874v-.002l.082-1.284.023-.38.096-1.523.022-.352.089-1.409.022-.357.1-1.596.02-.301.088-1.41.017-.27.11-1.739.015-.245.089-1.41.013-.217.116-1.85.012-.187.008-.121.07-1.113v-.004-.783a.14.14 0 0 0-.14-.14zm-.199 1.849h-5.976l-.05-.79h6.076l-.05.79zm-1.133 18.01c0 .049-.04.089-.09.089h-3.53a.09.09 0 0 1-.09-.09v-.603h3.71v.603zm-2.664-.884v-.518c0-.043.035-.078.078-.078h1.413c.043 0 .078.035.078.078v.518h-1.569zm2.664 0h-.815v-.518a.358.358 0 0 0-.358-.358h-1.413a.358.358 0 0 0-.358.358v.518h-.766V97.47h3.71v1.277zm.154-1.557H39.398l-.038-.596h4.094l-.038.596z" fill="#fff"/><defs><linearGradient id="paint0_linear" x1="60.261" y1="61.173" x2="93.586" gradientUnits="userSpaceOnUse"><stop stop-color="#89CB97"/><stop offset=".509" stop-color="#69C57D" stop-opacity=".8"/><stop offset="1" stop-color="#48BF61" stop-opacity="0"/></linearGradient><linearGradient id="paint1_linear" x1="3.626" y1="2.052" x2="37.125" y2="61.237" gradientUnits="userSpaceOnUse"><stop stop-color="#48BF61" stop-opacity="0"/><stop offset=".51" stop-color="#69C57D" stop-opacity=".8"/><stop offset="1" stop-color="#89CB97"/></linearGradient></defs></svg>