<svg width="97" height="143" fill="none" xmlns="http://www.w3.org/2000/svg"><path d="M89.557.003L56.056 59.192l7.254 4.106L96.811 4.109 89.557.003z" fill="url(#paint0_linear)"/><path d="M7.252 0L0 4.105l33.499 59.184 7.252-4.104L7.25 0z" fill="url(#paint1_linear)"/><path d="M48.43 62.816a24.129 24.129 0 1 0 .001 48.258 24.129 24.129 0 0 0 0-48.258z" fill="#48BF61"/><path d="M61.426 89.824S55.343 96 47.84 96c-7.505 0-13.588-6.176-13.588-6.176s6.083-6.176 13.588-6.176c7.504 0 13.587 6.176 13.587 6.176z" stroke="#fff" stroke-miterlimit="10" stroke-linecap="round" stroke-linejoin="round"/><path d="M47.839 93.53a3.706 3.706 0 1 0 0-7.412 3.706 3.706 0 0 0 0 7.412z" stroke="#fff" stroke-miterlimit="10" stroke-linecap="round" stroke-linejoin="round"/><path d="M47.839 91.348a1.524 1.524 0 1 0 0-3.048 1.524 1.524 0 0 0 0 3.048zM62.941 86.419c-2.94-2.501-7.505-5.465-12.632-5.465-8.869 0-16.058 8.87-16.058 8.87M49.692 83.648l1.853-5.559M53.68 84.82l2.805-5.496M57.362 86.683l4.065-5.506M60.419 88.91l5.33-5.262" stroke="#fff" stroke-miterlimit="10" stroke-linecap="round" stroke-linejoin="round"/><path d="M34.804 79.813a25.56 25.56 0 0 1 7.4-4.292 23.755 23.755 0 0 1 8.265-1.515c.348-.017.697.006 1.046.022.348.02.696.024 1.042.056.692.083 1.383.136 2.064.277 1.367.227 2.704.596 3.997 1.065a24.746 24.746 0 0 1 7.132 3.998 24.278 24.278 0 0 0-7.35-3.269 21.66 21.66 0 0 0-3.92-.66c-.656-.074-1.318-.06-1.974-.078-.328 0-.657.027-.984.04-.328.016-.655.023-.98.072a21.951 21.951 0 0 0-7.474 2.102 23.062 23.062 0 0 0-6.266 4.452 1.48 1.48 0 0 1-2.12-.016 1.545 1.545 0 0 1 .118-2.251l.004-.003z" stroke="#fff" stroke-miterlimit="10" stroke-linejoin="round"/><defs><linearGradient id="paint0_linear" x1="60.261" y1="61.173" x2="93.586" gradientUnits="userSpaceOnUse"><stop stop-color="#89CB97"/><stop offset=".509" stop-color="#69C57D" stop-opacity=".8"/><stop offset="1" stop-color="#48BF61" stop-opacity="0"/></linearGradient><linearGradient id="paint1_linear" x1="3.626" y1="2.052" x2="37.125" y2="61.237" gradientUnits="userSpaceOnUse"><stop stop-color="#48BF61" stop-opacity="0"/><stop offset=".51" stop-color="#69C57D" stop-opacity=".8"/><stop offset="1" stop-color="#89CB97"/></linearGradient></defs></svg>