<svg width="97" height="143" fill="none" xmlns="http://www.w3.org/2000/svg"><path d="M89.557.003L56.056 59.192l7.254 4.106L96.811 4.109 89.557.003z" fill="url(#paint0_linear)"/><path d="M7.252 0L0 4.105l33.499 59.184 7.252-4.104L7.25 0z" fill="url(#paint1_linear)"/><path d="M48.43 62.816a24.129 24.129 0 1 0 .001 48.258 24.129 24.129 0 0 0 0-48.258z" fill="#48BF61"/><path d="M42.264 93.827h-.52v.521h.52v-.52zM42.264 91.744h-.52v.52h.52v-.52zM42.264 90.702h-.52v.521h.52v-.52zM42.264 94.869h-.52v.52h.52v-.52zM42.264 92.786h-.52v.52h.52v-.52zM42.264 95.91h-.52v.522h.52v-.521zM56.15 87.055l.513-.088a7.495 7.495 0 0 0-.11-.528l-.505.124c.04.162.074.327.102.492zM55.74 85.61c.063.153.12.312.172.47l.495-.16a7.446 7.446 0 0 0-.184-.506l-.483.195zM55.534 85.151l.468-.23a7.494 7.494 0 0 0-.256-.475l-.45.263c.085.145.165.293.238.442zM54.728 83.881c.105.132.205.267.299.404l.43-.294a7.545 7.545 0 0 0-.32-.434l-.409.324zM54.05 83.142c.122.115.24.235.354.358l.383-.353a7.62 7.62 0 0 0-.379-.384l-.357.38zM43.047 88.227V100h12.422V88.227a6.18 6.18 0 0 0-1.82-4.394l-.011-.01c.076.888.073 1.614.068 2.888-.013 1.635.002 2.768.002 2.953l-.3.143c0 .048-1.873 1.235-3.994 1.235-2.192 0-3.753-.995-4.62-1.352.002-.293.026.337.013-2.943-.005-1.255-.008-2.023.068-2.916a6.127 6.127 0 0 0-1.828 4.395zm10.142 9.565h-1.396v-.52h1.396v.52zM47.223 95.6h5.966v.521h-5.966v-.52zm-1.9 0h1.101v.521h-1.102v-.52zm0 1.671h5.609v.521h-5.61v-.52z" fill="#fff"/><path d="M53.076 83.43a18.635 18.635 0 0 0-3.61-9.151L49.258 74l-.209.279a18.57 18.57 0 0 0-3.611 9.15c-.175 1.58-.086 2.496-.11 5.92.174.072 1.95 1.172 4.086 1.172 2.168 0 3.625-1.116 3.77-1.185-.023-3.466.066-4.309-.108-5.906zM58.013 76.899h-.467v.52h.467v-.52zM54.942 76.899h-.521v.52h.52v-.52zM55.984 76.899h-.521v.52h.52v-.52zM57.026 76.899h-.521v.52h.52v-.52zM61.605 81.297h-.467v.521h.467v-.52zM59.575 81.297h-.52v.521h.52v-.52zM58.533 81.297h-.52v.521h.52v-.52zM60.617 81.297h-.52v.521h.52v-.52zM38.779 82.615h-.521v.521h.52v-.52zM39.82 82.615h-.521v.521h.52v-.52zM41.849 82.615h-.467v.521h.467v-.52zM40.86 82.615h-.52v.521h.52v-.52zM58.092 96.579h-.52v.52h.52v-.52zM61.162 96.579h-.467v.52h.467v-.52zM60.175 96.579h-.52v.52h.52v-.52zM59.133 96.579h-.52v.52h.52v-.52zM42.385 76.708h-.521c0 .63-.51 1.146-1.138 1.151h-.013v.524c.635 0 1.15.515 1.15 1.15h.522c0-.63.508-1.145 1.138-1.15h.013v-.524a1.151 1.151 0 0 1-1.151-1.15zM57.57 90.747v.521c.636 0 1.151.516 1.151 1.151h.521c0-.635.518-1.15 1.151-1.15v-.522a1.153 1.153 0 0 1-1.15-1.15h-.522c0 .635-.515 1.15-1.15 1.15zM38 87.018c.633 0 1.151.518 1.151 1.151h.52c0-.633.517-1.15 1.152-1.15v-.522a1.151 1.151 0 0 1-1.151-1.15h-.521c0 .635-.518 1.15-1.151 1.15v.521z" fill="#fff"/><defs><linearGradient id="paint0_linear" x1="60.261" y1="61.173" x2="93.586" gradientUnits="userSpaceOnUse"><stop stop-color="#89CB97"/><stop offset=".509" stop-color="#69C57D" stop-opacity=".8"/><stop offset="1" stop-color="#48BF61" stop-opacity="0"/></linearGradient><linearGradient id="paint1_linear" x1="3.626" y1="2.052" x2="37.125" y2="61.237" gradientUnits="userSpaceOnUse"><stop stop-color="#48BF61" stop-opacity="0"/><stop offset=".51" stop-color="#69C57D" stop-opacity=".8"/><stop offset="1" stop-color="#89CB97"/></linearGradient></defs></svg>