<svg width="98" height="143" fill="none" xmlns="http://www.w3.org/2000/svg"><path d="M90.178.003L56.677 59.192l7.254 4.106L97.432 4.109 90.178.003z" fill="url(#paint0_linear)"/><path d="M7.873 0L.621 4.104 34.12 63.29l7.252-4.104L7.873 0z" fill="url(#paint1_linear)"/><path d="M49.052 62.816a24.129 24.129 0 1 0 0 48.258 24.129 24.129 0 0 0 0-48.258z" fill="#48BF61"/><path d="M35 86.733v7.706A3.564 3.564 0 0 0 38.561 98h22.044a3.564 3.564 0 0 0 3.562-3.561v-7.706H35zM58.272 94.1a1.672 1.672 0 0 1-1.382-.706c-.307.43-.829.706-1.381.706a1.75 1.75 0 1 1 0-3.5c.583 0 1.074.276 1.381.706.307-.4.83-.706 1.382-.706.982 0 1.75.798 1.75 1.75a1.77 1.77 0 0 1-1.75 1.75zM60.605 77H38.561C36.596 77 35 78.597 35 80.53v2.12h29.167v-2.12c0-1.933-1.597-3.53-3.562-3.53z" fill="#fff"/><defs><linearGradient id="paint0_linear" x1="60.882" y1="61.173" x2="94.207" gradientUnits="userSpaceOnUse"><stop stop-color="#89CB97"/><stop offset=".509" stop-color="#69C57D" stop-opacity=".8"/><stop offset="1" stop-color="#48BF61" stop-opacity="0"/></linearGradient><linearGradient id="paint1_linear" x1="4.247" y1="2.052" x2="37.746" y2="61.237" gradientUnits="userSpaceOnUse"><stop stop-color="#48BF61" stop-opacity="0"/><stop offset=".51" stop-color="#69C57D" stop-opacity=".8"/><stop offset="1" stop-color="#89CB97"/></linearGradient></defs></svg>