<svg width="97" height="143" fill="none" xmlns="http://www.w3.org/2000/svg"><path d="M89.557.003L56.056 59.192l7.254 4.106L96.811 4.109 89.557.003z" fill="url(#paint0_linear)"/><path d="M7.252 0L0 4.105 33.499 63.29l7.252-4.105L7.25 0z" fill="url(#paint1_linear)"/><path d="M48.43 62.816a24.129 24.129 0 1 0 .001 48.258 24.129 24.129 0 0 0 0-48.258z" fill="#48BF61"/><path d="M42.738 90.85H34.35a.35.35 0 0 0-.323.224.372.372 0 0 0 .076.395l4.09 4.242v3.563h-1.206a.356.356 0 0 0-.35.363c0 .2.157.363.35.363H40.1c.193 0 .35-.162.35-.363 0-.2-.157-.363-.35-.363h-1.207v-3.563l4.091-4.242c.1-.104.13-.26.076-.395a.35.35 0 0 0-.323-.224zm-1.36 1.26H35.71l-.515-.535h6.698l-.515.534zm11.316-1.26h-8.388a.35.35 0 0 0-.323.224.372.372 0 0 0 .076.395l4.091 4.242v3.563h-1.207a.356.356 0 0 0-.35.363c0 .2.157.363.35.363h3.114c.193 0 .35-.162.35-.363 0-.2-.157-.363-.35-.363H48.85v-3.563l4.091-4.242c.1-.104.13-.26.076-.395a.35.35 0 0 0-.323-.224zm-1.36 1.26h-5.668l-.515-.535h6.698l-.515.534zm11.564-.64c.1-.105.13-.26.076-.396a.35.35 0 0 0-.324-.224h-8.387a.35.35 0 0 0-.324.224.374.374 0 0 0 .076.395l4.091 4.242v3.563H56.9a.356.356 0 0 0-.35.363c0 .2.156.363.35.363h3.114c.193 0 .35-.162.35-.363 0-.2-.157-.363-.35-.363h-1.208v-3.563l4.092-4.242zm-7.79.105h6.698l-.515.534h-5.669l-.515-.534zm-7.069-8.926a.35.35 0 0 0-.323-.224h-8.388a.35.35 0 0 0-.323.224.373.373 0 0 0 .076.396l4.09 4.242v2.555c0 .2.158.362.35.362.194 0 .35-.162.35-.362v-2.555l4.092-4.242c.1-.105.13-.26.076-.396zm-1.683 1.036h-5.669l-.515-.535h6.699l-.515.535zm11.64-1.036a.35.35 0 0 0-.324-.224h-8.388a.35.35 0 0 0-.323.224.373.373 0 0 0 .075.396l4.092 4.242v2.555c0 .2.157.362.35.362.193 0 .35-.162.35-.362v-2.555l4.091-4.242c.1-.105.13-.26.076-.396zm-1.684 1.036h-5.668l-.515-.535h6.698l-.515.535zm-8.162-4.823v2.554c0 .2.157.363.35.363.193 0 .35-.162.35-.363v-2.554l4.091-4.243c.1-.103.13-.26.076-.395a.35.35 0 0 0-.323-.224h-8.388a.35.35 0 0 0-.323.224.372.372 0 0 0 .076.395l4.091 4.243zm3.7-4.136l-.516.534h-5.668l-.515-.534h6.698z" fill="#fff"/><defs><linearGradient id="paint0_linear" x1="60.261" y1="61.173" x2="93.586" gradientUnits="userSpaceOnUse"><stop stop-color="#89CB97"/><stop offset=".509" stop-color="#69C57D" stop-opacity=".8"/><stop offset="1" stop-color="#48BF61" stop-opacity="0"/></linearGradient><linearGradient id="paint1_linear" x1="3.626" y1="2.052" x2="37.125" y2="61.237" gradientUnits="userSpaceOnUse"><stop stop-color="#48BF61" stop-opacity="0"/><stop offset=".51" stop-color="#69C57D" stop-opacity=".8"/><stop offset="1" stop-color="#89CB97"/></linearGradient></defs></svg>