<svg width="97" height="143" fill="none" xmlns="http://www.w3.org/2000/svg"><path d="M89.557.003L56.056 59.192l7.254 4.106L96.811 4.109 89.557.003z" fill="url(#paint0_linear)"/><path d="M7.252 0L0 4.104 33.499 63.29l7.252-4.104L7.25 0z" fill="url(#paint1_linear)"/><path d="M48.43 62.816a24.129 24.129 0 1 0 .001 48.258 24.129 24.129 0 0 0 0-48.258z" fill="#48BF61"/><path fill-rule="evenodd" clip-rule="evenodd" d="M61.505 91.397c0-.095-.142-.19-.285-.19-.142 0-.237.096-.237.19 0 .285-.095.428-.333.665-.522.618-.522 1.236 0 1.853.428.475.428.902 0 1.377-.522.618-.522 1.188 0 1.805.238.238.333.38.333.666 0 .142.095.237.237.237.143 0 .285-.095.285-.237 0-.38-.142-.57-.427-.903-.38-.475-.38-.903 0-1.377.57-.57.57-1.188 0-1.806-.38-.475-.38-.902 0-1.377.285-.285.427-.522.427-.903zM35.238 80.472c.237 0 .38.143.38.38 0 .238-.143.428-.38.428-.238 0-.38-.19-.38-.427 0-.238.142-.38.38-.38zM34.668 79h27.645a1.48 1.48 0 0 1 1.472 1.472v8.123c0 .855-.665 1.52-1.472 1.52H34.668c-.808 0-1.473-.665-1.473-1.52v-8.123A1.48 1.48 0 0 1 34.668 79zm1.805 8.74h24.035c.19 0 .332.142.332.333 0 .19-.142.332-.332.332H36.473a.325.325 0 0 1-.333-.332c0-.19.143-.333.333-.333zm-.048 3.468c-.142 0-.237.094-.237.19 0 .285-.095.427-.333.665-.522.617-.522 1.234 0 1.852.428.475.428.902 0 1.377-.522.618-.522 1.188 0 1.805.238.238.333.38.333.666 0 .142.095.237.237.237.143 0 .285-.095.285-.237 0-.38-.142-.57-.427-.903-.38-.475-.38-.903 0-1.377.57-.57.57-1.188 0-1.806-.38-.475-.38-.902 0-1.377.285-.285.427-.522.427-.903 0-.095-.142-.19-.285-.19zm3.895 6.555c0 .142.095.237.238.237.142 0 .285-.095.285-.237 0-.38-.143-.57-.428-.903-.38-.475-.38-.903 0-1.377.57-.57.57-1.188 0-1.806-.38-.475-.38-.902 0-1.377.285-.285.428-.522.428-.903 0-.095-.143-.19-.285-.19-.143 0-.238.096-.238.19 0 .285-.095.428-.332.665-.523.618-.523 1.236 0 1.853.427.475.427.902 0 1.377-.523.618-.523 1.188 0 1.805.237.238.332.38.332.666zm4.133 0c0 .142.095.237.237.237.143 0 .285-.095.285-.237 0-.38-.142-.57-.427-.903-.38-.475-.38-.903 0-1.377.57-.57.57-1.188 0-1.806-.38-.475-.38-.902 0-1.377.285-.285.427-.522.427-.903 0-.095-.142-.19-.285-.19-.142 0-.237.096-.237.19 0 .285-.095.428-.333.665-.522.618-.522 1.236 0 1.853.428.475.428.902 0 1.377-.522.618-.522 1.188 0 1.805.238.238.333.38.333.666zm4.37-6.556c-.143 0-.238.096-.238.19 0 .285-.095.428-.332.665-.523.618-.523 1.236 0 1.853.427.475.427.902 0 1.377-.523.57-.523 1.188 0 1.805.237.238.332.38.332.666 0 .142.095.237.238.237.142 0 .285-.095.285-.237 0-.38-.143-.57-.428-.903-.38-.475-.38-.903 0-1.377.57-.57.57-1.188 0-1.806-.38-.475-.38-.902 0-1.377.285-.285.428-.522.428-.903 0-.095-.143-.19-.285-.19zm4.417.19c0-.095-.142-.19-.285-.19-.142 0-.237.096-.237.19 0 .285-.095.428-.333.665-.522.618-.522 1.236 0 1.853.428.475.428.902 0 1.377-.522.57-.522 1.188 0 1.805.238.238.333.38.333.666 0 .142.095.237.237.237.143 0 .285-.095.285-.237 0-.38-.142-.57-.427-.903-.38-.475-.38-.903 0-1.377.57-.57.57-1.188 0-1.806-.38-.475-.38-.902 0-1.377.285-.285.427-.522.427-.903zm3.848-.19c-.143 0-.238.096-.238.19 0 .285-.095.428-.332.665-.523.618-.523 1.236 0 1.853.427.475.427.902 0 1.377-.523.57-.523 1.188 0 1.805.237.238.332.38.332.666 0 .142.095.237.238.237.142 0 .285-.095.285-.237 0-.38-.143-.57-.428-.903-.38-.475-.38-.903 0-1.377.57-.57.57-1.188 0-1.806-.38-.475-.38-.902 0-1.377.285-.285.428-.522.428-.903 0-.095-.143-.19-.285-.19z" fill="#fff"/><defs><linearGradient id="paint0_linear" x1="60.261" y1="61.173" x2="93.586" gradientUnits="userSpaceOnUse"><stop stop-color="#89CB97"/><stop offset=".509" stop-color="#69C57D" stop-opacity=".8"/><stop offset="1" stop-color="#48BF61" stop-opacity="0"/></linearGradient><linearGradient id="paint1_linear" x1="3.626" y1="2.052" x2="37.125" y2="61.237" gradientUnits="userSpaceOnUse"><stop stop-color="#48BF61" stop-opacity="0"/><stop offset=".51" stop-color="#69C57D" stop-opacity=".8"/><stop offset="1" stop-color="#89CB97"/></linearGradient></defs></svg>