<svg width="97" height="143" fill="none" xmlns="http://www.w3.org/2000/svg"><path d="M89.557.003L56.056 59.192l7.254 4.106L96.811 4.109 89.557.003z" fill="url(#paint0_linear)"/><path d="M7.252 0L0 4.104 33.499 63.29l7.252-4.104L7.25 0z" fill="url(#paint1_linear)"/><path d="M48.43 62.816a24.129 24.129 0 1 0 .001 48.258 24.129 24.129 0 0 0 0-48.258z" fill="#48BF61"/><path fill-rule="evenodd" clip-rule="evenodd" d="M55.976 86.027l.046-2.794h3.47l.645 2.794h-4.161zM39.66 92.54c0-1.117.9-2.018 2.018-2.018 1.117 0 2.017.9 2.017 2.018 0 1.117-.9 2.017-2.017 2.017s-2.018-.9-2.018-2.017zm17.942.007c0-1.117.9-2.017 2.017-2.017s2.018.9 2.018 2.017-.9 2.017-2.018 2.017c-1.117 0-2.017-.9-2.017-2.017zm-1.549-11.26L56.11 78H36.715l-.308 15.52h1.44a3.945 3.945 0 0 0 3.831 2.973c1.851 0 3.398-1.26 3.832-2.973h10.277a3.945 3.945 0 0 0 3.832 2.98 3.945 3.945 0 0 0 3.833-2.98h1.88v-7.48l-3.201-.007-1.097-4.746h-4.98zm-20.445 5.84h-2.853v1.946h2.815l.038-1.947zM31.916 85.8h3.72l.04-1.947h-3.76V85.8zm-.842-3.275h4.627l.038-1.946h-4.665v1.947zm15.245-.599l2.578-2.355.48.48-1.891 1.89.264.264 1.929-1.852.48.48-1.852 1.93.264.264 1.89-1.89.48.479-2.355 2.577H47.57l-.288-.288-.376.385 3.529 3.515-.78.78-3.49-3.537-3.458 3.538-.78-.78 3.187-3.117-3.23-3.934.743-.745 3.595 3.595.386-.376-.289-.288v-1.015z" fill="#fff"/><defs><linearGradient id="paint0_linear" x1="60.261" y1="61.173" x2="93.586" gradientUnits="userSpaceOnUse"><stop stop-color="#89CB97"/><stop offset=".509" stop-color="#69C57D" stop-opacity=".8"/><stop offset="1" stop-color="#48BF61" stop-opacity="0"/></linearGradient><linearGradient id="paint1_linear" x1="3.626" y1="2.052" x2="37.125" y2="61.237" gradientUnits="userSpaceOnUse"><stop stop-color="#48BF61" stop-opacity="0"/><stop offset=".51" stop-color="#69C57D" stop-opacity=".8"/><stop offset="1" stop-color="#89CB97"/></linearGradient></defs></svg>