<svg width="98" height="143" fill="none" xmlns="http://www.w3.org/2000/svg"><path d="M90.367.003l-33.5 59.189 7.254 4.106 33.5-59.189L90.368.003z" fill="url(#paint0_linear)"/><path d="M8.062 0L.811 4.104 34.309 63.29l7.252-4.104L8.062 0z" fill="url(#paint1_linear)"/><path d="M49.242 62.816a24.128 24.128 0 1 0 0 48.257 24.128 24.128 0 0 0 0-48.257z" fill="#48BF61"/><path d="M53.667 80.5c.615 0 1.216-.19 1.728-.548.512-.357.91-.864 1.146-1.458a3.386 3.386 0 0 0 .177-1.878 3.297 3.297 0 0 0-.851-1.664 3.073 3.073 0 0 0-1.593-.89 2.988 2.988 0 0 0-1.798.185 3.144 3.144 0 0 0-1.396 1.197 3.354 3.354 0 0 0-.524 1.806c0 .862.327 1.689.91 2.298.584.61 1.376.952 2.2.952zm-12.445 3.25c0-.643-.182-1.271-.524-1.806a3.144 3.144 0 0 0-1.396-1.197 2.988 2.988 0 0 0-1.798-.185 3.073 3.073 0 0 0-1.593.89 3.297 3.297 0 0 0-.851 1.664c-.12.63-.059 1.284.177 1.878a3.224 3.224 0 0 0 1.146 1.458A3.017 3.017 0 0 0 38.11 87c.825 0 1.617-.342 2.2-.952.583-.61.911-1.436.911-2.298zM59.89 80.5c-.615 0-1.217.19-1.729.548-.511.357-.91.864-1.145 1.458a3.384 3.384 0 0 0-.177 1.878c.12.63.416 1.21.851 1.664.435.455.99.764 1.593.89.603.125 1.229.06 1.798-.185a3.145 3.145 0 0 0 1.396-1.197A3.355 3.355 0 0 0 63 83.75c0-.862-.328-1.689-.911-2.298a3.045 3.045 0 0 0-2.2-.952zm-15.556 0c.616 0 1.217-.19 1.729-.548.511-.357.91-.864 1.146-1.458a3.385 3.385 0 0 0 .177-1.878 3.298 3.298 0 0 0-.852-1.664 3.073 3.073 0 0 0-1.593-.89 2.988 2.988 0 0 0-1.797.185 3.145 3.145 0 0 0-1.397 1.197 3.355 3.355 0 0 0-.524 1.806c0 .862.328 1.689.911 2.298.584.61 1.375.952 2.2.952zM49 82.125c-1.26 0-2.491.401-3.528 1.15a6.453 6.453 0 0 0-2.278 3.04 3.272 3.272 0 0 1-1.318 1.651 6.38 6.38 0 0 0-2.393 2.768 6.728 6.728 0 0 0-.533 3.687 6.586 6.586 0 0 0 2.084 3.99A6.071 6.071 0 0 0 45.11 100a5.83 5.83 0 0 0 2.64-.635 2.784 2.784 0 0 1 2.497 0 5.83 5.83 0 0 0 2.64.635 6.071 6.071 0 0 0 4.077-1.588 6.587 6.587 0 0 0 2.085-3.99 6.73 6.73 0 0 0-.533-3.688 6.382 6.382 0 0 0-2.393-2.767 3.27 3.27 0 0 1-1.318-1.651 6.453 6.453 0 0 0-2.277-3.04A6.028 6.028 0 0 0 49 82.124z" fill="#fff"/><defs><linearGradient id="paint0_linear" x1="61.071" y1="61.173" x2="94.397" gradientUnits="userSpaceOnUse"><stop stop-color="#89CB97"/><stop offset=".509" stop-color="#69C57D" stop-opacity=".8"/><stop offset="1" stop-color="#48BF61" stop-opacity="0"/></linearGradient><linearGradient id="paint1_linear" x1="4.436" y1="2.052" x2="37.935" y2="61.237" gradientUnits="userSpaceOnUse"><stop stop-color="#48BF61" stop-opacity="0"/><stop offset=".51" stop-color="#69C57D" stop-opacity=".8"/><stop offset="1" stop-color="#89CB97"/></linearGradient></defs></svg>