<svg width="97" height="143" fill="none" xmlns="http://www.w3.org/2000/svg"><path d="M89.557.003L56.056 59.192l7.254 4.106L96.811 4.109 89.557.003z" fill="url(#paint0_linear)"/><path d="M7.252 0L0 4.104 33.499 63.29l7.252-4.104L7.25 0z" fill="url(#paint1_linear)"/><path d="M48.43 62.816a24.129 24.129 0 1 0 .001 48.258 24.129 24.129 0 0 0 0-48.258z" fill="#48BF61"/><path d="M39.973 81c1.104 0 2-.672 2-1.5s-.896-1.5-2-1.5c-1.105 0-2 .672-2 1.5s.895 1.5 2 1.5zM48.473 78a1.5 1.5 0 1 0 0-3 1.5 1.5 0 0 0 0 3zM56.473 81c.828 0 1.5-.895 1.5-2s-.672-2-1.5-2c-.829 0-1.5.895-1.5 2s.671 2 1.5 2zM48.473 89c-1.402 0-2.5-.659-2.5-1.5s1.098-1.5 2.5-1.5c1.401 0 2.5.659 2.5 1.5s-1.099 1.5-2.5 1.5zm0-2.54c-.983 0-2.078.427-2.078 1.04s1.095 1.04 2.078 1.04c.982 0 2.077-.427 2.077-1.04s-1.095-1.04-2.077-1.04zM54.473 90c-1.402 0-2.5-.659-2.5-1.5s1.098-1.5 2.5-1.5c1.401 0 2.5.659 2.5 1.5s-1.099 1.5-2.5 1.5zm0-2.54c-.983 0-2.078.427-2.078 1.04s1.095 1.04 2.078 1.04c.982 0 2.077-.427 2.077-1.04 0-.614-1.095-1.04-2.077-1.04zM42.473 90c-1.402 0-2.5-.659-2.5-1.5s1.098-1.5 2.5-1.5c1.401 0 2.5.659 2.5 1.5s-1.099 1.5-2.5 1.5zm0-2.54c-.983 0-2.078.427-2.078 1.04s1.095 1.04 2.078 1.04c.982 0 2.077-.427 2.077-1.04 0-.614-1.095-1.04-2.077-1.04z" fill="#fff"/><path d="M42.973 84.472l-.241-2.65c-.05-.466-.39-.817-.795-.817L37.991 81c-.415 0-.761.367-.799.848 0-.318-.149 2.562-.219 5.202a.71.71 0 0 0 .005.11c.122.937.436 2.142 2.077 2.755.981.367 1.19-.538.814-1.078-.37-.53-.7-.949-.923-1.327-.208-.354-.167-1.36-.16-1.483.288-.196.784-.434 1.005-.538.934-.437 2.013-.773 3.182-1.017zM52.973 84.472l.28-2.65a.935.935 0 0 1 .928-.817L58.784 81c.484 0 .889.367.933.848 0-.318.174 2.562.255 5.202a.615.615 0 0 1-.005.11c-.143.937-.509 2.142-2.424 2.755-1.145.367-1.389-.538-.95-1.078.432-.53.817-.949 1.077-1.327.243-.354.196-1.36.188-1.483-.336-.196-.915-.434-1.173-.538-1.09-.437-2.35-.773-3.712-1.017zM51.468 79.846c-.056-.48-.433-.84-.88-.84L46.221 79c-.46 0-.843.378-.884.872l-.364 5.094a26.823 26.823 0 0 1 3.355-.208H48.364c.745 0 1.48.031 2.198.089l.41.037c.338.032.672.071 1 .116l-.504-5.154zm-2.966 4.719l-.615-.962.384-3.378a.154.154 0 0 1-.074-.133v-.369c0-.084.063-.152.14-.152h.34c.078 0 .142.068.142.152v.368a.152.152 0 0 1-.087.14l.408 3.372-.638.962z" fill="#fff"/><path d="M38.973 86.978c.309-.131.647-.258 1.013-.378 2.251-.737 5.256-1.143 8.461-1.143s6.21.406 8.461 1.143c.387.127.742.26 1.065.4v-.51c-2.247-.91-5.68-1.49-9.526-1.49-3.817 0-7.226.572-9.474 1.469v.51zM59.967 89.056a3.134 3.134 0 0 1-.63.81c-.098.903-1.178 1.868-2.931 2.609-2.11.89-4.93 1.38-7.941 1.38-3.012 0-5.833-.49-7.942-1.38-1.786-.754-2.873-1.742-2.936-2.659A3.14 3.14 0 0 1 36.98 89c-.07.199.373 7.32.373 7.32h1.378l-.036-3.938c1.208.792 2.943 1.428 4.996 1.82L44.008 99h1.36l.35-4.504a27.012 27.012 0 0 0 5.4.01L51.411 99h1.36l.37-4.78c2.096-.39 3.866-1.034 5.093-1.84l-.032 3.874h1.378s.445-7.017.386-7.198z" fill="#fff"/><defs><linearGradient id="paint0_linear" x1="60.261" y1="61.173" x2="93.586" gradientUnits="userSpaceOnUse"><stop stop-color="#89CB97"/><stop offset=".509" stop-color="#69C57D" stop-opacity=".8"/><stop offset="1" stop-color="#48BF61" stop-opacity="0"/></linearGradient><linearGradient id="paint1_linear" x1="3.626" y1="2.052" x2="37.125" y2="61.237" gradientUnits="userSpaceOnUse"><stop stop-color="#48BF61" stop-opacity="0"/><stop offset=".51" stop-color="#69C57D" stop-opacity=".8"/><stop offset="1" stop-color="#89CB97"/></linearGradient></defs></svg>