<svg width="98" height="143" fill="none" xmlns="http://www.w3.org/2000/svg"><path d="M90.367.003l-33.5 59.189 7.254 4.106 33.5-59.189L90.368.003z" fill="url(#paint0_linear)"/><path d="M8.062 0L.811 4.104 34.309 63.29l7.252-4.104L8.062 0z" fill="url(#paint1_linear)"/><path d="M49.242 62.816a24.128 24.128 0 1 0 0 48.257 24.128 24.128 0 0 0 0-48.257z" fill="#48BF61"/><path d="M60.556 86.039H59.5l.063-.926h.029c.383 0 .75-.146 1.021-.407.27-.26.423-.614.423-.982s-.152-.721-.423-.982a1.474 1.474 0 0 0-1.021-.407h-.106a7.299 7.299 0 0 0-2.328-3.54 7.765 7.765 0 0 0-3.965-1.737 31.4 31.4 0 0 0-2.557-.231 1.795 1.795 0 0 0 .046-1.876 1.888 1.888 0 0 0-.707-.696 1.986 1.986 0 0 0-1.952 0c-.296.168-.54.408-.707.696a1.795 1.795 0 0 0 .046 1.876 31.4 31.4 0 0 0-2.557.231 7.766 7.766 0 0 0-3.965 1.737 7.299 7.299 0 0 0-2.328 3.54h-.106c-.383 0-.75.147-1.021.407-.27.26-.423.614-.423.982s.152.722.423.982c.27.26.638.407 1.021.407h.03l.062.926h-1.055c-.383 0-.75.146-1.02.406-.272.26-.424.614-.424.982 0 .369.152.722.423.982s.638.407 1.021.407h1.243l.51 7.629c.058.697.388 1.348.924 1.822a2.955 2.955 0 0 0 1.965.733h13.838a2.954 2.954 0 0 0 1.968-.737 2.738 2.738 0 0 0 .92-1.828l.506-7.619h1.238c.383 0 .75-.146 1.02-.407.272-.26.424-.613.424-.982 0-.368-.152-.721-.423-.982a1.475 1.475 0 0 0-1.021-.406zM48.037 75.855a.9.9 0 0 1 .162-.514.955.955 0 0 1 .433-.341.999.999 0 0 1 1.049.2.894.894 0 0 1 .209 1.009.934.934 0 0 1-.355.416.99.99 0 0 1-1.216-.115.908.908 0 0 1-.282-.655zm-10.111 7.87c0-.123.05-.241.14-.328a.492.492 0 0 1 .341-.136h21.186c.127 0 .25.05.34.136.09.087.141.204.141.327 0 .123-.05.24-.14.328a.492.492 0 0 1-.341.135H38.407a.492.492 0 0 1-.34-.135.455.455 0 0 1-.141-.328zm-.482 4.165a.491.491 0 0 1-.34-.135.454.454 0 0 1 0-.655.491.491 0 0 1 .34-.135h1.117l.063.925h-1.18zm20.4 8.48a1.825 1.825 0 0 1-.615 1.215c-.357.316-.825.49-1.31.49H42.076a1.97 1.97 0 0 1-1.308-.488 1.825 1.825 0 0 1-.618-1.212v-.152h17.704l-.01.148zm2.712-8.48H59.38l.057-.925h1.118c.127 0 .25.048.34.135a.454.454 0 0 1 0 .655.491.491 0 0 1-.34.135z" fill="#fff"/><defs><linearGradient id="paint0_linear" x1="61.071" y1="61.173" x2="94.397" gradientUnits="userSpaceOnUse"><stop stop-color="#89CB97"/><stop offset=".509" stop-color="#69C57D" stop-opacity=".8"/><stop offset="1" stop-color="#48BF61" stop-opacity="0"/></linearGradient><linearGradient id="paint1_linear" x1="4.436" y1="2.052" x2="37.935" y2="61.237" gradientUnits="userSpaceOnUse"><stop stop-color="#48BF61" stop-opacity="0"/><stop offset=".51" stop-color="#69C57D" stop-opacity=".8"/><stop offset="1" stop-color="#89CB97"/></linearGradient></defs></svg>