<svg width="97" height="143" fill="none" xmlns="http://www.w3.org/2000/svg"><path d="M89.557.003L56.056 59.192l7.254 4.106L96.811 4.109 89.557.003z" fill="url(#paint0_linear)"/><path d="M7.252 0L0 4.104 33.499 63.29l7.252-4.104L7.25 0z" fill="url(#paint1_linear)"/><path d="M48.43 62.816a24.129 24.129 0 1 0 .001 48.258 24.129 24.129 0 0 0 0-48.258z" fill="#48BF61"/><path d="M54.695 89.946v-9.934c0-.013-.006-.023-.007-.035-.002-.012.001-.024-.002-.036-.002-.009-.008-.016-.01-.024a.345.345 0 0 0-.058-.106.303.303 0 0 0-.048-.044.28.28 0 0 0-.104-.052.33.33 0 0 0-.059-.012c-.009 0-.017-.005-.026-.005-.013 0-.024.006-.036.007-.012.001-.024-.002-.035 0L44.837 81.9c-.008.002-.015.008-.024.011a.276.276 0 0 0-.058.026.273.273 0 0 0-.089.076.288.288 0 0 0-.067.167c0 .01-.005.017-.005.026v8.423a2.126 2.126 0 0 0-1.505-.623 2.136 2.136 0 0 0-2.134 2.134c0 1.177.957 2.134 2.134 2.134a2.136 2.136 0 0 0 2.134-2.134v-7.489l8.843-2.049v5.833a2.125 2.125 0 0 0-1.504-.623 2.136 2.136 0 0 0-2.135 2.134c0 1.176.958 2.133 2.135 2.133a2.136 2.136 0 0 0 2.133-2.133zM39.85 80.325c.993 0 1.986-.379 2.742-1.134a.315.315 0 0 0-.445-.445 3.252 3.252 0 0 1-4.594 0 2.54 2.54 0 0 1 0-3.587 1.953 1.953 0 0 1 1.39-.576c.525 0 1.019.205 1.39.576a1.512 1.512 0 0 1 0 2.135.315.315 0 0 0 .445.446 2.142 2.142 0 0 0 0-3.025 2.598 2.598 0 0 0-3.67 0 3.17 3.17 0 0 0 0 4.476 3.869 3.869 0 0 0 2.743 1.133zM42.37 82.123c-2.584 0-4.685 1.902-4.685 4.24a.315.315 0 0 0 .629 0c0-1.991 1.82-3.61 4.055-3.61a.315.315 0 0 0 0-.63zM58.787 96.165l-1.706-.933-.934-1.706c-.11-.203-.442-.203-.552 0l-.933 1.706-1.706.933a.315.315 0 0 0 0 .552l1.706.933.933 1.706a.315.315 0 0 0 .552 0l.934-1.706 1.705-.933a.315.315 0 0 0 0-.552zM57.457 78.17a1.904 1.904 0 0 0 1.902-1.902 1.903 1.903 0 0 0-1.902-1.901c-1.048 0-1.9.852-1.9 1.9 0 1.05.852 1.903 1.9 1.903zM40.395 94.392l-1.37-.75-.75-1.371c-.112-.202-.443-.202-.553 0l-.75 1.371-1.37.75a.315.315 0 0 0 0 .552l1.37.75.75 1.37a.315.315 0 0 0 .552 0l.75-1.37 1.371-.75a.315.315 0 0 0 0-.552zM48.196 93.645a.315.315 0 0 0-.315.315c0 1.871-1.587 3.395-3.537 3.395a.315.315 0 0 0 0 .629c2.297 0 4.167-1.806 4.167-4.024a.315.315 0 0 0-.315-.315zM60.193 88.361l-2.438-6.815a.314.314 0 1 0-.593.213l2.44 6.814a.314.314 0 0 0 .401.19.314.314 0 0 0 .19-.402zM47.158 78.17c.064 0 .128-.02.184-.059l3.583-2.572a.315.315 0 0 0-.367-.512L46.975 77.6a.315.315 0 0 0 .183.57z" fill="#fff"/><defs><linearGradient id="paint0_linear" x1="60.261" y1="61.173" x2="93.586" gradientUnits="userSpaceOnUse"><stop stop-color="#89CB97"/><stop offset=".509" stop-color="#69C57D" stop-opacity=".8"/><stop offset="1" stop-color="#48BF61" stop-opacity="0"/></linearGradient><linearGradient id="paint1_linear" x1="3.626" y1="2.052" x2="37.125" y2="61.237" gradientUnits="userSpaceOnUse"><stop stop-color="#48BF61" stop-opacity="0"/><stop offset=".51" stop-color="#69C57D" stop-opacity=".8"/><stop offset="1" stop-color="#89CB97"/></linearGradient></defs></svg>