<svg width="98" height="143" fill="none" xmlns="http://www.w3.org/2000/svg"><path d="M89.988.003l-33.5 59.189 7.254 4.106 33.5-59.189L89.989.003z" fill="url(#paint0_linear)"/><path d="M7.684 0L.432 4.104 33.93 63.29l7.252-4.104L7.684 0z" fill="url(#paint1_linear)"/><path d="M48.863 62.816a24.128 24.128 0 1 0 0 48.257 24.128 24.128 0 0 0 0-48.257z" fill="#48BF61"/><path fill-rule="evenodd" clip-rule="evenodd" d="M42.936 91.6a5.894 5.894 0 0 0-.392-.751c-.026-.044-.052-.089-.08-.132a6.185 6.185 0 0 0-.487-.655l-.05-.062h14.146c-.018.02-.033.042-.05.062a5.668 5.668 0 0 0-.308.393 5.832 5.832 0 0 0-.18.262l-.08.132c-.145.24-.28.489-.392.751H42.936zm3.017-10h-2.706l-.4-.8h3.506l-.4.8zm8.8 0h-2.706l-.4-.8h3.506l-.4.8zM46.656 80h-3.712c.792-1.117 2.704-3.438 5.171-3.912-.499.75-1.168 2.055-1.459 3.912zm4.688 0c-.291-1.857-.96-3.161-1.46-3.912 2.468.474 4.38 2.795 5.172 3.912h-3.712zM61 92.254V88.4a.4.4 0 0 0-.4-.4h-.11c-1.333 0-2.56.45-3.548 1.2H49.4v-6.8h.8a.4.4 0 0 0 .358-.221l.442-.885.442.885a.4.4 0 0 0 .358.221H55a.4.4 0 0 0 .358-.221l.442-.885.442.885a.4.4 0 0 0 .358.221h3.2a.4.4 0 0 0 .358-.221l.366-.734.27-.537c.058-.116.127-.233.174-.355a.423.423 0 0 0 .022-.229c-.036-.182-.222-.32-.354-.44a17.85 17.85 0 0 0-1.17-.963 19.614 19.614 0 0 0-4.787-2.651 17.182 17.182 0 0 0-1.628-.525 16.15 16.15 0 0 0-1.774-.37 15.37 15.37 0 0 0-1.877-.167V74.4a.4.4 0 0 0-.8 0v.808c-1.105.03-2.206.182-3.28.442-.97.236-1.918.56-2.833.958a19.73 19.73 0 0 0-4.026 2.367c-.36.274-.71.56-1.045.861-.158.143-.379.304-.41.53-.024.165.092.325.164.468.165.331.33.663.497.994l.175.35a.4.4 0 0 0 .358.222h3.2a.4.4 0 0 0 .358-.221l.442-.885.442.885A.4.4 0 0 0 43 82.4h3.2a.4.4 0 0 0 .358-.221l.442-.885.442.885a.4.4 0 0 0 .358.221h.8v6.8h-7.542A5.852 5.852 0 0 0 37.51 88h-.11a.4.4 0 0 0-.4.4v3.854c0 1.064.782 1.944 1.8 2.111l-1.366 3.073a.4.4 0 0 0 .731.324l1.453-3.267 1.832 3.3a.4.4 0 1 0 .7-.39L40.48 94.4H43a.4.4 0 0 0 .4-.4v-.11c0-.515-.074-1.013-.198-1.49H48.6v3.2h-.4c-1.103 0-2 .897-2 2 0 .22.179.4.4.4h4.8a.4.4 0 0 0 .4-.4c0-1.103-.897-2-2-2h-.4v-3.2h5.398a5.855 5.855 0 0 0-.198 1.49V94c0 .22.179.4.4.4h2.52l-1.67 3.006a.4.4 0 1 0 .7.388l1.832-3.299 1.452 3.267a.4.4 0 1 0 .731-.324L59.2 94.365a2.145 2.145 0 0 0 1.8-2.111z" fill="#fff"/><defs><linearGradient id="paint0_linear" x1="60.692" y1="61.173" x2="94.018" gradientUnits="userSpaceOnUse"><stop stop-color="#89CB97"/><stop offset=".509" stop-color="#69C57D" stop-opacity=".8"/><stop offset="1" stop-color="#48BF61" stop-opacity="0"/></linearGradient><linearGradient id="paint1_linear" x1="4.058" y1="2.052" x2="37.556" y2="61.237" gradientUnits="userSpaceOnUse"><stop stop-color="#48BF61" stop-opacity="0"/><stop offset=".51" stop-color="#69C57D" stop-opacity=".8"/><stop offset="1" stop-color="#89CB97"/></linearGradient></defs></svg>