<svg width="97" height="143" fill="none" xmlns="http://www.w3.org/2000/svg"><path d="M89.557.003L56.056 59.192l7.254 4.106L96.811 4.109 89.557.003z" fill="url(#paint0_linear)"/><path d="M7.252 0L0 4.104 33.499 63.29l7.252-4.104L7.25 0z" fill="url(#paint1_linear)"/><path d="M48.43 62.816a24.129 24.129 0 1 0 .001 48.258 24.129 24.129 0 0 0 0-48.258z" fill="#48BF61"/><path fill-rule="evenodd" clip-rule="evenodd" d="M39.945 85c1.636-3.289 4.106-2.733 3.997-6-.58 3.036-2.611 2.068-3.997 6zM40.945 85c1.371-2.226 2.493-1.686 3-4-.808 2.11-1.641 1.305-3 4zM39.945 84c.742-2.113 2.266-2.151 1.96-4-.126 1.817-1.416 1.556-1.96 4zM56.935 88H39.593c-.356 0-.648-.362-.648-.806v-1.388c0-.444.292-.806.648-.806h17.342c.556 0 1.01.362 1.01.806v1.388c0 .444-.454.806-1.01.806zm-3.881-.201a.899.899 0 0 0 .22-.605v-1.388a.899.899 0 0 0-.22-.604H40.609c.135.147.22.364.22.604v1.388a.9.9 0 0 1-.22.605h12.445z" fill="#fff"/><path fill-rule="evenodd" clip-rule="evenodd" d="M39.606 77.807c4.88-5.076 12.798-5.076 17.679 0 4.88 5.076 4.88 13.31 0 18.386-4.881 5.076-12.798 5.076-17.68 0-4.88-5.076-4.88-13.31 0-18.386zm15.384.822c-4.093-3.47-10.102-3.186-13.88.743-3.777 3.928-4.05 10.177-.714 14.434L54.99 78.63zM41.9 95.371c4.094 3.47 10.103 3.186 13.88-.743 3.777-3.928 4.051-10.177.714-14.434L41.901 95.37z" fill="#fff"/><path fill-rule="evenodd" clip-rule="evenodd" d="M39.606 77.807c4.88-5.076 12.798-5.076 17.679 0 4.88 5.076 4.88 13.31 0 18.386-4.881 5.076-12.798 5.076-17.68 0-4.88-5.076-4.88-13.31 0-18.386zm15.384.822c-4.093-3.47-10.102-3.186-13.88.743-3.777 3.928-4.05 10.177-.714 14.434L54.99 78.63zM41.9 95.371c4.094 3.47 10.103 3.186 13.88-.743 3.777-3.928 4.051-10.177.714-14.434L41.901 95.37z" fill="#fff"/><defs><linearGradient id="paint0_linear" x1="60.261" y1="61.173" x2="93.586" gradientUnits="userSpaceOnUse"><stop stop-color="#89CB97"/><stop offset=".509" stop-color="#69C57D" stop-opacity=".8"/><stop offset="1" stop-color="#48BF61" stop-opacity="0"/></linearGradient><linearGradient id="paint1_linear" x1="3.626" y1="2.052" x2="37.125" y2="61.237" gradientUnits="userSpaceOnUse"><stop stop-color="#48BF61" stop-opacity="0"/><stop offset=".51" stop-color="#69C57D" stop-opacity=".8"/><stop offset="1" stop-color="#89CB97"/></linearGradient></defs></svg>